<svg width="39" height="39" viewBox="0 0 39 39" fill="none" xmlns="http://www.w3.org/2000/svg">
<rect x="-2.90315" y="19.4999" width="31.6828" height="31.6828" rx="6.84814" transform="rotate(-45 -2.90315 19.4999)" fill="#2BC155"/>
<path d="M25.6576 19.7914C25.6576 19.5214 25.4387 19.3024 25.1686 19.3024C24.8986 19.3024 24.6796 19.5214 24.6796 19.7914H25.6576ZM14.3357 19.7914C14.3357 19.5214 14.1168 19.3024 13.8467 19.3024C13.5766 19.3024 13.3577 19.5214 13.3577 19.7914H14.3357ZM26.8441 17.8764L27.2994 17.6979L26.8441 17.8764ZM25.5888 14.6738L26.044 14.4954V14.4954L25.5888 14.6738ZM13.4266 14.6738L12.9713 14.4954V14.4954L13.4266 14.6738ZM12.1712 17.8764L12.6265 18.0548L12.1712 17.8764ZM24.8006 19.3891L24.4398 19.7191V19.7191L24.8006 19.3891ZM24.4888 19.0482L24.8497 18.7181L24.8497 18.7181L24.4888 19.0482ZM22.448 18.8272L22.1599 18.4321L22.448 18.8272ZM22.0767 19.0978L22.3647 19.493H22.3647L22.0767 19.0978ZM18.5561 18.7167L18.8441 19.1118L18.5561 18.7167ZM17.9389 19.1665L17.6509 18.7713L17.9389 19.1665ZM14.5753 18.9948L14.2145 18.6648H14.2145L14.5753 18.9948ZM14.2147 19.3891L14.5756 19.7191H14.5756L14.2147 19.3891ZM16.3529 18.9948L15.9921 19.3248L16.3529 18.9948ZM19.0187 18.023C19.0187 18.2931 19.2376 18.512 19.5077 18.512C19.7777 18.512 19.9967 18.2931 19.9967 18.023H19.0187ZM19.9967 17.1388C19.9967 16.8688 19.7777 16.6498 19.5077 16.6498C19.2376 16.6498 19.0187 16.8688 19.0187 17.1388H19.9967ZM15.0194 17.8197C14.9071 18.0653 15.0151 18.3554 15.2608 18.4678C15.5064 18.5801 15.7965 18.472 15.9088 18.2264L15.0194 17.8197ZM16.3132 17.3422C16.4255 17.0966 16.3174 16.8065 16.0718 16.6941C15.8262 16.5818 15.5361 16.6899 15.4238 16.9355L16.3132 17.3422ZM23.1065 18.2264C23.2188 18.472 23.509 18.5801 23.7546 18.4678C24.0002 18.3554 24.1082 18.0653 23.9959 17.8197L23.1065 18.2264ZM23.5916 16.9355C23.4793 16.6899 23.1891 16.5818 22.9435 16.6941C22.6979 16.8065 22.5898 17.0966 22.7022 17.3422L23.5916 16.9355ZM23.2315 18.9072C23.2315 18.6372 23.0126 18.4182 22.7425 18.4182C22.4724 18.4182 22.2535 18.6372 22.2535 18.9072H23.2315ZM16.7618 18.9072C16.7618 18.6372 16.5429 18.4182 16.2728 18.4182C16.0028 18.4182 15.7838 18.6372 15.7838 18.9072H16.7618ZM24.6796 19.7914V24.2125H25.6576V19.7914H24.6796ZM23.5512 25.4919H15.4641V26.4699H23.5512V25.4919ZM14.3357 24.2125V19.7914H13.3577V24.2125H14.3357ZM15.4641 25.4919C14.8811 25.4919 14.3357 24.961 14.3357 24.2125H13.3577C13.3577 25.4172 14.2606 26.4699 15.4641 26.4699V25.4919ZM24.6796 24.2125C24.6796 24.961 24.1343 25.4919 23.5512 25.4919V26.4699C24.7547 26.4699 25.6576 25.4172 25.6576 24.2125H24.6796ZM27.2994 17.6979L26.044 14.4954L25.1335 14.8523L26.3888 18.0548L27.2994 17.6979ZM24.1021 13.113H14.9132V14.091H24.1021V13.113ZM12.9713 14.4954L11.716 17.6979L12.6265 18.0548L13.8819 14.8523L12.9713 14.4954ZM25.1614 19.059L24.8497 18.7181L24.128 19.3782L24.4398 19.7191L25.1614 19.059ZM22.1599 18.4321L21.7887 18.7027L22.3647 19.493L22.736 19.2224L22.1599 18.4321ZM18.268 18.3215L17.6509 18.7713L18.227 19.5617L18.8441 19.1118L18.268 18.3215ZM14.2145 18.6648L13.8539 19.059L14.5756 19.7191L14.9362 19.3248L14.2145 18.6648ZM16.7137 18.6648C16.029 17.9161 14.8992 17.9161 14.2145 18.6648L14.9362 19.3248C15.2332 19.0001 15.6951 19.0001 15.9921 19.3248L16.7137 18.6648ZM20.6772 18.5772C20.0435 17.8843 19.0281 17.7675 18.268 18.3215L18.8441 19.1118C19.1906 18.8593 19.6488 18.9019 19.9555 19.2373L20.6772 18.5772ZM24.8497 18.7181C24.141 17.9433 23.0082 17.8137 22.1599 18.4321L22.736 19.2224C23.1707 18.9055 23.7463 18.9609 24.128 19.3782L24.8497 18.7181ZM24.4398 19.7191C24.7631 20.0726 25.2114 20.2804 25.6891 20.2804V19.3024C25.5004 19.3024 25.3094 19.2208 25.1614 19.059L24.4398 19.7191ZM21.7887 18.7027C21.4421 18.9552 20.9839 18.9126 20.6772 18.5772L19.9555 19.2373C20.5893 19.9302 21.6046 20.047 22.3647 19.493L21.7887 18.7027ZM17.6509 18.7713C17.3591 18.984 16.9739 18.9492 16.7137 18.6648L15.9921 19.3248C16.5792 19.9668 17.5216 20.0758 18.227 19.5617L17.6509 18.7713ZM13.8539 19.059C13.7059 19.2208 13.515 19.3024 13.3262 19.3024V20.2804C13.804 20.2804 14.2523 20.0726 14.5756 19.7191L13.8539 19.059ZM14.9132 13.113C14.0449 13.113 13.292 13.6773 12.9713 14.4954L13.8819 14.8523C14.0709 14.3699 14.4876 14.091 14.9132 14.091V13.113ZM26.044 14.4954C25.7234 13.6773 24.9705 13.113 24.1021 13.113V14.091C24.5278 14.091 24.9444 14.3699 25.1335 14.8523L26.044 14.4954ZM26.3888 18.0548C26.6425 18.702 26.1833 19.3024 25.6891 19.3024V20.2804C26.9992 20.2804 27.7564 18.8639 27.2994 17.6979L26.3888 18.0548ZM11.716 17.6979C11.2589 18.8639 12.0162 20.2804 13.3262 20.2804V19.3024C12.832 19.3024 12.3728 18.702 12.6265 18.0548L11.716 17.6979ZM19.9967 18.023V17.1388H19.0187V18.023H19.9967ZM15.9088 18.2264L16.3132 17.3422L15.4238 16.9355L15.0194 17.8197L15.9088 18.2264ZM23.9959 17.8197L23.5916 16.9355L22.7022 17.3422L23.1065 18.2264L23.9959 17.8197ZM22.2535 18.9072V22.4441H23.2315V18.9072H22.2535ZM21.9338 22.8393H17.0815V23.8173H21.9338V22.8393ZM16.7618 22.4441V18.9072H15.7838V22.4441H16.7618ZM17.0815 22.8393C16.9451 22.8393 16.7618 22.7043 16.7618 22.4441H15.7838C15.7838 23.1605 16.3247 23.8173 17.0815 23.8173V22.8393ZM22.2535 22.4441C22.2535 22.7043 22.0702 22.8393 21.9338 22.8393V23.8173C22.6907 23.8173 23.2315 23.1605 23.2315 22.4441H22.2535Z" fill="white"/>
</svg>
