<svg width="15" height="17" viewBox="0 0 15 17" fill="none" xmlns="http://www.w3.org/2000/svg">
<path d="M12.2734 12.2734L8.64605 15.9007C8.48742 16.0595 8.29905 16.1854 8.0917 16.2714C7.88436 16.3573 7.66211 16.4015 7.43766 16.4015C7.21321 16.4015 6.99096 16.3573 6.78362 16.2714C6.57627 16.1854 6.3879 16.0595 6.22927 15.9007L2.60111 12.2734C1.64467 11.3169 0.993341 10.0983 0.72948 8.7716C0.465619 7.44495 0.601077 6.06984 1.11873 4.82017C1.63637 3.5705 2.51296 2.5024 3.63765 1.75092C4.76233 0.999441 6.08459 0.598341 7.43723 0.598341C8.78987 0.598341 10.1121 0.999441 11.2368 1.75092C12.3615 2.5024 13.2381 3.5705 13.7557 4.82017C14.2734 6.06984 14.4088 7.44495 14.145 8.7716C13.8811 10.0983 13.2298 11.3169 12.2734 12.2734V12.2734Z" stroke="white" stroke-width="1.16667" stroke-linecap="round" stroke-linejoin="round"/>
<path d="M10.0022 7.43731C10.0022 8.11751 9.73203 8.76984 9.25106 9.25081C8.77009 9.73178 8.11776 10.002 7.43756 10.002C6.75737 10.002 6.10503 9.73178 5.62406 9.25081C5.14309 8.76984 4.87289 8.11751 4.87289 7.43731C4.87289 6.75712 5.14309 6.10478 5.62406 5.62381C6.10503 5.14284 6.75737 4.87264 7.43756 4.87264C8.11776 4.87264 8.77009 5.14284 9.25106 5.62381C9.73203 6.10478 10.0022 6.75712 10.0022 7.43731V7.43731Z" stroke="white" stroke-width="1.16667" stroke-linecap="round" stroke-linejoin="round"/>
</svg>
