<svg width="59" height="30" viewBox="0 0 59 30" fill="none" xmlns="http://www.w3.org/2000/svg">
<path d="M29 0H54C56.7614 0 59 2.23858 59 5V25C59 27.7614 56.7614 30 54 30H29V0Z" fill="#EDF5FF"/>
<path d="M47.918 15.2148C48.1641 14.9688 48.1641 14.5586 47.918 14.3125L42.6133 8.98047C42.3398 8.73438 41.9297 8.73438 41.6836 8.98047L41.0547 9.60938C40.8086 9.85547 40.8086 10.2656 41.0547 10.5391L45.2656 14.75L41.0547 18.9883C40.8086 19.2617 40.8086 19.6719 41.0547 19.918L41.6836 20.5469C41.9297 20.793 42.3398 20.793 42.6133 20.5469L47.918 15.2148Z" fill="#438FFE"/>
<path d="M30 0H5C2.23858 0 0 2.23858 0 5V25C0 27.7614 2.23858 30 5 30H30V0Z" fill="#438FFE"/>
<path d="M11.082 15.2148C10.8359 14.9688 10.8359 14.5586 11.082 14.3125L16.3867 8.98047C16.6602 8.73438 17.0703 8.73438 17.3164 8.98047L17.9453 9.60938C18.1914 9.85547 18.1914 10.2656 17.9453 10.5391L13.7344 14.75L17.9453 18.9883C18.1914 19.2617 18.1914 19.6719 17.9453 19.918L17.3164 20.5469C17.0703 20.793 16.6602 20.793 16.3867 20.5469L11.082 15.2148Z" fill="white"/>
</svg>
