<svg width="15" height="17" viewBox="0 0 15 17" fill="none" xmlns="http://www.w3.org/2000/svg">
<path d="M12.2736 12.2734L8.6463 15.9007C8.48767 16.0595 8.2993 16.1854 8.09195 16.2714C7.88461 16.3573 7.66236 16.4015 7.43791 16.4015C7.21346 16.4015 6.99121 16.3573 6.78387 16.2714C6.57652 16.1854 6.38815 16.0595 6.22952 15.9007L2.60136 12.2734C1.64492 11.3169 0.993592 10.0983 0.72973 8.7716C0.465869 7.44495 0.601328 6.06984 1.11898 4.82017C1.63662 3.5705 2.51321 2.5024 3.6379 1.75092C4.76258 0.999441 6.08484 0.598341 7.43748 0.598341C8.79012 0.598341 10.1124 0.999441 11.2371 1.75092C12.3617 2.5024 13.2383 3.5705 13.756 4.82017C14.2736 6.06984 14.4091 7.44495 14.1452 8.7716C13.8814 10.0983 13.23 11.3169 12.2736 12.2734V12.2734Z" stroke="white" stroke-width="1.16667" stroke-linecap="round" stroke-linejoin="round"/>
<path d="M10.0022 7.43731C10.0022 8.11751 9.73203 8.76984 9.25106 9.25081C8.77009 9.73178 8.11776 10.002 7.43756 10.002C6.75737 10.002 6.10503 9.73178 5.62406 9.25081C5.14309 8.76984 4.87289 8.11751 4.87289 7.43731C4.87289 6.75712 5.14309 6.10478 5.62406 5.62381C6.10503 5.14284 6.75737 4.87264 7.43756 4.87264C8.11776 4.87264 8.77009 5.14284 9.25106 5.62381C9.73203 6.10478 10.0022 6.75712 10.0022 7.43731V7.43731Z" stroke="white" stroke-width="1.16667" stroke-linecap="round" stroke-linejoin="round"/>
</svg>
