<svg width="16" height="19" viewBox="0 0 16 19" fill="none" xmlns="http://www.w3.org/2000/svg">
<path fill-rule="evenodd" clip-rule="evenodd" d="M0.766644 10.7973V10.611C0.793985 10.0596 0.970702 9.52533 1.27857 9.0633C1.79103 8.5083 2.14183 7.82818 2.29418 7.0943C2.29418 6.5271 2.29418 5.95179 2.34372 5.38459C2.59968 2.65392 5.2997 0.765942 7.96669 0.765942H8.03275C10.6997 0.765942 13.3998 2.65392 13.664 5.38459C13.7135 5.95179 13.664 6.5271 13.7053 7.0943C13.8597 7.82988 14.2101 8.51212 14.7209 9.07141C15.031 9.52934 15.208 10.0616 15.2328 10.611V10.7892C15.2512 11.53 14.9961 12.2524 14.5144 12.823C13.878 13.4903 13.0143 13.9055 12.0869 13.9899C9.36746 14.2816 6.62372 14.2816 3.90428 13.9899C2.97793 13.9018 2.11549 13.4873 1.47674 12.823C1.00253 12.2519 0.750828 11.5339 0.766644 10.7973Z" stroke="#8C8888" stroke-width="1.5" stroke-linecap="round" stroke-linejoin="round"/>
<path d="M5.91909 16.8096C6.344 17.3429 6.96797 17.6881 7.65292 17.7687C8.33787 17.8493 9.02731 17.6587 9.56866 17.239C9.73516 17.1149 9.88497 16.9706 10.0145 16.8096" stroke="#8C8888" stroke-width="1.5" stroke-linecap="round" stroke-linejoin="round"/>
</svg>
