<svg width="18" height="23" viewBox="0 0 18 23" fill="none" xmlns="http://www.w3.org/2000/svg">
<path d="M16.6122 0C16.9252 4.12884e-05 17.2273 0.114952 17.4612 0.322935C17.6951 0.530919 17.8445 0.81751 17.8811 1.12835L17.8901 1.27786V21.7236C17.8897 22.0493 17.765 22.3626 17.5414 22.5994C17.3178 22.8363 17.0122 22.9788 16.6871 22.9979C16.3619 23.017 16.0418 22.9112 15.792 22.7021C15.5423 22.4931 15.3817 22.1966 15.3433 21.8731L15.3343 21.7236V15.3343H14.0565C13.7435 15.3343 13.4414 15.2194 13.2075 15.0114C12.9736 14.8034 12.8242 14.5168 12.7876 14.206L12.7786 14.0565V6.3893C12.7786 3.56523 14.6954 0 16.6122 0ZM8.94503 0C9.25802 4.12884e-05 9.56011 0.114952 9.794 0.322935C10.0279 0.530919 10.1773 0.81751 10.2139 1.12835L10.2229 1.27786V7.66717C10.2227 8.80046 9.84614 9.90161 9.15226 10.7976C8.45837 11.6937 7.4865 12.3338 6.3893 12.6176V21.7236C6.38894 22.0493 6.26423 22.3626 6.04064 22.5994C5.81706 22.8363 5.51147 22.9788 5.18633 22.9979C4.86119 23.017 4.54103 22.9112 4.29127 22.7021C4.04151 22.4931 3.881 22.1966 3.84253 21.8731L3.83358 21.7236V12.6176C2.77993 12.3452 1.84064 11.7438 1.15233 10.9008C0.464018 10.0578 0.0625771 9.01725 0.00638945 7.93041L0 7.66717V1.27786C0.000361261 0.95216 0.125076 0.638889 0.348662 0.402056C0.572248 0.165222 0.877831 0.0227012 1.20297 0.00361364C1.52811 -0.0154739 1.84827 0.0903123 2.09803 0.299358C2.3478 0.508404 2.50831 0.80493 2.54678 1.12835L2.55572 1.27786V7.66717C2.55573 8.11578 2.67383 8.55648 2.89814 8.94499C3.12245 9.3335 3.44507 9.65612 3.83358 9.88042V1.27786C3.83394 0.95216 3.95866 0.638889 4.18224 0.402056C4.40583 0.165222 4.71141 0.0227012 5.03655 0.00361364C5.3617 -0.0154739 5.68185 0.0903123 5.93162 0.299358C6.18138 0.508404 6.34189 0.80493 6.38036 1.12835L6.3893 1.27786L6.39058 9.88042C6.74719 9.67429 7.04868 9.38503 7.2694 9.03727C7.49012 8.68951 7.62351 8.29355 7.65822 7.88312L7.66717 7.66717V1.27786C7.66717 0.938951 7.8018 0.613922 8.04144 0.374277C8.28109 0.134631 8.60612 0 8.94503 0Z" fill="#438FFE"/>
</svg>
