<svg width="18" height="17" viewBox="0 0 18 17" fill="none" xmlns="http://www.w3.org/2000/svg">
<circle cx="1" cy="1" r="1" fill="#D3CBFF"/>
<circle cx="5" cy="1" r="1" fill="#D3CBFF"/>
<circle cx="9" cy="1" r="1" fill="#D3CBFF"/>
<circle cx="13" cy="1" r="1" fill="#D3CBFF"/>
<circle cx="17" cy="1" r="1" fill="#D3CBFF"/>
<circle cx="1" cy="6" r="1" fill="#D3CBFF"/>
<circle cx="5" cy="6" r="1" fill="#D3CBFF"/>
<circle cx="9" cy="6" r="1" fill="#D3CBFF"/>
<circle cx="13" cy="6" r="1" fill="#D3CBFF"/>
<circle cx="17" cy="6" r="1" fill="#D3CBFF"/>
<circle cx="1" cy="11" r="1" fill="#D3CBFF"/>
<circle cx="5" cy="11" r="1" fill="#D3CBFF"/>
<circle cx="9" cy="11" r="1" fill="#D3CBFF"/>
<circle cx="13" cy="11" r="1" fill="#D3CBFF"/>
<circle cx="17" cy="11" r="1" fill="#D3CBFF"/>
<circle cx="1" cy="16" r="1" fill="#D3CBFF"/>
<circle cx="5" cy="16" r="1" fill="#D3CBFF"/>
<circle cx="9" cy="16" r="1" fill="#D3CBFF"/>
<circle cx="13" cy="16" r="1" fill="#D3CBFF"/>
<circle cx="17" cy="16" r="1" fill="#D3CBFF"/>
</svg>
