<svg width="13" height="14" viewBox="0 0 13 14" fill="none" xmlns="http://www.w3.org/2000/svg">
<path d="M4.66667 5.83333V10.5C4.66667 10.6547 4.72812 10.8031 4.83752 10.9125C4.94692 11.0219 5.09529 11.0833 5.25 11.0833C5.40471 11.0833 5.55308 11.0219 5.66248 10.9125C5.77188 10.8031 5.83333 10.6547 5.83333 10.5V5.83333C5.83333 5.67862 5.77188 5.53025 5.66248 5.42085C5.55308 5.31146 5.40471 5.25 5.25 5.25C5.09529 5.25 4.94692 5.31146 4.83752 5.42085C4.72812 5.53025 4.66667 5.67862 4.66667 5.83333Z" fill="#438FFE"/>
<path d="M7.58333 5.25C7.73804 5.25 7.88642 5.31146 7.99581 5.42085C8.10521 5.53025 8.16667 5.67862 8.16667 5.83333V10.5C8.16667 10.6547 8.10521 10.8031 7.99581 10.9125C7.88642 11.0219 7.73804 11.0833 7.58333 11.0833C7.42862 11.0833 7.28025 11.0219 7.17085 10.9125C7.06146 10.8031 7 10.6547 7 10.5V5.83333C7 5.67862 7.06146 5.53025 7.17085 5.42085C7.28025 5.31146 7.42862 5.25 7.58333 5.25Z" fill="#438FFE"/>
<path d="M8.75 2.33333H12.25C12.4047 2.33333 12.5531 2.39479 12.6625 2.50419C12.7719 2.61358 12.8333 2.76196 12.8333 2.91667C12.8333 3.07138 12.7719 3.21975 12.6625 3.32915C12.5531 3.43854 12.4047 3.5 12.25 3.5H11.6048L10.7275 11.4053C10.6482 12.1188 10.3087 12.778 9.77376 13.2567C9.23885 13.7354 8.54618 14.0001 7.82833 14H5.005C4.28715 14.0001 3.59448 13.7354 3.05957 13.2567C2.52466 12.778 2.18508 12.1188 2.10583 11.4053L1.22733 3.5H0.583333C0.428624 3.5 0.280251 3.43854 0.170854 3.32915C0.0614583 3.21975 0 3.07138 0 2.91667C0 2.76196 0.0614583 2.61358 0.170854 2.50419C0.280251 2.39479 0.428624 2.33333 0.583333 2.33333H4.08333C4.08333 1.71449 4.32917 1.121 4.76675 0.683417C5.20434 0.245833 5.79783 0 6.41667 0C7.0355 0 7.629 0.245833 8.06658 0.683417C8.50417 1.121 8.75 1.71449 8.75 2.33333ZM6.41667 1.16667C6.10725 1.16667 5.8105 1.28958 5.59171 1.50838C5.37292 1.72717 5.25 2.02391 5.25 2.33333H7.58333C7.58333 2.02391 7.46042 1.72717 7.24162 1.50838C7.02283 1.28958 6.72609 1.16667 6.41667 1.16667ZM2.40217 3.5L3.2655 11.277C3.31316 11.705 3.51695 12.1004 3.83789 12.3875C4.15882 12.6747 4.57436 12.8334 5.005 12.8333H7.82833C8.25877 12.8331 8.67403 12.6743 8.99472 12.3871C9.31541 12.1 9.51903 11.7048 9.56667 11.277L10.4323 3.5H2.40333H2.40217Z" fill="#438FFE"/>
</svg>
