<svg width="27" height="30" viewBox="0 0 27 30" fill="none" xmlns="http://www.w3.org/2000/svg">
<path fill-rule="evenodd" clip-rule="evenodd" d="M7.707 30C7.089 30 6.5025 29.952 5.9505 29.8575L5.6235 29.796C2.067 29.0565 0 26.3325 0 22.1865V7.8135C0 7.3125 0.03 6.8325 0.09 6.3735C0.6135 2.346 3.381 0 7.707 0H19.2945C24.0885 0 26.955 2.88 27 7.698V7.8135V22.1865C27 27.072 24.126 30 19.2945 30H7.707ZM7.70702 2.1855C4.02302 2.1855 2.15552 4.08 2.15552 7.8135V22.1865C2.15552 25.92 4.02302 27.8145 7.70702 27.8145H19.281C22.9635 27.8145 24.819 25.92 24.819 22.1865V7.8135C24.819 4.08 22.9635 2.1855 19.281 2.1855H7.70702ZM19.959 21.351C19.959 20.751 19.4805 20.265 18.8895 20.265H8.073C7.482 20.265 7.002 20.751 7.002 21.351C7.002 21.951 7.482 22.437 8.073 22.437H18.8895C19.4805 22.437 19.959 21.951 19.959 21.351ZM18.8895 13.9065C19.302 13.8615 19.7055 14.0595 19.926 14.415C20.1465 14.7735 20.1465 15.2265 19.926 15.585C19.7055 15.9405 19.302 16.1385 18.8895 16.0935H8.07302C7.52402 16.0305 7.10852 15.561 7.10852 15C7.10852 14.439 7.52402 13.968 8.07302 13.9065H18.8895ZM13.1655 8.65649C13.1655 8.09549 12.75 7.62449 12.201 7.56299H8.08651C7.53601 7.62449 7.12051 8.09549 7.12051 8.65649C7.12051 9.21599 7.53601 9.68699 8.08651 9.74849H12.201C12.75 9.68699 13.1655 9.21599 13.1655 8.65649Z" fill="#438FFE"/>
</svg>
