<svg width="29" height="25" viewBox="0 0 29 25" fill="none" xmlns="http://www.w3.org/2000/svg">
<path d="M8.03599 14.2856C8.74639 14.2856 9.4277 14.0034 9.93003 13.5011C10.4324 12.9987 10.7146 12.3174 10.7146 11.607C10.7146 10.8966 10.4324 10.2153 9.93003 9.713C9.4277 9.21067 8.74639 8.92847 8.03599 8.92847C7.32559 8.92847 6.64429 9.21067 6.14196 9.713C5.63963 10.2153 5.35742 10.8966 5.35742 11.607C5.35742 12.3174 5.63963 12.9987 6.14196 13.5011C6.64429 14.0034 7.32559 14.2856 8.03599 14.2856Z" fill="#438FFE"/>
<path d="M25 21.4286C25 22.3758 24.6237 23.2842 23.954 23.954C23.2842 24.6237 22.3758 25 21.4286 25H3.57143C2.62423 25 1.71582 24.6237 1.04605 23.954C0.376275 23.2842 0 22.3758 0 21.4286V7.14286C-4.73291e-07 6.19627 0.375784 5.28841 1.04478 4.61874C1.71378 3.94907 2.62127 3.57238 3.56786 3.57143C3.56786 2.62423 3.94413 1.71582 4.6139 1.04605C5.28368 0.376274 6.19208 0 7.13929 0H24.9964C25.9436 0 26.852 0.376274 27.5218 1.04605C28.1916 1.71582 28.5679 2.62423 28.5679 3.57143V17.8571C28.5679 18.8037 28.1921 19.7116 27.5231 20.3813C26.8541 21.0509 25.9466 21.4276 25 21.4286ZM24.9964 1.78571H7.13929C6.66568 1.78571 6.21148 1.97385 5.87659 2.30874C5.54171 2.64362 5.35357 3.09783 5.35357 3.57143H21.4286C22.3758 3.57143 23.2842 3.9477 23.954 4.61748C24.6237 5.28725 25 6.19566 25 7.14286V19.6429C25.473 19.6419 25.9263 19.4534 26.2604 19.1186C26.5945 18.7838 26.7821 18.3301 26.7821 17.8571V3.57143C26.7821 3.09783 26.594 2.64362 26.2591 2.30874C25.9242 1.97385 25.47 1.78571 24.9964 1.78571ZM3.57143 5.35714C3.09783 5.35714 2.64362 5.54528 2.30874 5.88017C1.97385 6.21505 1.78571 6.66926 1.78571 7.14286V21.4286L6.51071 17.225C6.65667 17.0796 6.84842 16.9891 7.05346 16.9689C7.2585 16.9488 7.46421 17.0001 7.63571 17.1143L12.3857 20.2804L19.0107 13.6554C19.1431 13.5228 19.3139 13.4353 19.4988 13.4052C19.6837 13.375 19.8734 13.4038 20.0411 13.4875L23.2143 16.9643V7.14286C23.2143 6.66926 23.0261 6.21505 22.6913 5.88017C22.3564 5.54528 21.9022 5.35714 21.4286 5.35714H3.57143Z" fill="#438FFE"/>
</svg>
