<svg width="19" height="19" viewBox="0 0 19 19" fill="none" xmlns="http://www.w3.org/2000/svg">
<path d="M6.49619 6.49619H12.5041" stroke="#8C8888" stroke-width="1.2" stroke-linecap="round" stroke-linejoin="round"/>
<path d="M6.49619 9.5H12.5041" stroke="#8C8888" stroke-width="1.2" stroke-linecap="round" stroke-linejoin="round"/>
<path d="M6.49619 12.5038H9.50016" stroke="#8C8888" stroke-width="1.2" stroke-linecap="round" stroke-linejoin="round"/>
<path d="M1.99008 18.3805H12.1929C12.3729 18.3805 12.5511 18.345 12.7174 18.2762C12.8837 18.2073 13.0348 18.1063 13.162 17.9791L17.9791 13.162C18.1063 13.0348 18.2073 12.8837 18.2762 12.7174C18.345 12.5511 18.3805 12.3729 18.3805 12.1929V1.99008C18.3805 1.62659 18.2361 1.27798 17.9791 1.02095C17.722 0.763916 17.3734 0.619518 17.0099 0.619518H1.99008C1.62658 0.619518 1.27798 0.763916 1.02095 1.02095C0.763916 1.27798 0.619518 1.62658 0.619518 1.99008V17.0099C0.619518 17.3734 0.763916 17.722 1.02095 17.9791C1.27798 18.2361 1.62659 18.3805 1.99008 18.3805Z" stroke="#8C8888" stroke-width="1.2" stroke-linecap="round" stroke-linejoin="round"/>
<mask id="path-5-outside-1_195_1566" maskUnits="userSpaceOnUse" x="10.4386" y="10.4381" width="9.29353" height="9.29353" fill="black">
<rect fill="white" x="10.4386" y="10.4381" width="9.29353" height="9.29353"/>
<path d="M17.6928 12.5033H12.5038V17.6927"/>
</mask>
<path d="M17.6928 13.7424C18.3771 13.7424 18.9319 13.1877 18.9319 12.5033C18.9319 11.8189 18.3771 11.2642 17.6928 11.2642V13.7424ZM12.5038 12.5033V11.2642C11.8195 11.2642 11.2647 11.8189 11.2647 12.5033H12.5038ZM11.2647 17.6927C11.2647 18.377 11.8195 18.9318 12.5038 18.9318C13.1882 18.9318 13.7429 18.377 13.7429 17.6927H11.2647ZM17.6928 11.2642H12.5038V13.7424H17.6928V11.2642ZM11.2647 12.5033V17.6927H13.7429V12.5033H11.2647Z" fill="#8C8888" mask="url(#path-5-outside-1_195_1566)"/>
</svg>
