<svg width="67" height="11" viewBox="0 0 67 11" fill="none" xmlns="http://www.w3.org/2000/svg">
<path d="M4.8582 0.470148L3.58488 3.07555L0.705222 3.48693C0.195895 3.56529 0 4.19215 0.3722 4.56435L2.4291 6.58207L1.93936 9.42255C1.861 9.93188 2.40951 10.3237 2.86007 10.0886L5.42629 8.73692L7.97293 10.0886C8.42348 10.3237 8.97199 9.93188 8.89363 9.42255L8.40389 6.58207L10.4608 4.56435C10.833 4.19215 10.6371 3.56529 10.1278 3.48693L7.2677 3.07555L5.9748 0.470148C5.75931 0.0195895 5.09327 0 4.8582 0.470148Z" fill="#438FFE"/>
<path d="M18.8999 0.470148L17.6266 3.07555L14.747 3.48693C14.2376 3.56529 14.0418 4.19215 14.414 4.56435L16.4708 6.58207L15.9811 9.42255C15.9028 9.93188 16.4513 10.3237 16.9018 10.0886L19.468 8.73692L22.0147 10.0886C22.4652 10.3237 23.0137 9.93188 22.9354 9.42255L22.4456 6.58207L24.5025 4.56435C24.8747 4.19215 24.6788 3.56529 24.1695 3.48693L21.3095 3.07555L20.0165 0.470148C19.8011 0.0195895 19.135 0 18.8999 0.470148Z" fill="#438FFE"/>
<path d="M32.9417 0.470148L31.6684 3.07555L28.7887 3.48693C28.2794 3.56529 28.0835 4.19215 28.4557 4.56435L30.5126 6.58207L30.0229 9.42255C29.9445 9.93188 30.493 10.3237 30.9436 10.0886L33.5098 8.73692L36.0564 10.0886C36.507 10.3237 37.0555 9.93188 36.9771 9.42255L36.4874 6.58207L38.5443 4.56435C38.9165 4.19215 38.7206 3.56529 38.2113 3.48693L35.3512 3.07555L34.0583 0.470148C33.8428 0.0195895 33.1768 0 32.9417 0.470148Z" fill="#438FFE"/>
<path d="M46.9835 0.470148L45.7101 3.07555L42.8305 3.48693C42.3212 3.56529 42.1253 4.19215 42.4975 4.56435L44.5544 6.58207L44.0646 9.42255C43.9863 9.93188 44.5348 10.3237 44.9853 10.0886L47.5515 8.73692L50.0982 10.0886C50.5487 10.3237 51.0972 9.93188 51.0189 9.42255L50.5292 6.58207L52.586 4.56435C52.9582 4.19215 52.7624 3.56529 52.253 3.48693L49.393 3.07555L48.1001 0.470148C47.8846 0.0195895 47.2185 0 46.9835 0.470148Z" fill="#438FFE"/>
<path d="M66.2948 3.48693L63.4347 3.07555L62.1418 0.470148C61.9263 0.0195895 61.2603 0 61.0252 0.470148L59.7519 3.07555L56.8722 3.48693C56.3629 3.56529 56.167 4.19215 56.5392 4.56435L58.5961 6.58207L58.1064 9.42255C58.028 9.93188 58.5765 10.3237 59.0271 10.0886L61.5933 8.73692L64.1399 10.0886C64.5905 10.3237 65.139 9.93188 65.0606 9.42255L64.5709 6.58207L66.6278 4.56435C67 4.19215 66.8041 3.56529 66.2948 3.48693ZM63.5522 6.24905L64.0224 8.9524L61.5933 7.67908L59.1446 8.9524L59.6148 6.24905L57.6362 4.32928L60.3592 3.93749L61.5933 1.46921L62.8078 3.93749L65.5308 4.32928L63.5522 6.24905Z" fill="#8C8888"/>
</svg>
