<svg width="11" height="13" viewBox="0 0 11 13" fill="none" xmlns="http://www.w3.org/2000/svg">
<path d="M3.43747 1.37667C3.25514 1.37667 3.08027 1.44911 2.95134 1.57804C2.82241 1.70697 2.74998 1.88183 2.74998 2.06417C2.74998 2.2465 2.82241 2.42137 2.95134 2.5503C3.08027 2.67923 3.25514 2.75166 3.43747 2.75166C3.61981 2.75166 3.79468 2.67923 3.92361 2.5503C4.05254 2.42137 4.12497 2.2465 4.12497 2.06417C4.12497 1.88183 4.05254 1.70697 3.92361 1.57804C3.79468 1.44911 3.61981 1.37667 3.43747 1.37667ZM1.49186 1.37667C1.6339 0.974123 1.89731 0.625541 2.24577 0.378975C2.59423 0.132409 3.0106 0 3.43747 0C3.86435 0 4.28071 0.132409 4.62918 0.378975C4.97764 0.625541 5.24105 0.974123 5.38308 1.37667H10.3124C10.4948 1.37667 10.6696 1.44911 10.7986 1.57804C10.9275 1.70697 10.9999 1.88183 10.9999 2.06417C10.9999 2.2465 10.9275 2.42137 10.7986 2.5503C10.6696 2.67923 10.4948 2.75166 10.3124 2.75166H5.38308C5.24105 3.15421 4.97764 3.5028 4.62918 3.74936C4.28071 3.99593 3.86435 4.12834 3.43747 4.12834C3.0106 4.12834 2.59423 3.99593 2.24577 3.74936C1.89731 3.5028 1.6339 3.15421 1.49186 2.75166H0.687495C0.50516 2.75166 0.330293 2.67923 0.201363 2.5503C0.0724324 2.42137 0 2.2465 0 2.06417C0 1.88183 0.0724324 1.70697 0.201363 1.57804C0.330293 1.44911 0.50516 1.37667 0.687495 1.37667H1.49186ZM7.56244 5.50164C7.38011 5.50164 7.20524 5.57407 7.07631 5.703C6.94738 5.83194 6.87495 6.0068 6.87495 6.18914C6.87495 6.37147 6.94738 6.54634 7.07631 6.67527C7.20524 6.8042 7.38011 6.87663 7.56244 6.87663C7.74478 6.87663 7.91964 6.8042 8.04857 6.67527C8.17751 6.54634 8.24994 6.37147 8.24994 6.18914C8.24994 6.0068 8.17751 5.83194 8.04857 5.703C7.91964 5.57407 7.74478 5.50164 7.56244 5.50164ZM5.61683 5.50164C5.75887 5.09909 6.02227 4.75051 6.37074 4.50394C6.7192 4.25738 7.13557 4.12497 7.56244 4.12497C7.98932 4.12497 8.40568 4.25738 8.75415 4.50394C9.10261 4.75051 9.36602 5.09909 9.50805 5.50164H10.3124C10.4948 5.50164 10.6696 5.57407 10.7986 5.703C10.9275 5.83194 10.9999 6.0068 10.9999 6.18914C10.9999 6.37147 10.9275 6.54634 10.7986 6.67527C10.6696 6.8042 10.4948 6.87663 10.3124 6.87663H9.50805C9.36602 7.27918 9.10261 7.62777 8.75415 7.87433C8.40568 8.1209 7.98932 8.25331 7.56244 8.25331C7.13557 8.25331 6.7192 8.1209 6.37074 7.87433C6.02227 7.62777 5.75887 7.27918 5.61683 6.87663H0.687495C0.50516 6.87663 0.330293 6.8042 0.201363 6.67527C0.0724324 6.54634 0 6.37147 0 6.18914C0 6.0068 0.0724324 5.83194 0.201363 5.703C0.330293 5.57407 0.50516 5.50164 0.687495 5.50164H5.61683ZM3.43747 9.62661C3.25514 9.62661 3.08027 9.69904 2.95134 9.82797C2.82241 9.9569 2.74998 10.1318 2.74998 10.3141C2.74998 10.4964 2.82241 10.6713 2.95134 10.8002C3.08027 10.9292 3.25514 11.0016 3.43747 11.0016C3.61981 11.0016 3.79468 10.9292 3.92361 10.8002C4.05254 10.6713 4.12497 10.4964 4.12497 10.3141C4.12497 10.1318 4.05254 9.9569 3.92361 9.82797C3.79468 9.69904 3.61981 9.62661 3.43747 9.62661ZM1.49186 9.62661C1.6339 9.22406 1.89731 8.87548 2.24577 8.62891C2.59423 8.38234 3.0106 8.24994 3.43747 8.24994C3.86435 8.24994 4.28071 8.38234 4.62918 8.62891C4.97764 8.87548 5.24105 9.22406 5.38308 9.62661H10.3124C10.4948 9.62661 10.6696 9.69904 10.7986 9.82797C10.9275 9.9569 10.9999 10.1318 10.9999 10.3141C10.9999 10.4964 10.9275 10.6713 10.7986 10.8002C10.6696 10.9292 10.4948 11.0016 10.3124 11.0016H5.38308C5.24105 11.4042 4.97764 11.7527 4.62918 11.9993C4.28071 12.2459 3.86435 12.3783 3.43747 12.3783C3.0106 12.3783 2.59423 12.2459 2.24577 11.9993C1.89731 11.7527 1.6339 11.4042 1.49186 11.0016H0.687495C0.50516 11.0016 0.330293 10.9292 0.201363 10.8002C0.0724324 10.6713 0 10.4964 0 10.3141C0 10.1318 0.0724324 9.9569 0.201363 9.82797C0.330293 9.69904 0.50516 9.62661 0.687495 9.62661H1.49186Z" fill="white"/>
</svg>
