<svg width="5" height="9" viewBox="0 0 5 9" fill="none" xmlns="http://www.w3.org/2000/svg">
<path d="M0.617792 8.74791C0.447556 8.74791 0.302032 8.68888 0.181219 8.57081C0.0604064 8.45275 0 8.3086 0 8.13836C0 7.96812 0.0631521 7.81985 0.189456 7.69355L3.5173 4.37394L0.189456 1.05434C0.0631521 0.928035 0 0.779765 0 0.609529C0 0.439293 0.0604064 0.295141 0.181219 0.177075C0.302032 0.0590074 0.447556 -2.58368e-05 0.617792 -2.58368e-05C0.777046 -2.58368e-05 0.919824 0.0576342 1.04613 0.172956L4.80231 3.91266C4.9341 4.03347 5 4.18723 5 4.37394C5 4.54967 4.9341 4.70343 4.80231 4.83523L1.04613 8.57493C0.930807 8.69025 0.788029 8.74791 0.617792 8.74791Z" fill="#2997FF"/>
</svg>
