<svg width="25" height="44" viewBox="0 0 25 44" fill="none" xmlns="http://www.w3.org/2000/svg">
<path d="M11.7708 41.1915L11.7713 41.6188C11.7718 42.0148 11.5241 42.5471 11.2208 42.8018L10.8813 43.0868C10.2661 43.0831 9.78699 43.0741 9.37608 43.0605C9.42758 42.6901 9.63969 42.2596 9.90479 42.037L11.2183 40.9345C11.5217 40.6798 11.7703 40.7955 11.7708 41.1915ZM9.95469 41.3359L11.2289 40.2132C11.526 39.9514 11.7589 39.4134 11.7465 39.0176L11.733 38.5902C11.7205 38.1944 11.4673 38.0848 11.1701 38.3465L9.89589 39.4692C9.59879 39.731 9.36588 40.269 9.37828 40.6648L9.39178 41.0922C9.40428 41.488 9.65759 41.5977 9.95469 41.3359ZM11.7608 35.9794H10.9786L9.90489 36.8806C9.60159 37.1352 9.35388 37.6676 9.35438 38.0636L9.35488 38.4908C9.35538 38.8869 9.60399 39.0025 9.90729 38.7479L11.2208 37.6453C11.5241 37.3906 11.7718 36.8583 11.7713 36.4623L11.7708 36.0351C11.7708 36.0124 11.7624 36.0002 11.7608 35.9794ZM9.95469 36.1795L10.1818 35.9794H9.40108C9.43338 36.3326 9.67099 36.4295 9.95469 36.1795ZM8.93347 35.9794H8.19766L8.39726 36.1469C8.67267 36.3781 8.89307 36.2913 8.93347 35.9794ZM7.07474 37.6122L8.34896 38.7349C8.64617 38.9967 8.89947 38.8871 8.91187 38.4912L8.92527 38.0638C8.93777 37.6679 8.70487 37.1299 8.40776 36.8681L7.39904 35.9794H6.57273C6.57253 35.9833 6.57073 35.9851 6.57063 35.9891L6.55723 36.4166C6.54473 36.8124 6.77763 37.3504 7.07474 37.6122ZM7.08624 38.3335C6.78293 38.0789 6.53433 38.1946 6.53373 38.5906L6.53323 39.0179C6.53273 39.4139 6.78043 39.9462 7.08374 40.2008L8.39726 41.3034C8.70057 41.558 8.94918 41.4423 8.94967 41.0463L8.95027 40.619C8.95077 40.223 8.70307 39.6907 8.39976 39.4361L7.08624 38.3335ZM7.13354 40.9018C6.83643 40.64 6.58313 40.7496 6.57063 41.1455L6.55723 41.5729C6.54473 41.9687 6.77763 42.5067 7.07474 42.7686L7.24054 42.9147C7.85285 42.9716 8.32706 43.0133 8.90627 43.0416C8.86067 42.6743 8.66307 42.2494 8.40776 42.0245L7.13354 40.9018ZM5.57611 40.9344L5.1756 41.2705L5.1883 41.3761C5.2649 41.9369 5.44931 42.2977 5.81011 42.5349C5.99722 42.2623 6.12942 41.9059 6.12902 41.6188L6.12852 41.1915C6.12802 40.7955 5.87941 40.6798 5.57611 40.9344ZM6.10422 39.0176L6.09072 38.5902C6.07822 38.1944 5.82501 38.0848 5.52781 38.3465L4.8914 38.9072L5.1001 40.6419L5.58671 40.2132C5.88381 39.9514 6.11672 39.4134 6.10422 39.0176ZM6.11592 35.9651C5.88461 35.9549 5.65681 35.9328 5.43251 35.8986L4.51119 36.6719C4.63299 36.969 4.70359 37.283 4.73309 37.5902L4.81669 38.2849L5.57871 37.6453C5.88201 37.3906 6.12972 36.8583 6.12922 36.4623L6.12872 36.0351C6.12852 36.0066 6.11852 35.9906 6.11592 35.9651ZM3.74777 35.3989C3.74527 35.435 3.73497 35.4743 3.73607 35.5085L3.74227 35.7055C3.92768 35.847 4.09258 35.9866 4.20538 36.1287C4.22628 36.155 4.23978 36.1848 4.25918 36.2118C4.27748 36.1983 4.29368 36.196 4.31248 36.1795L4.78269 35.7652C4.42449 35.6717 4.07868 35.5499 3.74777 35.3989ZM2.37695 34.5538C2.60705 34.8614 2.95256 35.1295 3.29656 35.3783C3.29086 35.3047 3.27206 35.2263 3.25296 35.1484C2.94436 34.9736 2.65095 34.7756 2.37695 34.5538ZM20.675 35.3952C21.0208 35.1457 21.3686 34.8765 21.6041 34.5682C21.3258 34.7918 21.0288 34.9927 20.7152 35.1679C20.6975 35.2449 20.6802 35.3222 20.675 35.3952ZM19.2248 35.7634L19.6818 36.147C19.7066 36.1678 19.7278 36.1712 19.7517 36.1871C19.7656 36.1682 19.7748 36.1472 19.7895 36.1287C19.8986 35.9911 20.0565 35.856 20.2344 35.7191L20.2347 35.4626C20.2347 35.4464 20.2284 35.4275 20.2276 35.4109C19.9068 35.5558 19.5714 35.6725 19.2248 35.7634ZM17.86 35.9663C17.8595 35.9753 17.8554 35.9798 17.8551 35.9891L17.8417 36.4165C17.8292 36.8123 18.0623 37.3503 18.3594 37.6122L19.173 38.329L19.2618 37.5902C19.291 37.2861 19.3606 36.9755 19.4799 36.6809L18.5884 35.8954C18.3496 35.9326 18.1069 35.9563 17.86 35.9663ZM17.8183 38.5905L17.8177 39.0178C17.8172 39.4138 18.065 39.9461 18.3683 40.2007L18.8947 40.6426L19.0989 38.9446L18.3708 38.3335C18.0675 38.0788 17.8188 38.1945 17.8183 38.5905ZM17.9136 41.1064L17.9001 41.5338C17.8912 41.8149 18.0095 42.1645 18.1833 42.4393C18.5169 42.2132 18.7366 41.8872 18.8065 41.3761L18.8307 41.1749L18.4765 40.8628C18.1794 40.601 17.926 40.7106 17.9136 41.1064ZM16.8607 40.9344L15.5472 42.0369C15.2794 42.2618 15.0654 42.6992 15.0169 43.072C15.6906 43.052 16.2442 43.0099 16.7159 42.9254L16.8632 42.8017C17.1665 42.547 17.4142 42.0147 17.4137 41.6187L17.4131 41.1914C17.4125 40.7955 17.1639 40.6798 16.8607 40.9344ZM15.597 41.3359L16.8712 40.2132C17.1684 39.9514 17.4012 39.4134 17.3888 39.0176L17.3754 38.5902C17.3629 38.1944 17.1096 38.0848 16.8125 38.3465L15.5383 39.4692C15.2412 39.731 15.0083 40.269 15.0207 40.6648L15.0342 41.0922C15.0466 41.488 15.2999 41.5977 15.597 41.3359ZM17.403 35.9794H16.6208L15.5471 36.8806C15.2438 37.1352 14.9961 37.6676 14.9966 38.0636L14.9971 38.4908C14.9976 38.8869 15.2462 39.0025 15.5495 38.7479L16.863 37.6453C17.1663 37.3906 17.414 36.8583 17.4135 36.4623L17.4129 36.0351C17.413 36.0124 17.4047 36.0002 17.403 35.9794ZM15.597 36.1795L15.8241 35.9794H15.0434C15.0756 36.3326 15.3132 36.4295 15.597 36.1795ZM14.5758 35.9794H13.84L14.0396 36.1469C14.3149 36.3781 14.5353 36.2913 14.5758 35.9794ZM12.717 37.6122L13.9913 38.7349C14.2884 38.9967 14.5417 38.8871 14.5542 38.4912L14.5677 38.0638C14.5802 37.6679 14.3472 37.1299 14.0501 36.8681L13.0414 35.9794H12.2149C12.2147 35.9833 12.2129 35.9851 12.2128 35.9891L12.1994 36.4165C12.187 36.8124 12.4199 37.3504 12.717 37.6122ZM12.7285 38.3335C12.4252 38.0789 12.1766 38.1946 12.1761 38.5906L12.1755 39.0179C12.175 39.4139 12.4227 39.9462 12.726 40.2008L14.0396 41.3034C14.3429 41.558 14.5915 41.4423 14.592 41.0463L14.5926 40.619C14.5931 40.223 14.3454 39.6907 14.0421 39.4361L12.7285 38.3335ZM12.7758 40.9018C12.4787 40.64 12.2253 40.7496 12.2129 41.1455L12.1995 41.5729C12.187 41.9687 12.4199 42.5067 12.717 42.7686L13.0826 43.0907C13.6267 43.0912 14.1149 43.0897 14.553 43.0828C14.5186 42.7068 14.315 42.2579 14.0501 42.0245L12.7758 40.9018ZM10.8814 0.00401596C10.2663 0.00771603 9.78709 0.0167162 9.37618 0.0303164C9.42768 0.400624 9.63979 0.831232 9.90489 1.05374L11.2184 2.15636C11.5217 2.41096 11.7703 2.29526 11.7708 1.89925L11.7713 1.47194C11.7718 1.07594 11.5241 0.543626 11.2208 0.289021L10.8814 0.00401596ZM11.1701 4.74421C11.4672 5.00601 11.7205 4.89631 11.733 4.5005L11.7465 4.0731C11.759 3.67729 11.526 3.13928 11.2289 2.87747L9.95469 1.75485C9.65759 1.49304 9.40428 1.60265 9.39188 1.99845L9.37838 2.42586C9.36588 2.82167 9.59889 3.35968 9.89599 3.62149L11.1701 4.74421ZM9.90739 4.3428C9.60409 4.0882 9.35548 4.2039 9.35498 4.59991L9.35448 5.02721C9.35398 5.42322 9.60159 5.95553 9.90499 6.21014L10.9923 7.12285H11.7588C11.7611 7.09815 11.7709 7.08295 11.7709 7.05565L11.7714 6.62834C11.7719 6.23234 11.5242 5.70003 11.2209 5.44542L9.90739 4.3428ZM9.95469 6.91115C9.66749 6.65805 9.42598 6.75855 9.39868 7.12275H10.1949L9.95469 6.91115ZM8.39726 6.94375L8.18396 7.12275H8.93557C8.89967 6.80055 8.67627 6.70965 8.39726 6.94375ZM8.34896 4.3558L7.07474 5.47852C6.77763 5.74033 6.54473 6.27834 6.55723 6.67415L6.57063 7.10155C6.57083 7.11025 6.57463 7.11435 6.57513 7.12275H7.38604L8.40776 6.22254C8.70487 5.96073 8.93777 5.42272 8.92527 5.02691L8.91187 4.59951C8.89947 4.2037 8.64617 4.094 8.34896 4.3558ZM8.39726 1.78745L7.08374 2.88997C6.78043 3.14458 6.53273 3.67689 6.53323 4.07289L6.53373 4.5002C6.53423 4.89621 6.78283 5.01191 7.08624 4.75731L8.39976 3.65469C8.70307 3.40008 8.95077 2.86777 8.95027 2.47176L8.94967 2.04446C8.94918 1.64845 8.70057 1.53285 8.39726 1.78745ZM7.13354 2.18886L8.40776 1.06624C8.66297 0.841332 8.86067 0.416524 8.90627 0.0492167C8.32706 0.0776173 7.85285 0.119218 7.24054 0.176119L7.07474 0.322122C6.77763 0.583927 6.54473 1.12194 6.55723 1.51785L6.57063 1.94525C6.58313 2.34096 6.83643 2.45066 7.13354 2.18886ZM5.1884 1.71455L5.1757 1.82015L5.57611 2.15626C5.87941 2.41086 6.12802 2.29516 6.12852 1.89915L6.12912 1.47194C6.12952 1.18494 5.99732 0.828432 5.81021 0.555826C5.44941 0.793031 5.265 1.15374 5.1884 1.71455ZM6.09072 4.5005L6.10422 4.0731C6.11672 3.67729 5.88372 3.13928 5.58661 2.87747L5.1001 2.44876L4.8915 4.1835L5.52791 4.74421C5.82501 5.00601 6.07832 4.89631 6.09072 4.5005ZM4.81669 4.80571L4.73309 5.50042C4.70359 5.80773 4.63289 6.12164 4.51119 6.41874L5.44411 7.20176C5.66401 7.16876 5.88712 7.14726 6.11382 7.13716C6.11722 7.10795 6.12852 7.08875 6.12862 7.05545L6.12912 6.62815C6.12962 6.23214 5.88191 5.69983 5.57861 5.44522L4.81669 4.80571ZM4.79279 7.33436L4.31248 6.91115C4.29378 6.89465 4.27748 6.89245 4.25918 6.87895C4.23978 6.90595 4.22618 6.93575 4.20538 6.96205C4.09268 7.10425 3.92768 7.24376 3.74227 7.38526L3.73607 7.58226C3.73487 7.61986 3.74587 7.66287 3.74897 7.70277C4.08258 7.55056 4.43139 7.42806 4.79279 7.33436ZM2.34615 8.56958V8.57158C2.62785 8.34058 2.93156 8.13617 3.25056 7.95547C3.27146 7.87297 3.29056 7.79027 3.29656 7.71257C2.93966 7.97047 2.57525 8.24708 2.34615 8.56958ZM21.6417 8.56208C21.4071 8.23608 21.0364 7.95627 20.675 7.69547C20.6805 7.77257 20.6981 7.85427 20.7175 7.93567C21.044 8.11817 21.3537 8.32718 21.6417 8.56208ZM19.7896 6.96205C19.7749 6.94355 19.7657 6.92245 19.7518 6.90355C19.7279 6.91945 19.7066 6.92295 19.6819 6.94375L19.2145 7.33616C19.5643 7.42726 19.9026 7.54456 20.2264 7.69067C20.2276 7.67047 20.2349 7.64777 20.2349 7.62816L20.2346 7.37166C20.0566 7.23476 19.8987 7.09965 19.7896 6.96205ZM17.8417 6.67415L17.8551 7.10155C17.8555 7.11566 17.8615 7.12266 17.8624 7.13596C18.1046 7.14586 18.3428 7.16896 18.5772 7.20496L19.4798 6.40964C19.3605 6.11504 19.2909 5.80443 19.2617 5.50032L19.1728 4.76151L18.3593 5.47842C18.0623 5.74033 17.8293 6.27834 17.8417 6.67415ZM18.3708 4.75731L19.0989 4.1461L18.8947 2.44806L18.3683 2.88997C18.065 3.14458 17.8172 3.67689 17.8177 4.07289L17.8183 4.5002C17.8188 4.89621 18.0675 5.01191 18.3708 4.75731ZM18.4765 2.22796L18.8307 1.91585L18.8065 1.71465C18.7366 1.20344 18.5169 0.877433 18.1833 0.651328C18.0095 0.926034 17.8911 1.27574 17.9 1.55695L17.9136 1.98435C17.9261 2.38006 18.1794 2.48976 18.4765 2.22796ZM16.7159 0.165319C16.2442 0.0808172 15.6906 0.0386164 15.0169 0.018616C15.0654 0.391523 15.2794 0.828832 15.5472 1.05364L16.8607 2.15626C17.164 2.41086 17.4126 2.29516 17.4131 1.89915L17.4137 1.47184C17.4142 1.07584 17.1665 0.543526 16.8632 0.288921L16.7159 0.165319ZM16.8124 4.74421C17.1095 5.00601 17.3628 4.89631 17.3753 4.5005L17.3887 4.0731C17.4012 3.67729 17.1683 3.13928 16.8711 2.87747L15.5969 1.75475C15.2998 1.49294 15.0465 1.60255 15.034 1.99845L15.0205 2.42586C15.008 2.82167 15.241 3.35968 15.5381 3.62149L16.8124 4.74421ZM15.5496 4.3428C15.2463 4.0882 14.9977 4.2039 14.9972 4.59991L14.9967 5.02721C14.9962 5.42322 15.2439 5.95553 15.5472 6.21014L16.6345 7.12285H17.401C17.4033 7.09815 17.4131 7.08295 17.4131 7.05565L17.4137 6.62834C17.4142 6.23234 17.1665 5.70003 16.8632 5.44542L15.5496 4.3428ZM15.597 6.91115C15.3098 6.65805 15.0683 6.75855 15.041 7.12275H15.8372L15.597 6.91115ZM14.0395 6.94375L13.8262 7.12275H14.5778C14.5419 6.80055 14.3185 6.70965 14.0395 6.94375ZM13.9913 4.3558L12.717 5.47852C12.4199 5.74033 12.187 6.27834 12.1995 6.67415L12.2129 7.10155C12.2131 7.11025 12.2169 7.11435 12.2174 7.12275H13.0284L14.0501 6.22254C14.3472 5.96073 14.5801 5.42272 14.5677 5.02691L14.5542 4.59951C14.5417 4.2037 14.2884 4.094 13.9913 4.3558ZM14.0395 1.78745L12.7259 2.88997C12.4226 3.14458 12.1749 3.67689 12.1754 4.07289L12.176 4.5002C12.1765 4.89621 12.4251 5.01191 12.7284 4.75731L14.042 3.65469C14.3453 3.40008 14.593 2.86777 14.5925 2.47176L14.5919 2.04446C14.5915 1.64845 14.3429 1.53285 14.0395 1.78745ZM12.7758 2.18886L14.0501 1.06624C14.315 0.832832 14.5186 0.383923 14.553 0.00801575C14.115 0.00111561 13.6269 -0.000484178 13.0827 0.000115834L12.7169 0.322222C12.4198 0.584027 12.1869 1.12204 12.1994 1.51785L12.2128 1.94525C12.2254 2.34096 12.4787 2.45066 12.7758 2.18886ZM25.0001 18.6204H24.0005V29.5794C24.0005 31.5978 23.064 33.3953 21.6041 34.5682C21.3258 34.7918 21.0288 34.9927 20.7152 35.1679C20.5571 35.2563 20.3936 35.336 20.2276 35.4109C19.9068 35.5558 19.5714 35.6725 19.2248 35.7634C19.0165 35.818 18.8044 35.8619 18.5884 35.8954C18.3496 35.9326 18.1069 35.9563 17.86 35.9663C17.7731 35.9698 17.688 35.9794 17.6003 35.9794H6.57273H6.40013C6.30422 35.9794 6.21082 35.9692 6.11592 35.9651C5.88461 35.9549 5.65681 35.9328 5.43251 35.8986C5.2119 35.865 4.9953 35.8207 4.78269 35.7652C4.42449 35.6717 4.07868 35.5499 3.74777 35.3989C3.57897 35.3218 3.41357 35.2394 3.25296 35.1484C2.94436 34.9736 2.65095 34.7756 2.37695 34.5538C0.927918 33.3804 0 31.5891 0 29.5794V13.5229C0 11.527 0.914218 9.74531 2.34615 8.57158C2.62785 8.34058 2.93156 8.13617 3.25056 7.95547C3.41227 7.86377 3.57887 7.78037 3.74897 7.70277C4.08258 7.55056 4.43139 7.42806 4.79279 7.33436C5.0059 7.27916 5.223 7.23506 5.44411 7.20176C5.66401 7.16876 5.88712 7.14726 6.11382 7.13716C6.20932 7.13296 6.30342 7.12275 6.40013 7.12275H6.57513H17.6003C17.6888 7.12275 17.7748 7.13246 17.8624 7.13596C18.1046 7.14586 18.3428 7.16896 18.5772 7.20496C18.7934 7.23816 19.006 7.28186 19.2145 7.33616C19.5643 7.42726 19.9026 7.54456 20.2264 7.69067C20.3938 7.76617 20.5581 7.84657 20.7175 7.93567C21.044 8.11817 21.3537 8.32718 21.6417 8.56208C23.0806 9.73581 24.0005 11.5213 24.0005 13.5229V13.7641H25.0001V18.6204ZM23.0004 18.6204L23 13.7642L23.0004 13.523C23.0004 11.8027 22.1891 10.2714 20.9322 9.2818C20.6019 9.02179 20.2407 8.80079 19.8551 8.62258C19.3585 8.39318 18.8228 8.23618 18.2591 8.16727C18.0427 8.14077 17.8238 8.12287 17.6004 8.12287H6.40013C6.16442 8.12287 5.93392 8.14327 5.70611 8.17267C5.1485 8.24468 4.61869 8.40208 4.12748 8.63128C3.74867 8.80809 3.39337 9.02599 3.06836 9.2819C1.81134 10.2714 1.00002 11.8027 1.00002 13.5229V29.5793C1.00002 31.2926 1.80464 32.819 3.05296 33.809C3.38017 34.0685 3.73837 34.2887 4.12038 34.4676C4.61099 34.6973 5.1403 34.8553 5.69731 34.9282C5.92792 34.9584 6.16142 34.9793 6.40013 34.9793H17.6003C17.8269 34.9793 18.0488 34.9607 18.2681 34.9335C18.8312 34.8636 19.3663 34.7061 19.8622 34.4761C20.251 34.2957 20.6152 34.0724 20.9475 33.8089C22.1958 32.819 23.0004 31.2926 23.0004 29.5794V18.6204Z" fill="#1D1D1F"/>
</svg>
