<svg width="26" height="38" viewBox="0 0 26 38" fill="none" xmlns="http://www.w3.org/2000/svg">
<path d="M10.9574 27.8948C9.96197 27.8948 9.0005 27.7641 8.07306 27.5027C7.14562 27.2413 6.27367 26.8689 5.45724 26.3854C4.6408 25.902 3.89956 25.3273 3.23352 24.6613C2.56748 23.9952 1.99275 23.254 1.50933 22.4375C1.02592 21.6211 0.653508 20.7492 0.392105 19.8217C0.130702 18.8943 0 17.9328 0 16.9373C0 15.9347 0.130702 14.9714 0.392105 14.0476C0.653508 13.1237 1.02413 12.2536 1.50396 11.4371C1.9838 10.6207 2.55674 9.87944 3.22278 9.2134C3.88882 8.54736 4.63006 7.97263 5.4465 7.48922C6.26293 7.0058 7.13487 6.63339 8.06232 6.37199C8.98976 6.11058 9.95122 5.97988 10.9467 5.97988C11.9493 5.97988 12.9144 6.11058 13.8418 6.37199C14.7693 6.63339 15.6394 7.0058 16.4523 7.48922C17.2651 7.97263 18.0064 8.54736 18.676 9.2134C19.3456 9.87944 19.9221 10.6207 20.4056 11.4371C20.889 12.2536 21.2614 13.1237 21.5228 14.0476C21.7842 14.9714 21.9149 15.9347 21.9149 16.9373C21.9149 17.9328 21.7842 18.8943 21.5228 19.8217C21.2614 20.7492 20.889 21.6211 20.4056 22.4375C19.9221 23.254 19.3474 23.9952 18.6814 24.6613C18.0153 25.3273 17.2741 25.902 16.4577 26.3854C15.6412 26.8689 14.7711 27.2413 13.8472 27.5027C12.9233 27.7641 11.9601 27.8948 10.9574 27.8948ZM10.9574 26.0685C11.9744 26.0685 12.9395 25.9163 13.8526 25.612C14.7657 25.3076 15.6018 24.8761 16.361 24.3175C17.1201 23.7589 17.779 23.1 18.3376 22.3409C18.8962 21.5817 19.3277 20.7456 19.6321 19.8325C19.9365 18.9193 20.0887 17.9543 20.0887 16.9373C20.0887 15.9204 19.9347 14.9553 19.6267 14.0422C19.3188 13.1291 18.8855 12.2929 18.3269 11.5338C17.7683 10.7747 17.1094 10.1158 16.3502 9.55717C15.5911 8.99855 14.755 8.56706 13.8418 8.26268C12.9287 7.95831 11.9637 7.80612 10.9467 7.80612C9.92974 7.80612 8.96649 7.95831 8.05695 8.26268C7.14741 8.56706 6.31306 8.99855 5.55392 9.55717C4.79478 10.1158 4.13769 10.7747 3.58266 11.5338C3.02762 12.2929 2.59792 13.1291 2.29354 14.0422C1.98917 14.9553 1.83698 15.9204 1.83698 16.9373C1.83698 17.9543 1.98917 18.9193 2.29354 19.8325C2.59792 20.7456 3.02762 21.5817 3.58266 22.3409C4.13769 23.1 4.79478 23.7589 5.55392 24.3175C6.31306 24.8761 7.1492 25.3076 8.06232 25.612C8.97544 25.9163 9.94048 26.0685 10.9574 26.0685ZM9.06675 20.8906C8.90919 20.9837 8.75342 21.0249 8.59945 21.0141C8.44547 21.0034 8.31656 20.9479 8.21271 20.8476C8.10887 20.7474 8.05695 20.6185 8.05695 20.4609V13.4245C8.05695 13.2598 8.11066 13.1309 8.21808 13.0378C8.32551 12.9447 8.458 12.8927 8.61556 12.882C8.77312 12.8713 8.92352 12.9089 9.06675 12.9948L14.8248 16.4002C14.9609 16.479 15.0522 16.5882 15.0987 16.7278C15.1453 16.8675 15.1471 17.0072 15.1041 17.1468C15.0611 17.2865 14.968 17.3993 14.8248 17.4852L9.06675 20.8906Z" fill="#1D1D1D"/>
</svg>
