<svg width="29" height="46" viewBox="0 0 29 46" fill="none" xmlns="http://www.w3.org/2000/svg">
<path d="M7.71594 41.2868H18.7166C18.6766 42.0648 18.6342 42.826 18.592 43.5243H7.84017C7.79816 42.8262 7.75595 42.0651 7.71594 41.2868ZM7.912 44.6488C7.94871 45.1866 7.98432 45.6479 8.01763 46H18.4143C18.4477 45.6478 18.4834 45.1863 18.52 44.6488C18.5284 44.5259 18.5368 44.4047 18.5452 44.2746H7.88689C7.89529 44.4048 7.90369 44.5259 7.912 44.6488ZM27.3228 23.1446V24.089C27.5217 24.1522 27.6955 24.2767 27.8194 24.4446C27.9432 24.6126 28.0108 24.8154 28.0123 25.0241V29.5322C28.0108 29.7409 27.9432 29.9438 27.8194 30.1118C27.6955 30.2797 27.5217 30.4042 27.3228 30.4673V31.1851L26.8184 31.2128C26.6982 31.212 26.58 31.2429 26.4756 31.3025C26.3712 31.362 26.2844 31.4481 26.2239 31.552C26.1533 31.6918 26.091 31.8357 26.0373 31.9829V31.9722C25.7374 33.0751 25.2138 34.1045 24.4991 34.9965C24.2084 35.5305 23.8421 36.0197 23.4115 36.449C23.2431 36.6272 23.1322 36.8519 23.0931 37.094C23.0742 37.2165 23.055 37.3541 23.0367 37.4886C22.9877 37.8512 22.9467 38.1976 22.9467 38.1976C22.9391 38.6025 22.7813 38.9901 22.5041 39.2853C22.2269 39.5806 21.8499 39.7623 21.4462 39.7954H21.2392L21.1122 44.0154C20.9984 44.2248 20.9663 44.5139 20.2152 44.5139H19.5434C19.6381 43.2063 19.7298 41.523 19.8124 39.7954C19.8232 39.5666 19.8339 39.3377 19.8445 39.1085C19.8608 38.7558 19.8766 38.4045 19.892 38.0546C19.8967 37.9457 19.9021 37.8373 19.9064 37.729C19.5847 37.8004 19.2479 37.8621 18.8919 37.9122C18.8899 37.9593 18.8877 38.0071 18.8855 38.0546C18.8811 38.1568 18.8767 38.2565 18.8719 38.3606C18.8609 38.6054 18.8494 38.8547 18.8374 39.1085C18.8267 39.3351 18.8157 39.5647 18.8044 39.7954C18.7985 39.9169 18.7924 40.0387 18.7862 40.1607H7.63981C7.63374 40.0386 7.62771 39.9169 7.62171 39.7954C7.6105 39.5653 7.5995 39.3352 7.5888 39.1085C7.57679 38.8552 7.56529 38.6053 7.55428 38.3606C7.54948 38.2562 7.54518 38.1569 7.54048 38.0546L7.53528 37.9346C7.1843 37.8846 6.8461 37.8215 6.52066 37.7455C6.52513 37.8484 6.52966 37.9516 6.53427 38.0549C6.54947 38.4044 6.56524 38.7557 6.58158 39.1088C6.59212 39.3382 6.60282 39.5672 6.61369 39.7957C6.69602 41.5246 6.78755 43.2067 6.88187 44.5142H6.42173C5.6705 44.5142 5.63848 44.2251 5.52475 44.0157L5.39771 39.7957H5.13633C4.73278 39.7625 4.35592 39.5807 4.07879 39.2855C3.80166 38.9903 3.644 38.6027 3.63636 38.1979C3.63636 38.1979 3.48811 36.9514 3.41969 36.7134C3.16026 36.3422 2.85577 36.0046 2.51321 35.7084C2.37886 35.58 2.27983 35.4883 2.27983 35.4883L2.31985 35.5075C1.55816 34.722 0.960948 33.7923 0.563199 32.773C0.165451 31.7537 -0.0248261 30.6653 0.00352078 29.5715V15.6405C-0.0309993 14.4598 0.188661 13.2854 0.647622 12.197C1.10658 11.1086 1.79412 10.1315 2.66365 9.33202C2.91453 9.08508 3.13607 8.81001 3.32386 8.51227C3.39228 8.27429 3.54053 7.0278 3.54053 7.0278C3.55078 6.63498 3.7019 6.25893 3.96633 5.96826C4.23076 5.67759 4.59088 5.49167 4.98098 5.44441C4.99658 3.08457 5.07431 0.0586184 5.39321 0H21.0065C21.3251 0.0585183 21.3888 3.08096 21.3942 5.4405C21.788 5.48406 22.1525 5.66892 22.4204 5.9608C22.6882 6.25268 22.8411 6.63178 22.8507 7.0278C22.8507 7.0278 22.8918 7.37421 22.9407 7.73662C22.9591 7.87166 22.9783 8.00891 22.997 8.13125C23.0362 8.37334 23.1472 8.59808 23.3156 8.77635C23.7072 9.17183 24.0696 9.59521 24.4 10.0431L24.38 10.0309C25.1552 10.9186 25.7221 11.9683 26.0392 13.1034C26.0919 13.2485 26.1535 13.3903 26.2234 13.5279C26.2839 13.6318 26.3707 13.7179 26.4751 13.7775C26.5795 13.837 26.6977 13.868 26.8179 13.8671L27.3223 13.8949V15.5649C27.5212 15.6279 27.6951 15.7523 27.8191 15.9202C27.943 16.0881 28.0107 16.291 28.0123 16.4997V20.5573C28.0108 20.766 27.9432 20.9689 27.8194 21.1368C27.6955 21.3048 27.5217 21.4293 27.3228 21.4924V23.1446ZM5.34519 38.0419H5.30698C5.23763 38.0419 5.16897 38.0556 5.1049 38.0821C5.04083 38.1086 4.98262 38.1475 4.93358 38.1966C4.88455 38.2456 4.84565 38.3038 4.81911 38.3679C4.79258 38.432 4.77892 38.5006 4.77892 38.57C4.77892 38.6393 4.79258 38.708 4.81911 38.7721C4.84565 38.8361 4.88455 38.8943 4.93358 38.9434C4.98262 38.9924 5.04083 39.0313 5.1049 39.0578C5.16897 39.0844 5.23763 39.098 5.30698 39.098H5.377L5.34519 38.0419ZM24.8743 15.582C24.8743 11.2989 21.8164 8.53147 17.0838 8.53147H9.29733C4.49393 8.53147 1.50999 11.233 1.50999 15.582V29.541C1.50999 33.9395 4.51453 36.5656 9.54721 36.5656C9.70226 36.5656 9.86011 36.5631 10.0196 36.5581L10.0477 36.5572H10.0756L15.7774 36.5914C17.7352 36.7302 19.6968 36.3786 21.4846 35.5685C22.5261 34.9464 23.3868 34.0629 23.9815 33.0056C24.5762 31.9482 24.8843 30.7538 24.875 29.5408L24.8743 15.582ZM21.3932 6.14552C21.3922 6.53125 21.3901 6.85945 21.3878 7.11433C21.4833 7.07466 21.565 7.00772 21.6226 6.92188C21.6803 6.83604 21.7113 6.73511 21.7119 6.63172C21.7125 6.52832 21.6825 6.42705 21.6259 6.34057C21.5692 6.2541 21.4883 6.18625 21.3932 6.14552ZM4.69319 6.62808C4.69432 6.72347 4.72148 6.81675 4.77174 6.89784C4.822 6.97893 4.89345 7.04476 4.97838 7.08822C4.97728 6.84214 4.97678 6.53164 4.97728 6.16893C4.8929 6.21251 4.82196 6.2782 4.77204 6.35899C4.72212 6.43978 4.69441 6.53312 4.69319 6.62808ZM21.7955 38.5695C21.7944 38.4343 21.7415 38.3048 21.6476 38.2076C21.5538 38.1103 21.4263 38.0527 21.2913 38.0467L21.2598 39.097H21.2655C21.4056 39.0969 21.5399 39.0413 21.6392 38.9425C21.7385 38.8437 21.7947 38.7096 21.7955 38.5695Z" fill="#1D1D1F"/>
</svg>
