<svg width="20" height="20" viewBox="0 0 20 20" fill="none" xmlns="http://www.w3.org/2000/svg">
<g opacity="0.1">
<path fill-rule="evenodd" clip-rule="evenodd" d="M6.10866 1.73947H13.8912C16.7253 1.73947 18.3253 3.41686 18.3337 6.37425V14.496C18.3337 17.4525 16.7253 19.1308 13.8912 19.1308H6.10866C3.27449 19.1308 1.66699 17.4525 1.66699 14.496V6.37425C1.66699 3.41686 3.27449 1.73947 6.10866 1.73947ZM10.0412 15.5308C10.4004 15.5308 10.6996 15.2525 10.7329 14.8786V6.01772C10.7662 5.74816 10.6421 5.47772 10.4171 5.33077C10.1829 5.18294 9.89958 5.18294 9.67541 5.33077C9.44958 5.47772 9.32541 5.74816 9.34958 6.01772V14.8786C9.39208 15.2525 9.69124 15.5308 10.0412 15.5308ZM13.8753 15.5309C14.2253 15.5309 14.5245 15.2526 14.567 14.8787V12.0265C14.5912 11.7474 14.467 11.4874 14.2412 11.3396C14.017 11.1917 13.7337 11.1917 13.5003 11.3396C13.2745 11.4874 13.1503 11.7474 13.1837 12.0265V14.8787C13.217 15.2526 13.5162 15.5309 13.8753 15.5309ZM6.84949 14.8786C6.81615 15.2525 6.51699 15.5307 6.15782 15.5307C5.79949 15.5307 5.49949 15.2525 5.46699 14.8786V8.86986C5.44199 8.59943 5.56615 8.33073 5.79199 8.18291C6.01615 8.03508 6.30032 8.03508 6.52532 8.18291C6.74949 8.33073 6.87532 8.59943 6.84949 8.86986V14.8786Z" fill="#292929"/>
</g>
</svg>
