<svg width="34" height="34" viewBox="0 0 34 34" fill="none" xmlns="http://www.w3.org/2000/svg">
<g opacity="0.6">
<path d="M21.9584 12.75C21.5668 12.75 21.25 13.0668 21.25 13.4584V19.125C21.25 19.5165 21.5668 19.8334 21.9584 19.8334C22.3499 19.8334 22.6667 19.5165 22.6667 19.125V13.4584C22.6666 13.0668 22.3499 12.75 21.9584 12.75Z" fill="#292929"/>
<path d="M11.1258 12.9575C10.8491 12.6808 10.4009 12.6808 10.1242 12.9575L7.29087 15.7909C7.01416 16.0676 7.01416 16.5158 7.29087 16.7925C7.4292 16.9308 7.61049 17 7.79171 17C7.97293 17 8.15415 16.9308 8.29254 16.7925L11.1259 13.9591C11.4025 13.6825 11.4025 13.2342 11.1258 12.9575Z" fill="#292929"/>
<path d="M11.5409 15.7909L10.1242 17.2075C9.84753 17.4842 9.84753 17.9325 10.1242 18.2091C10.2626 18.3475 10.4439 18.4167 10.6251 18.4167C10.8063 18.4167 10.9875 18.3475 11.1259 18.2091L12.5426 16.7925C12.8193 16.5158 12.8193 16.0675 12.5426 15.7909C12.2658 15.5142 11.8175 15.5142 11.5409 15.7909Z" fill="#292929"/>
<path d="M31.1666 4.25H2.83336C1.27068 4.25 0 5.52068 0 7.08336V26.9167C0 28.4793 1.27068 29.75 2.83336 29.75H31.1667C32.7293 29.75 34 28.4793 34 26.9166V7.08336C34 5.52068 32.7293 4.25 31.1666 4.25ZM25.5 24.7916C25.5 25.1832 25.1832 25.5 24.7916 25.5H4.95836C4.56682 25.5 4.25 25.1832 4.25 24.7916V9.20836C4.25 8.81682 4.56682 8.5 4.95836 8.5H24.7917C25.1832 8.5 25.5001 8.81682 25.5001 9.20836V24.7916H25.5ZM30.4584 24.0834H29.0417C28.6502 24.0834 28.3334 23.7665 28.3334 23.375C28.3334 22.9835 28.6502 22.6666 29.0417 22.6666H30.4584C30.8499 22.6666 31.1667 22.9835 31.1667 23.375C31.1666 23.7665 30.8499 24.0834 30.4584 24.0834ZM29.75 21.25C28.9691 21.25 28.3334 20.6143 28.3334 19.8334C28.3334 19.0524 28.9691 18.4167 29.75 18.4167C30.5309 18.4167 31.1666 19.0524 31.1666 19.8334C31.1666 20.6143 30.5309 21.25 29.75 21.25ZM29.75 17C28.9691 17 28.3334 16.3643 28.3334 15.5834C28.3334 14.8024 28.9691 14.1667 29.75 14.1667C30.5309 14.1667 31.1666 14.8024 31.1666 15.5834C31.1666 16.3643 30.5309 17 29.75 17ZM29.75 12.75C28.9691 12.75 28.3334 12.1143 28.3334 11.3334C28.3334 10.5524 28.9691 9.91671 29.75 9.91671C30.5309 9.91671 31.1666 10.5524 31.1666 11.3334C31.1666 12.1143 30.5309 12.75 29.75 12.75Z" fill="#292929"/>
</g>
</svg>
