<svg width="20" height="20" viewBox="0 0 20 20" fill="none" xmlns="http://www.w3.org/2000/svg">
<g opacity="0.1">
<path d="M7.61236 18.0639V15.405C7.61236 14.7263 8.14352 14.176 8.79874 14.176H11.1939C11.5085 14.176 11.8103 14.3055 12.0328 14.536C12.2553 14.7665 12.3803 15.0791 12.3803 15.405V18.0639C12.3783 18.3461 12.4851 18.6174 12.677 18.8177C12.8689 19.0179 13.1301 19.1306 13.4025 19.1306H15.0366C15.7997 19.1326 16.5323 18.82 17.0727 18.2617C17.613 17.7034 17.9167 16.9453 17.9167 16.1548V8.58001C17.9167 7.9414 17.6434 7.33564 17.1706 6.92593L11.6117 2.32697C10.6448 1.52062 9.2593 1.54665 8.3212 2.3888L2.88922 6.92593C2.39399 7.32357 2.098 7.93112 2.08337 8.58001V16.147C2.08337 17.7948 3.37286 19.1306 4.96352 19.1306H6.56028C7.12606 19.1306 7.58587 18.6577 7.58997 18.0716L7.61236 18.0639Z" fill="#292929"/>
</g>
</svg>
