<svg width="14" height="14" viewBox="0 0 14 14" fill="none" xmlns="http://www.w3.org/2000/svg">
<path fill-rule="evenodd" clip-rule="evenodd" d="M2.04166 6.01868C2.04166 3.33543 4.28392 1.16666 6.99617 1.16666C9.71606 1.16666 11.9583 3.33543 11.9583 6.01868C11.9583 7.37081 11.4666 8.62611 10.6572 9.69008C9.76429 10.8637 8.66375 11.8863 7.42497 12.6889C7.14146 12.8744 6.88558 12.8884 6.57442 12.6889C5.32859 11.8863 4.22804 10.8637 3.34278 9.69008C2.53281 8.62611 2.04166 7.37081 2.04166 6.01868ZM5.36325 6.16975C5.36325 7.06864 6.09675 7.77562 6.99612 7.77562C7.89609 7.77562 8.63665 7.06864 8.63665 6.16975C8.63665 5.27786 7.89609 4.53647 6.99612 4.53647C6.09675 4.53647 5.36325 5.27786 5.36325 6.16975Z" fill="#FF7B7B"/>
</svg>
