<svg width="46" height="18" viewBox="0 0 46 18" fill="none" xmlns="http://www.w3.org/2000/svg">
<path d="M9.63616 2.80005C10.2855 2.01746 10.6074 1.0143 10.5348 0C9.53891 0.0962324 8.61961 0.576393 7.97165 1.33875C7.64884 1.70384 7.40144 2.12918 7.24371 2.59028C7.08598 3.05139 7.02103 3.53914 7.0526 4.02545C7.54869 4.03502 8.04023 3.92932 8.48854 3.71668C8.93685 3.50405 9.32969 3.19027 9.63616 2.80005ZM10.4735 4.21028C9.04388 4.12757 7.8389 5.02722 7.15472 5.02722C6.47053 5.02722 5.42894 4.25521 4.30565 4.27564C3.57013 4.29626 2.8529 4.50961 2.22569 4.89436C1.59848 5.27911 1.08327 5.82177 0.73156 6.46809C-0.800194 9.12313 0.323092 13.0781 1.814 15.2399C2.53903 16.2672 3.40702 17.4916 4.56095 17.4518C5.71487 17.412 6.07228 16.737 7.38959 16.737C8.70689 16.737 9.09494 17.4518 10.2386 17.4263C11.3824 17.4007 12.1789 16.3969 12.8937 15.2818C13.4088 14.5198 13.8112 13.6875 14.0885 12.8106C13.4016 12.5068 12.8173 12.0108 12.406 11.3825C11.9947 10.7541 11.774 10.0202 11.7704 9.26916C11.7789 8.60286 11.9544 7.94933 12.2809 7.36844C12.6073 6.78754 13.0744 6.29785 13.6391 5.94423C13.2802 5.43119 12.808 5.00773 12.259 4.70667C11.71 4.40562 11.0991 4.23506 10.4735 4.20824M19.5926 2.14956V5.065H21.9208V6.98991H19.5926V13.8879C19.5926 14.9172 20.0521 15.4421 21.0733 15.4421C21.3533 15.4369 21.6328 15.4164 21.9106 15.3809V17.3211C21.4549 17.3951 20.9937 17.4292 20.532 17.4232C18.1221 17.4232 17.1928 16.4868 17.1928 14.1391V7.03586H15.3649V5.10687H17.1418V2.1516L19.5926 2.14956ZM30.0595 17.317H27.5066L23.2177 5.10687H25.7604L28.7729 14.9183H28.8341L31.8466 5.10687H34.3383L30.0595 17.317ZM41.272 17.317H39.0663V12.3133H34.328V10.1106H39.0561V5.10687H41.2618V10.1106H46V12.3143H41.272V17.317Z" fill="#1D1D1F"/>
</svg>
