<svg width="8" height="17" viewBox="0 0 8 17" fill="none" xmlns="http://www.w3.org/2000/svg">
<g clip-path="url(#clip0_1_3505)">
<path d="M0.621843 12.9189C0.450491 12.9189 0.304012 12.8595 0.182407 12.7407C0.0608024 12.6218 0 12.4767 0 12.3054C0 12.134 0.0635662 11.9848 0.190698 11.8577L3.54036 8.5163L0.190698 5.17493C0.0635662 5.0478 0 4.89855 0 4.7272C0 4.55585 0.0608024 4.41075 0.182407 4.29191C0.304012 4.17307 0.450491 4.11365 0.621843 4.11365C0.78214 4.11365 0.925855 4.17169 1.05299 4.28777L4.83379 8.05199C4.96645 8.17359 5.03278 8.32836 5.03278 8.5163C5.03278 8.69318 4.96645 8.84795 4.83379 8.98061L1.05299 12.7448C0.93691 12.8609 0.793195 12.9189 0.621843 12.9189Z" fill="white"/>
</g>
<defs>
<clipPath id="clip0_1_3505">
<rect width="7.13" height="17" fill="white" transform="matrix(1 0 0 -1 0 17)"/>
</clipPath>
</defs>
</svg>
