<svg width="37" height="45" viewBox="0 0 37 45" fill="none" xmlns="http://www.w3.org/2000/svg">
<path d="M14.4021 44.4832C14.2651 44.3225 14.1406 44.1516 14.0297 43.9719H4.32199C4.2407 43.9719 3.93793 43.9719 3.85163 43.9719C3.39723 43.9896 2.94239 43.9509 2.49751 43.8567C2.15472 43.7744 1.84268 43.5957 1.5983 43.3416C1.35511 43.081 1.18989 42.7573 1.12139 42.4075C1.04218 41.9477 1.011 41.4808 1.02834 41.0146V9.504C1.02834 9.40523 1.02834 9.18436 1.02834 9.08282C1.00727 8.59242 1.04521 8.10126 1.14133 7.6199C1.22666 7.2509 1.42407 6.91733 1.70648 6.66497C1.85234 6.53612 2.01808 6.43174 2.19729 6.35586C2.37494 6.28201 2.56095 6.23019 2.75119 6.20156C2.99207 6.16544 3.23516 6.14596 3.47872 6.14328C3.64028 6.13939 3.82832 6.13878 4.00839 6.13878H5.32018C5.37065 6.13648 5.42123 6.13908 5.47121 6.14655C5.52094 6.15286 5.56724 6.17526 5.60306 6.21033C5.63887 6.24541 5.66223 6.29124 5.66958 6.34083C5.68093 6.39451 5.6798 6.71262 5.68144 6.76006C5.68151 6.87372 5.69022 6.98721 5.70751 7.09954C5.72657 7.21048 5.76462 7.31729 5.81999 7.41529C5.90889 7.57051 6.03713 7.69956 6.19178 7.78944C6.31233 7.85783 6.44541 7.90127 6.5831 7.91715C6.72188 7.93089 6.86142 7.93533 7.0008 7.93044H12.5476C12.8043 7.95749 13.0636 7.91537 13.2986 7.80845V5.11605H4.3225H4.03068C3.83548 5.11605 3.62985 5.11676 3.45387 5.12106C3.16379 5.12527 2.87433 5.14918 2.58749 5.19264C2.31572 5.23457 2.05009 5.3095 1.79646 5.41575C1.51599 5.53449 1.2566 5.69785 1.02834 5.89951C0.593306 6.28792 0.287042 6.79975 0.150406 7.36672C0.0307204 7.93504 -0.017847 8.51603 0.0058211 9.09632V9.504V41.0146C-0.0128416 41.5548 0.0264086 42.0955 0.1229 42.6273C0.231358 43.1593 0.485704 43.6507 0.857481 44.0464C1.23333 44.4377 1.71216 44.7147 2.2387 44.8456C2.76645 44.9626 3.30686 45.0127 3.84713 44.9944C3.94192 44.9944 4.22424 44.995 4.3225 44.9944H14.9142C14.7729 44.8792 14.6394 44.7549 14.5144 44.6221C14.4738 44.5783 14.4409 44.5285 14.4021 44.4832ZM6.85509 7.19821C6.77874 7.20375 6.70234 7.18801 6.6344 7.15273C6.56646 7.11746 6.50962 7.06404 6.47021 6.99841C6.43674 6.93682 6.41921 6.86784 6.41921 6.79774C6.41921 6.72765 6.43674 6.65866 6.47021 6.59707C6.50964 6.53152 6.56648 6.47819 6.63441 6.44301C6.70234 6.40782 6.77869 6.39217 6.85499 6.39778C6.95469 6.40708 7.04734 6.45327 7.11478 6.5273C7.18222 6.60132 7.2196 6.69786 7.2196 6.798C7.2196 6.89814 7.18222 6.99467 7.11478 7.0687C7.04734 7.14272 6.9548 7.18891 6.85509 7.19821ZM8.12097 5.50082H11.2775C11.3112 5.50093 11.3436 5.51434 11.3675 5.53813C11.3914 5.56193 11.4049 5.59419 11.4052 5.62792V5.64776C11.4052 5.68173 11.3917 5.71431 11.3677 5.73833C11.3436 5.76235 11.3111 5.77586 11.2771 5.77588H8.12097C8.08701 5.77586 8.05445 5.76235 8.03044 5.73832C8.00644 5.7143 7.99295 5.68172 7.99295 5.64776V5.62843C7.99325 5.59468 8.00687 5.56138 8.03084 5.53761C8.05482 5.51385 8.08721 5.50082 8.12097 5.50082ZM36.8166 4.49395C36.8374 3.88439 36.7941 3.27434 36.6873 2.67386C36.5686 2.07613 36.2879 1.52251 35.8759 1.0735C35.4633 0.63359 34.9336 0.320722 34.3492 0.171741C33.7663 0.0398502 33.1688 -0.0164761 32.5715 0.00414965C32.4585 0.00367247 32.3448 0.00343388 32.2303 0.00343388H19.0922H18.7704C18.5544 0.00343388 18.3269 0.00425188 18.1322 0.00915999C17.8115 0.0136492 17.4915 0.0404699 17.1745 0.0894278C16.8738 0.136792 16.5801 0.221321 16.3002 0.341071C15.9895 0.475796 15.7029 0.660295 15.4515 0.887303C14.9689 1.32887 14.6307 1.9058 14.4813 2.54267C14.3488 3.18417 14.2951 3.83943 14.3211 4.49395V6.13878V40.5042C14.3004 41.1136 14.3437 41.7234 14.4504 42.3237C14.5691 42.9217 14.85 43.4755 15.2623 43.9247C15.2784 43.9419 15.2969 43.9554 15.3134 43.9718C15.5015 44.1663 15.7144 44.3351 15.9465 44.474C16.2099 44.6297 16.4934 44.7483 16.7892 44.8264C16.8844 44.8518 16.9824 44.8544 17.0785 44.8726C17.5698 44.9585 18.0681 44.9993 18.5669 44.9944C18.7399 44.9951 18.9176 44.9951 19.0922 44.9944H32.4238C33.0329 45.0175 33.6427 44.9701 34.241 44.8532C34.842 44.7202 35.3918 44.4166 35.8244 43.9788C36.2556 43.5304 36.5518 42.9697 36.679 42.3607C36.7931 41.7489 36.8392 41.1263 36.8166 40.5042V4.95398C36.8166 4.80009 36.8166 4.64497 36.8166 4.49395ZM23.8727 0.526557C23.8727 0.491302 23.8867 0.457491 23.9117 0.432563C23.9366 0.407634 23.9704 0.393629 24.0057 0.393629H27.1332C27.1684 0.393629 27.2022 0.407634 27.2271 0.432563C27.2521 0.457491 27.2661 0.491302 27.2661 0.526557V0.547007C27.2661 0.582262 27.2521 0.616072 27.2271 0.641001C27.2022 0.66593 27.1684 0.679935 27.1332 0.679935H24.0052C23.9699 0.679935 23.9361 0.66593 23.9112 0.641001C23.8862 0.616072 23.8722 0.582262 23.8722 0.547007L23.8727 0.526557ZM22.2659 1.37832C22.3072 1.30976 22.3667 1.25399 22.4377 1.21721C22.5088 1.18042 22.5886 1.16405 22.6684 1.16993C22.7727 1.17959 22.8697 1.22786 22.9403 1.30529C23.0109 1.38272 23.05 1.48372 23.05 1.5885C23.05 1.69328 23.0109 1.79428 22.9403 1.87171C22.8697 1.94914 22.7727 1.99741 22.6684 2.00707C22.5886 2.01286 22.5087 1.9964 22.4376 1.95952C22.3666 1.92264 22.3072 1.86679 22.2659 1.79817C22.2309 1.73367 22.2125 1.66142 22.2126 1.58801C22.2126 1.5146 22.2308 1.44278 22.2659 1.37832ZM35.7941 4.87729V18.8949V40.5241C35.8145 41.0636 35.7768 41.6037 35.6816 42.1352C35.5967 42.5596 35.3926 42.951 35.0933 43.2637C34.7963 43.5635 34.4183 43.7701 34.0056 43.8581C33.4843 43.955 32.9537 43.9932 32.4238 43.9719H19.0909C18.9463 43.9719 18.7172 43.9719 18.5712 43.9719C18.3207 43.9708 18.0968 43.9645 17.8788 43.9525C17.6003 43.9429 17.3234 43.9049 17.0526 43.8389C17.038 43.8351 17.0268 43.8265 17.0124 43.8224C16.63 43.7202 16.2833 43.5144 16.0104 43.2277C15.7237 42.9135 15.5298 42.526 15.4501 42.1083C15.3599 41.5786 15.3242 41.0412 15.3437 40.5042V6.13857C15.3437 5.61289 15.3437 5.00357 15.3437 4.4784C15.3198 3.91288 15.3633 3.34652 15.473 2.79124C15.574 2.35134 15.8054 1.95217 16.137 1.64601C16.3063 1.49337 16.4993 1.36932 16.7084 1.27872C16.9114 1.19253 17.1244 1.13194 17.3424 1.09835C17.6124 1.05694 17.885 1.03463 18.1582 1.03158C18.345 1.02688 18.5634 1.02616 18.7707 1.02616H18.94H19.0924H21.0871C21.1434 1.02362 21.1998 1.02653 21.2556 1.03485C21.3111 1.04187 21.3627 1.06682 21.4027 1.10592C21.4427 1.14502 21.4688 1.19611 21.4771 1.25142C21.4866 1.30707 21.491 1.36348 21.4903 1.41994C21.4903 1.5466 21.5 1.67308 21.5193 1.79827C21.5407 1.92211 21.5834 2.04132 21.6454 2.15063C21.7445 2.32385 21.8876 2.46786 22.0602 2.56813C22.1948 2.64444 22.3433 2.69291 22.4969 2.71067C22.6518 2.72602 22.8075 2.73101 22.9631 2.72559H28.1751C28.3307 2.73101 28.4865 2.72602 28.6414 2.71067C28.795 2.6929 28.9435 2.64442 29.0781 2.56813C29.2506 2.46786 29.3936 2.32389 29.4927 2.15073C29.5547 2.04142 29.5973 1.92221 29.6187 1.79837C29.638 1.67318 29.6477 1.5467 29.6478 1.42004C29.647 1.36358 29.6514 1.30716 29.661 1.25153C29.6693 1.19623 29.6954 1.14515 29.7353 1.10605C29.7753 1.06695 29.8269 1.04199 29.8824 1.03496C29.9382 1.02653 29.9947 1.02352 30.051 1.02596H32.2303H32.5665C33.0763 1.00595 33.5866 1.05061 34.0852 1.15889C34.484 1.25916 34.8458 1.47123 35.1282 1.77015C35.4147 2.08432 35.6086 2.47179 35.6882 2.88951C35.7785 3.41957 35.8142 3.95752 35.7945 4.49487C35.7941 4.56389 35.7941 4.81338 35.7941 4.87729Z" fill="#1D1D1F"/>
</svg>
