<svg width="80" height="29" viewBox="0 0 80 29" fill="none" xmlns="http://www.w3.org/2000/svg">
<path d="M80 27.2169V26.6635H75.4723V1.76112C75.4668 1.29584 75.2795 0.851178 74.9504 0.522156C74.6214 0.193133 74.1768 0.00585372 73.7115 0.000342913H35.6787C35.4485 -0.00431054 35.2199 0.0384413 35.0069 0.125942C34.7939 0.213442 34.6012 0.343821 34.4408 0.508968C34.2804 0.674115 34.1556 0.870498 34.0743 1.08591C33.9931 1.30132 33.9569 1.53116 33.9683 1.76112V26.6635H29.4406V27.2169C29.4362 27.4681 29.5272 27.7115 29.6952 27.8983C29.8633 28.085 30.0959 28.201 30.3461 28.2231H32.459L32.9621 28.6758H35.9806L36.4837 28.2231H72.9569L73.4096 28.6758H76.4281L76.9815 28.2231H78.9435C79.2002 28.2288 79.45 28.1395 79.645 27.9724C79.84 27.8053 79.9664 27.5721 80 27.3175V27.2169ZM73.9127 26.6635H35.4775V1.96396C35.4775 1.66211 35.5781 1.50958 35.9806 1.50958H52.0791C52.0968 1.77058 52.2085 2.01633 52.3935 2.20131C52.5785 2.38629 52.8243 2.498 53.0853 2.51574H56.1037C56.238 2.52384 56.3724 2.50336 56.4982 2.45566C56.6239 2.40797 56.7381 2.33413 56.8332 2.23903C56.9283 2.14394 57.0021 2.02974 57.0498 1.904C57.0975 1.77826 57.118 1.64382 57.1099 1.50958L73.4096 1.46088C73.8121 1.46088 73.9127 1.5615 73.9127 1.96396V26.6635ZM29.0517 28.6758H12.577C12.577 28.6758 7.44556 28.6255 4.82955 28.4243C3.20005 28.3111 1.6175 27.8295 0.201231 27.0157C-1.49929e-08 26.8688 0 26.7641 0 26.6635H5.03079V2.01598C5.03079 1.81747 5.06993 1.62092 5.14597 1.43756C5.22202 1.2542 5.33348 1.08763 5.47397 0.947398C5.61446 0.807161 5.78122 0.696003 5.96472 0.620287C6.14821 0.54457 6.34484 0.505782 6.54334 0.506139L33.2137 0.503422C33.0438 0.90076 32.9581 1.32901 32.9621 1.76112V2.51574H7.05356L7.0435 26.6635H28.4344V27.2169C28.4356 27.4888 28.4908 27.7578 28.5968 28.0083C28.7027 28.2587 28.8574 28.4856 29.0517 28.6758Z" fill="#1D1D1F"/>
</svg>
