<svg width="8" height="21" viewBox="0 0 8 21" fill="none" xmlns="http://www.w3.org/2000/svg">
<g clip-path="url(#clip0_1_834)">
<path d="M0.615698 14.8755C0.446039 14.8755 0.301008 14.8167 0.180605 14.699C0.0602016 14.5814 0 14.4377 0 14.2681C0 14.0984 0.062938 13.9506 0.188814 13.8248L3.50538 10.5164L0.188814 7.20805C0.062938 7.08218 0 6.93441 0 6.76475C0 6.59509 0.0602016 6.45143 0.180605 6.33376C0.301008 6.21609 0.446039 6.15726 0.615698 6.15726C0.774412 6.15726 0.916706 6.21473 1.04258 6.32966L4.78603 10.0567C4.91738 10.1771 4.98305 10.3303 4.98305 10.5164C4.98305 10.6915 4.91738 10.8448 4.78603 10.9761L1.04258 14.7032C0.927652 14.8181 0.785357 14.8755 0.615698 14.8755Z" fill="#2997FF"/>
</g>
<defs>
<clipPath id="clip0_1_834">
<rect width="7.13" height="21" fill="white" transform="matrix(1 0 0 -1 0 21)"/>
</clipPath>
</defs>
</svg>
