<svg width="36" height="48" viewBox="0 0 36 48" fill="none" xmlns="http://www.w3.org/2000/svg">
<path d="M13.3427 46.0017H4.48487H4.15697C3.71814 46.0126 3.27923 45.9834 2.84568 45.9147C2.61992 45.8729 2.40112 45.7997 2.19569 45.6972C1.81183 45.5028 1.50004 45.191 1.30569 44.8072C1.20308 44.6018 1.12987 44.383 1.08819 44.1572C1.04728 43.9366 1.02261 43.7133 1.01439 43.4891C1.00199 43.2356 1.00099 42.9613 1.00049 42.7001V8.22104C1.00049 7.96004 1.00199 7.68564 1.01439 7.43105C1.02268 7.20756 1.04724 6.98497 1.08789 6.76505C1.12969 6.53906 1.20301 6.32006 1.30569 6.11446C1.4999 5.73051 1.81174 5.41867 2.19569 5.22446C2.40125 5.12169 2.62027 5.04841 2.84628 5.00676C3.11886 4.95759 3.39502 4.93083 3.67198 4.92676C3.90387 4.91956 4.19537 4.91906 4.45977 4.91906H4.86677H5.87986C5.9193 4.919 5.95836 4.92671 5.99482 4.94176C6.03127 4.9568 6.0644 4.97889 6.09231 5.00675C6.12022 5.03462 6.14237 5.06771 6.15747 5.10414C6.17258 5.14057 6.18036 5.17962 6.18036 5.21906V5.60906C6.18081 5.87456 6.2867 6.12901 6.47473 6.31644C6.66277 6.50388 6.91755 6.60895 7.18305 6.60855H12.5011V4.83726V4.43837C12.5011 4.26657 12.5075 4.17667 12.5111 4.00207H4.66677L4.45917 4.00197C4.18457 4.00197 3.88137 4.00267 3.64038 4.01017C3.31163 3.98898 2.98171 3.99413 2.65378 4.02557C2.33667 4.08504 2.02948 4.18871 1.74119 4.33357C1.16897 4.62362 0.704108 5.08852 0.414097 5.66076C0.269269 5.94903 0.165561 6.25619 0.105999 6.57325C0.0562116 6.84071 0.0258327 7.11141 0.0150999 7.38325C0.00199999 7.65174 0.000499997 7.94264 0 8.21924V8.58624V42.3348V42.702C0 42.9784 0.00199999 43.2693 0.0150999 43.5379C0.0258333 43.8097 0.0562123 44.0804 0.105999 44.3479C0.165544 44.665 0.269253 44.9722 0.414097 45.2605C0.704273 45.8326 1.16909 46.2975 1.74119 46.5877C2.02952 46.7324 2.3367 46.8361 2.65378 46.8957C3.14905 46.9777 3.6509 47.0132 4.15277 47.0017C4.2627 47.0017 4.3734 47.0017 4.48487 47.0017H14.2848C13.9117 46.7293 13.5924 46.3903 13.3427 46.0017ZM8.37864 4.42137C8.3787 4.38615 8.39272 4.35238 8.41763 4.32749C8.44255 4.30259 8.47632 4.28859 8.51154 4.28857H11.5959C11.6312 4.28859 11.665 4.30258 11.6899 4.32747C11.7148 4.35237 11.7289 4.38613 11.729 4.42137V4.44197C11.7289 4.47722 11.7149 4.51101 11.6899 4.53592C11.665 4.56084 11.6312 4.57484 11.5959 4.57487H8.51154C8.4763 4.57484 8.44252 4.56083 8.4176 4.53591C8.39268 4.51099 8.37867 4.47721 8.37864 4.44197V4.42137ZM6.84275 5.30196C6.88717 5.22843 6.95108 5.16865 7.02741 5.12923C7.10373 5.08981 7.18948 5.07231 7.27515 5.07866C7.38765 5.08802 7.49252 5.13933 7.56896 5.22239C7.6454 5.30546 7.68783 5.41422 7.68783 5.52711C7.68783 5.64 7.6454 5.74876 7.56896 5.83183C7.49252 5.91489 7.38765 5.9662 7.27515 5.97556C7.19281 5.98347 7.10989 5.96854 7.03548 5.93241C6.96108 5.89627 6.89807 5.84032 6.85339 5.77071C6.8087 5.70111 6.78407 5.62053 6.7822 5.53783C6.78032 5.45514 6.80127 5.37352 6.84275 5.30196ZM35.9997 4.68997C35.9992 4.38817 35.9975 4.07067 35.9833 3.77767C35.9717 3.48103 35.9386 3.18562 35.8842 2.89378C35.8194 2.54827 35.7064 2.21357 35.5485 1.89948C35.2326 1.27587 34.726 0.769278 34.1024 0.453394C33.7883 0.295546 33.4536 0.182545 33.1081 0.117696C32.563 0.0279504 32.0108 -0.0106173 31.4586 0.00249678C31.3134 0.00249678 31.1669 0.00249678 31.0186 0.00249678H19.085H18.8584C18.5594 0.00249678 18.229 0.00339684 17.9666 0.0114968C17.606 0.0179307 17.2464 0.0536142 16.8916 0.118196C16.5461 0.182997 16.2114 0.296 15.8973 0.453894C15.2737 0.769778 14.7671 1.27637 14.4512 1.89998C14.2933 2.21407 14.1803 2.54877 14.1155 2.89428C14.061 3.1861 14.0279 3.48152 14.0164 3.77817C14.0103 3.90397 14.0118 4.03817 14.0093 4.16987C14.0064 4.34477 14.0003 4.51827 14 4.69047V5.08766V41.9174C14 42.0516 14 42.184 14 42.3146C14.0005 42.6164 14.0022 42.9339 14.0164 43.2268C14.0279 43.5235 14.061 43.819 14.1155 44.1109C14.1803 44.4564 14.2933 44.791 14.4512 45.1051C14.6083 45.4148 14.8134 45.6978 15.0589 45.9435C15.0865 45.971 15.1189 45.9925 15.1475 46.019C15.3714 46.2306 15.6239 46.4098 15.8975 46.5514C16.2116 46.7092 16.5463 46.8221 16.8918 46.8869C17.2104 46.9443 17.533 46.9774 17.8567 46.9859C18.0837 46.9952 18.3118 47.0011 18.5413 47.002C18.6483 47.0024 18.7563 47.0024 18.8652 47.002H30.9151H31.1429C31.4417 47.002 31.7713 47.0011 32.0335 46.993C32.3941 46.9866 32.7536 46.9509 33.1085 46.8863C33.454 46.8215 33.7886 46.7085 34.1028 46.5508C34.7263 46.2347 35.2328 45.728 35.5489 45.1045C35.7067 44.7904 35.8197 44.4558 35.8846 44.1103C35.939 43.8184 35.9721 43.5229 35.9837 43.2262C35.9979 42.9333 35.9996 42.6162 36.0001 42.314C36.0001 42.1832 36.0001 42.0508 36.0001 41.9168V5.08716C35.9997 4.95296 35.9997 4.82086 35.9997 4.68997ZM23.2709 0.594793C23.271 0.55958 23.285 0.525818 23.3099 0.500919C23.3348 0.47602 23.3685 0.46202 23.4037 0.461994H26.4882C26.5234 0.462047 26.5572 0.476055 26.5821 0.500948C26.607 0.525841 26.621 0.559588 26.621 0.594793V0.615593C26.621 0.650814 26.607 0.684587 26.5821 0.709502C26.5572 0.734417 26.5234 0.748439 26.4882 0.748492H23.4037C23.3685 0.748465 23.3347 0.734452 23.3098 0.709531C23.2849 0.684611 23.2709 0.650822 23.2709 0.615593V0.594793ZM21.7849 1.43249C21.8261 1.36417 21.8843 1.3076 21.9537 1.26822C22.0231 1.22884 22.1015 1.20796 22.1814 1.20759L22.2174 1.20919C22.3299 1.21855 22.4348 1.26985 22.5113 1.35292C22.5877 1.43599 22.6301 1.54475 22.6301 1.65764C22.6301 1.77052 22.5877 1.87929 22.5113 1.96235C22.4348 2.04542 22.3299 2.09672 22.2174 2.10608L22.1817 2.10768C22.1021 2.10895 22.0236 2.08906 21.9542 2.05006C21.8848 2.01106 21.827 1.95435 21.7866 1.8857C21.7463 1.81705 21.7249 1.73892 21.7246 1.6593C21.7243 1.57968 21.745 1.50141 21.7849 1.43249ZM34.9997 41.9165V42.3121C34.9997 42.5984 34.9965 42.8996 34.9831 43.1781C34.9739 43.4264 34.9467 43.6737 34.9016 43.9181C34.8545 44.1725 34.7718 44.419 34.6559 44.6503C34.436 45.0852 34.0828 45.4384 33.6479 45.6584C33.4166 45.7741 33.1703 45.8566 32.916 45.9035C32.6142 45.9581 32.3085 45.9877 32.0019 45.9922C31.749 46 31.4306 46.0022 31.1419 46.0022H18.865L18.5447 46.0017C18.3037 46.0007 18.0685 45.995 17.8389 45.9844C17.5855 45.9756 17.333 45.9485 17.0835 45.9034C16.8292 45.8565 16.5828 45.774 16.3516 45.6584C15.9166 45.4382 15.5634 45.0848 15.3433 44.6498C15.2275 44.4184 15.1449 44.1719 15.0979 43.9175C15.0526 43.6732 15.0254 43.4258 15.0164 43.1775C15.003 42.8996 14.9998 42.5984 14.9998 42.3117V41.8731V5.08716V4.69197C14.9998 4.51937 15.0071 4.34497 15.0103 4.16977C15.0127 4.05437 15.011 3.93647 15.0164 3.82587C15.0254 3.57753 15.0527 3.33019 15.0982 3.08588C15.145 2.83142 15.2277 2.58488 15.3436 2.35358C15.5634 1.9186 15.9166 1.56537 16.3516 1.34559C16.5828 1.22993 16.8292 1.14739 17.0835 1.10039C17.3853 1.04599 17.691 1.01636 17.9976 1.01179C18.251 1.00399 18.5696 1.00329 18.8584 1.00329H18.9759H19.8267L20.771 1.00389C20.8104 1.00379 20.8495 1.01147 20.886 1.0265C20.9225 1.04153 20.9557 1.06361 20.9836 1.09147C21.0115 1.11934 21.0337 1.15245 21.0488 1.1889C21.064 1.22535 21.0718 1.26442 21.0718 1.30389V1.69389C21.0719 1.82537 21.0979 1.95555 21.1483 2.07698C21.1988 2.19841 21.2727 2.30871 21.3658 2.40157C21.4589 2.49444 21.5693 2.56805 21.6909 2.61821C21.8124 2.66836 21.9427 2.69408 22.0742 2.69388H27.8741C28.1375 2.69425 28.3904 2.59084 28.578 2.40606C28.7656 2.22128 28.8729 1.97001 28.8766 1.70669L28.8815 1.30089C28.8827 1.22191 28.9149 1.14656 28.9711 1.09114C29.0274 1.03571 29.1032 1.00466 29.1822 1.00469H30.1989V1.00319H31.018H31.4545C31.9436 0.991022 32.4328 1.02335 32.916 1.09979C33.1703 1.14672 33.4166 1.22927 33.6479 1.34499C34.0829 1.56503 34.4362 1.9184 34.6562 2.35348C34.7719 2.58458 34.8544 2.83088 34.9013 3.08508C34.9466 3.32941 34.9739 3.57674 34.9831 3.82507C34.9965 4.10307 34.9995 4.40437 34.9997 4.69097V5.12956V41.9165Z" fill="#1D1D1F"/>
</svg>
