<svg width="24" height="24" viewBox="0 0 24 24" fill="none" xmlns="http://www.w3.org/2000/svg">
<g opacity="0.2">
<path d="M23.1844 3.14368H0.815578C0.365156 3.14368 0 3.50883 0 3.95925V16.1173C0 16.5677 0.365156 16.9328 0.815578 16.9328H23.1844C23.6348 16.9328 24 16.5677 24 16.1173V3.95925C24 3.50883 23.6348 3.14368 23.1844 3.14368Z" fill="#292929"/>
<path d="M16.6605 19.4415H13.8917V18.3478H10.1085V19.4415H7.33956C6.94886 19.4415 6.63208 19.7582 6.63208 20.1489C6.63208 20.5397 6.94881 20.8564 7.33956 20.8564H16.6605C17.0512 20.8564 17.368 20.5397 17.368 20.1489C17.368 19.7582 17.0513 19.4415 16.6605 19.4415Z" fill="#292929"/>
</g>
</svg>
