<svg width="25" height="44" viewBox="0 0 25 44" fill="none" xmlns="http://www.w3.org/2000/svg">
<path d="M25 13.7269H23.9968C23.9725 11.3293 22.5765 9.2654 20.5567 8.271C19.5615 7.5951 18.9707 6.6517 18.8766 5.6304L18.4395 1.8446C18.3033 0.806 18.133 0.6527 16.5325 0.3122C16.5325 0.3122 14.1317 0 11.9834 0C9.8351 0 7.4343 0.3123 7.4343 0.3123C5.8337 0.6528 5.6634 0.8061 5.5272 1.8447L5.0902 5.6305C4.9959 6.6533 4.4274 7.5982 3.4367 8.2742C1.4026 9.2786 0 11.3678 0 13.7899V29.7108C0 32.0984 1.3623 34.164 3.3496 35.1845C4.4018 35.8818 4.9646 36.935 5.0625 37.9969L5.4995 41.7827C5.6357 42.8213 5.806 42.9746 7.4066 43.3152C7.4066 43.3152 9.8074 43.6273 11.9557 43.6273C14.104 43.6273 16.5048 43.3152 16.5048 43.3152C18.1054 42.9746 18.2756 42.8214 18.4118 41.7827L18.8489 37.9969C18.9448 36.9567 19.5534 35.9168 20.5825 35.2172C22.6063 34.2091 24 32.1252 24 29.7108V18.9569H25V13.7269ZM23 29.7108C23 32.553 20.6877 34.8653 17.8455 34.8653H6.1546C3.3123 34.8653 1 32.553 1 29.7108V13.7899C1 10.9476 3.3123 8.6353 6.1546 8.6353H17.8455C20.6877 8.6353 23 10.9476 23 13.7899V18.9569V29.7108Z" fill="#1D1D1F"/>
</svg>
