<svg width="55" height="18" viewBox="0 0 55 18" fill="none" xmlns="http://www.w3.org/2000/svg">
<path d="M31.0758 9.00848C31.0758 13.9861 28.2453 17.0878 23.7448 17.0878C19.2334 17.0878 16.4136 13.9861 16.4136 9.00848C16.4136 4.03086 19.2334 0.918234 23.7448 0.918234C28.2453 0.918234 31.0758 4.03066 31.0758 9.00848ZM18.8972 9.00848C18.8972 12.6523 20.7733 14.9512 23.7448 14.9512C26.7163 14.9512 28.5815 12.6523 28.5815 9.00848C28.5815 5.35365 26.7162 3.05451 23.7448 3.05451C20.7734 3.05451 18.8972 5.35365 18.8972 9.00848ZM32.9946 5.41867H35.2286V7.32747H35.2828C35.9009 6.02619 37.1157 5.2235 38.8726 5.2235C41.3884 5.2235 42.8309 6.82859 42.8309 9.44204V16.8275H40.4775V9.8977C40.4775 8.18428 39.6751 7.24064 38.0483 7.24064C36.4 7.24064 35.3373 8.41186 35.3373 10.1797V16.8274H32.9947L32.9946 5.41867ZM54.8699 13.4764C54.5447 15.5586 52.5708 17.0442 49.9573 17.0442C46.6062 17.0442 44.5785 14.778 44.5785 11.1771C44.5785 7.59846 46.6389 5.2126 49.8599 5.2126C53.0265 5.2126 55.0001 7.44661 55.0001 10.906V11.7089H46.9426V11.8498C46.9426 13.8341 48.1354 15.1465 50.0116 15.1465C51.3455 15.1465 52.3324 14.4742 52.6468 13.4764H54.8699ZM46.9532 10.071H52.6576C52.6034 8.32523 51.4973 7.09968 49.8598 7.09968C48.2223 7.09968 47.0727 8.34684 46.9532 10.071ZM10.2592 4.09729C8.86298 3.99395 7.67855 4.87717 7.01761 4.87717C6.34717 4.87717 5.31339 4.1196 4.21729 4.14031C2.77807 4.16141 1.45158 4.97781 0.709413 6.26638C-0.785431 8.86113 0.327774 12.706 1.7839 14.8115C2.49616 15.8404 3.34567 16.9997 4.46148 16.9575C5.53547 16.9152 5.94182 16.2628 7.23999 16.2628C8.53736 16.2628 8.90349 16.9575 10.0391 16.9367C11.1951 16.9152 11.9275 15.8865 12.6346 14.852C13.4527 13.6579 13.789 12.5016 13.8089 12.4404C13.7833 12.4307 11.5555 11.576 11.5333 9.00928C11.5131 6.8634 13.2848 5.83192 13.3653 5.7822C12.3597 4.30107 10.8064 4.13781 10.2592 4.09729ZM9.39767 2.70739C9.99069 1.99072 10.3896 0.992661 10.2797 0C9.42629 0.0338123 8.39411 0.568506 7.78199 1.28467C7.23379 1.9191 6.75241 2.93517 6.88316 3.90762C7.83441 3.98115 8.80526 3.42445 9.39767 2.70739Z" fill="#F5F5F7"/>
</svg>
