<svg width="20" height="17" viewBox="0 0 20 17" fill="none" xmlns="http://www.w3.org/2000/svg">
<g clip-path="url(#clip0_1_3239)">
<path d="M8.46551 15.3721C7.69642 15.3721 6.95361 15.2711 6.23709 15.0691C5.52056 14.8672 4.84692 14.5795 4.21616 14.206C3.58539 13.8325 3.01272 13.3885 2.49815 12.8739C1.98358 12.3593 1.53956 11.7867 1.16608 11.1559C0.792604 10.5252 0.504887 9.85151 0.302932 9.13498C0.100977 8.41846 0 7.67565 0 6.90656C0 6.13194 0.100977 5.38775 0.302932 4.67399C0.504887 3.96023 0.791221 3.28797 1.16193 2.65721C1.53264 2.02645 1.97529 1.45378 2.48986 0.93921C3.00443 0.42464 3.57709 -0.0193844 4.20786 -0.392863C4.83862 -0.766342 5.51226 -1.05406 6.22879 -1.25601C6.94531 -1.45797 7.68812 -1.55894 8.45721 -1.55894C9.23183 -1.55894 9.9774 -1.45797 10.6939 -1.25601C11.4105 -1.05406 12.0827 -0.766342 12.7107 -0.392863C13.3387 -0.0193844 13.9114 0.42464 14.4287 0.93921C14.946 1.45378 15.3915 2.02645 15.7649 2.65721C16.1384 3.28797 16.4261 3.96023 16.6281 4.67399C16.83 5.38775 16.931 6.13194 16.931 6.90656C16.931 7.67565 16.83 8.41846 16.6281 9.13498C16.4261 9.85151 16.1384 10.5252 15.7649 11.1559C15.3915 11.7867 14.9474 12.3593 14.4329 12.8739C13.9183 13.3885 13.3456 13.8325 12.7149 14.206C12.0841 14.5795 11.4118 14.8672 10.6981 15.0691C9.98432 15.2711 9.24013 15.3721 8.46551 15.3721ZM8.46551 13.9612C9.25119 13.9612 9.99677 13.8436 10.7022 13.6084C11.4077 13.3733 12.0537 13.0399 12.6402 12.6083C13.2267 12.1768 13.7357 11.6677 14.1673 11.0812C14.5989 10.4947 14.9322 9.84874 15.1674 9.14328C15.4025 8.43782 15.5201 7.69225 15.5201 6.90656C15.5201 6.12088 15.4011 5.3753 15.1632 4.66984C14.9253 3.96438 14.5906 3.3184 14.159 2.7319C13.7274 2.14541 13.2184 1.63637 12.6319 1.20479C12.0454 0.773219 11.3994 0.439856 10.6939 0.204702C9.98847 -0.0304508 9.2429 -0.148027 8.45721 -0.148027C7.67152 -0.148027 6.92733 -0.0304508 6.22464 0.204702C5.52195 0.439856 4.87735 0.773219 4.29085 1.20479C3.70435 1.63637 3.1967 2.14541 2.76789 2.7319C2.33908 3.3184 2.0071 3.96438 1.77195 4.66984C1.53679 5.3753 1.41922 6.12088 1.41922 6.90656C1.41922 7.69225 1.53679 8.43782 1.77195 9.14328C2.0071 9.84874 2.33908 10.4947 2.76789 11.0812C3.1967 11.6677 3.70435 12.1768 4.29085 12.6083C4.87735 13.0399 5.52333 13.3733 6.22879 13.6084C6.93425 13.8436 7.67982 13.9612 8.46551 13.9612ZM7.00479 9.96078C6.88307 10.0327 6.76272 10.0645 6.64376 10.0562C6.5248 10.0479 6.42521 10.005 6.34498 9.92759C6.26475 9.85012 6.22464 9.75053 6.22464 9.6288V4.19262C6.22464 4.06536 6.26614 3.96577 6.34913 3.89384C6.43213 3.82191 6.53449 3.78179 6.65621 3.77349C6.77794 3.76519 6.89413 3.79424 7.00479 3.86064L11.4533 6.49159C11.5585 6.55245 11.629 6.63683 11.665 6.74472C11.7009 6.85262 11.7023 6.96051 11.6691 7.0684C11.6359 7.1763 11.564 7.26344 11.4533 7.32984L7.00479 9.96078Z" fill="#2997FF"/>
</g>
<defs>
<clipPath id="clip0_1_3239">
<rect width="19.52" height="17" fill="white" transform="matrix(1 0 0 -1 0 17)"/>
</clipPath>
</defs>
</svg>
