<svg width="100" height="24" viewBox="0 0 100 24" fill="none" xmlns="http://www.w3.org/2000/svg">
<path d="M16.8562 23.0331C15.5554 24.2955 14.1179 24.0987 12.7499 23.5035C11.2956 22.8963 9.96364 22.8579 8.4277 23.5035C6.51257 24.3291 5.49741 24.0891 4.34546 23.0331C-2.16549 16.3322 -1.20553 6.12487 6.19099 5.74087C7.98612 5.83687 9.24127 6.73208 10.2972 6.80648C11.8668 6.48727 13.3715 5.57286 15.0538 5.69286C17.0746 5.85607 18.5841 6.65288 19.5921 8.08809C15.4378 10.5841 16.4242 16.061 20.24 17.5994C19.4769 19.6058 18.4953 21.5858 16.8538 23.0523L16.8562 23.0331ZM10.1556 5.66886C9.96124 2.69043 12.3731 0.240003 15.1498 0C15.5314 3.43444 12.0276 6.00487 10.1556 5.66886ZM23.5063 23.6547H26.6262V7.37048H26.7342L33.3843 23.6547H35.9234L42.5736 7.37048H42.6816V23.6547H45.8015V1.58882H41.8536L34.6971 19.2026H34.6059L27.4662 1.58882H23.5063V23.6547ZM54.4267 24.0003C56.8722 24.0003 58.509 22.8843 59.3489 21.2642H59.4257V23.6811H62.7448V7.59369H59.4257V16.9826C59.4257 19.4906 57.9282 21.1562 55.6027 21.1562C53.3084 21.1562 52.178 19.8098 52.178 17.3786V7.59369H48.8757V18.0218C48.8757 21.7226 50.8941 24.0003 54.4267 24.0003ZM71.3917 24.0003C75.1763 24.0003 77.9242 21.9866 77.9242 19.0562V19.0418C77.9242 16.7378 76.6739 15.4394 73.3908 14.6762L70.7821 14.081C69.0566 13.6682 68.4014 12.9985 68.4014 12.0049V11.9905C68.4014 10.7089 69.5149 9.86891 71.2861 9.86891C73.1484 9.86891 74.2476 10.8457 74.4443 12.2497L74.4587 12.3577H77.557L77.5426 12.1753C77.3746 9.44411 75.0851 7.32248 71.2861 7.32248C67.5926 7.32248 65.0895 9.2905 65.0895 12.1609V12.1753C65.0895 14.5106 66.6015 15.9746 69.6517 16.6778L72.2772 17.273C74.0028 17.6858 74.5811 18.281 74.5811 19.3178V19.3322C74.5811 20.6306 73.3908 21.4538 71.4061 21.4538C69.3757 21.4538 68.2766 20.585 67.9718 19.1042L67.9406 18.9506H64.6767L64.6911 19.0874C65.0271 22.0155 67.379 24.0003 71.3917 24.0003ZM81.7305 5.01366C82.82 5.01366 83.6624 4.15445 83.6624 3.11284C83.6624 2.05442 82.82 1.19521 81.7305 1.19521C80.6577 1.19521 79.7985 2.05442 79.7985 3.11284C79.7985 4.15445 80.6577 5.01366 81.7305 5.01366ZM80.0745 23.6307H83.3864V7.49769H80.0745V23.6307ZM93.0124 24.0003C96.8739 24.0003 99.5618 21.5282 99.9122 18.305L99.9266 18.197H96.7515L96.7371 18.3194C96.3411 20.0594 95.0427 21.2354 93.0124 21.2354C90.4637 21.2354 88.7694 19.1738 88.7694 15.6626V15.6482C88.7694 12.2137 90.4325 10.0753 92.998 10.0753C95.1507 10.0753 96.3723 11.4025 96.7227 12.9769L96.7539 13.0993H99.8978L99.8834 12.9913C99.6098 9.96971 97.1043 7.31288 92.9692 7.31288C88.3902 7.31288 85.3975 10.5337 85.3975 15.617V15.6314C85.3951 20.7794 88.3254 24.0003 93.0124 24.0003Z" fill="#1D1D1F"/>
</svg>
