<svg width="6" height="14" viewBox="0 0 6 14" fill="none" xmlns="http://www.w3.org/2000/svg">
<g clip-path="url(#clip0_1_945)">
<path d="M0.516434 10.6436C0.375158 10.6436 0.254389 10.5946 0.154129 10.4966C0.0538686 10.3986 0.0037384 10.279 0.0037384 10.1377C0.0037384 9.99642 0.0561473 9.87337 0.160965 9.76855L2.92268 7.01367L0.160965 4.25879C0.0561473 4.15397 0.0037384 4.03092 0.0037384 3.88965C0.0037384 3.74837 0.0538686 3.62874 0.154129 3.53076C0.254389 3.43278 0.375158 3.38379 0.516434 3.38379C0.648595 3.38379 0.767085 3.43164 0.871902 3.52734L3.98909 6.63086C4.09846 6.73112 4.15315 6.85872 4.15315 7.01367C4.15315 7.15951 4.09846 7.28711 3.98909 7.39648L0.871902 10.5C0.776199 10.5957 0.65771 10.6436 0.516434 10.6436Z" fill="#0066CC"/>
</g>
<defs>
<clipPath id="clip0_1_945">
<rect width="5.82" height="14" fill="white" transform="matrix(1 0 0 -1 0 14)"/>
</clipPath>
</defs>
</svg>
