<svg width="10" height="21" viewBox="0 0 10 21" fill="none" xmlns="http://www.w3.org/2000/svg">
<path d="M5.16647 15.75L0.490692 11.0947C0.32663 10.917 0.244598 10.7256 0.244598 10.5205C0.244598 10.2881 0.32663 10.0967 0.490692 9.94629L5.16647 5.29102C5.31003 5.14746 5.48776 5.07568 5.69968 5.07568C5.91843 5.07568 6.10129 5.14917 6.24826 5.29614C6.39523 5.44312 6.46872 5.62256 6.46872 5.83447C6.46872 6.04639 6.39011 6.23096 6.23288 6.38818L2.0903 10.5205L6.23288 14.6528C6.39011 14.8101 6.46872 14.9946 6.46872 15.2065C6.46872 15.4185 6.39523 15.5979 6.24826 15.7449C6.10129 15.8918 5.91843 15.9653 5.69968 15.9653C5.50143 15.9653 5.3237 15.8936 5.16647 15.75Z" fill="#86868B"/>
</svg>
