<svg width="20" height="20" viewBox="0 0 20 20" fill="none" xmlns="http://www.w3.org/2000/svg">
<g opacity="0.1">
<path fill-rule="evenodd" clip-rule="evenodd" d="M9.9999 19.1305C5.3999 19.1305 1.66656 15.2436 1.66656 10.4349C1.66656 5.63488 5.3999 1.73923 9.9999 1.73923C14.6082 1.73923 18.3332 5.63488 18.3332 10.4349C18.3332 15.2436 14.6082 19.1305 9.9999 19.1305ZM12.6582 13.6609C12.7582 13.7218 12.8665 13.7566 12.9832 13.7566C13.1915 13.7566 13.3998 13.6435 13.5165 13.4348C13.6915 13.1305 13.5998 12.7305 13.2998 12.5392L10.3332 10.6957V6.67829C10.3332 6.31307 10.0498 6.02612 9.70815 6.02612C9.36649 6.02612 9.08315 6.31307 9.08315 6.67829V11.0696C9.08315 11.2957 9.19982 11.5044 9.39149 11.6261L12.6582 13.6609Z" fill="#292929"/>
</g>
</svg>
