<svg width="46" height="17" viewBox="0 0 46 17" fill="none" xmlns="http://www.w3.org/2000/svg">
<path d="M9.46371 2.72787C10.1009 1.96758 10.4173 0.989356 10.3463 0C9.37014 0.0926675 8.46794 0.560016 7.82899 1.30376C7.18925 2.01993 6.86401 2.96305 6.92639 3.92132C7.91203 3.94128 8.85044 3.4998 9.46371 2.72787ZM10.2861 4.10184C8.88203 4.02161 7.69862 4.89413 7.02668 4.89413C6.35474 4.89413 5.33179 4.14196 4.2286 4.16202C2.76237 4.20063 1.42641 5.01357 0.718468 6.29818C-0.785874 8.88565 0.31731 12.7368 1.78154 14.8428C2.49359 15.8457 3.34605 17.0392 4.47932 16.9991C5.6126 16.959 5.96361 16.3071 7.25734 16.3071C8.55108 16.3071 8.93218 16.9991 10.0554 16.979C11.1787 16.959 11.9609 15.9761 12.6629 14.893C13.1684 14.1516 13.5636 13.3409 13.8363 12.486C12.4622 11.8873 11.5698 10.535 11.5598 9.03608C11.578 7.71366 12.2701 6.49214 13.3951 5.79673C12.6776 4.7803 11.5292 4.15419 10.2861 4.10184ZM19.2419 2.09605V4.93424H21.5285V6.80966H19.2419V13.5291C19.2419 14.5319 19.6932 15.0434 20.6961 15.0434C20.9711 15.0381 21.2456 15.0181 21.5185 14.9832V16.8687C21.0709 16.941 20.6179 16.9746 20.1646 16.969C17.7978 16.969 16.8851 16.0563 16.8851 13.7697V6.84977H15.09V4.97436H16.835V2.09605H19.2419ZM29.5216 16.8687H27.0144L22.8022 4.97436H25.2994L28.258 14.5319H28.3181L31.2767 4.97436H33.7237L29.5216 16.8687ZM40.5334 16.8687H38.3671V11.9946H33.7137V9.84843H38.3571V4.97436H40.5234V9.84843H45.1768V11.9946H40.5334V16.8687Z" fill="#F5F5F7"/>
</svg>
