<svg width="49" height="48" viewBox="0 0 49 48" fill="none" xmlns="http://www.w3.org/2000/svg">
<g clip-path="url(#clip0_1_1032)">
<path d="M31.5752 19.0792C30.9682 19.4506 30.4654 19.97 30.1139 20.5887C29.7624 21.2075 29.5736 21.9052 29.5652 22.6168C29.5676 23.4176 29.8049 24.2001 30.2476 24.8674C30.6903 25.5347 31.3191 26.0575 32.056 26.371C31.7655 27.3084 31.3355 28.1967 30.7805 29.0061C29.9864 30.1492 29.1561 31.2923 27.8927 31.2923C26.6293 31.2923 26.3044 30.5583 24.8484 30.5583C23.4284 30.5583 22.9232 31.3164 21.7684 31.3164C20.6136 31.3164 19.8073 30.2575 18.8808 28.958C17.6568 27.1375 16.9842 25.0026 16.9435 22.8093C16.9435 19.1993 19.2899 17.2863 21.6001 17.2863C22.8275 17.2863 23.8501 18.0925 24.6201 18.0925C25.3541 18.0925 26.4972 17.2382 27.893 17.2382C28.6107 17.2196 29.3219 17.3778 29.964 17.6989C30.6061 18.0199 31.1594 18.4939 31.5752 19.0792ZM24.7166 17.0336C24.6318 17.0333 24.5472 17.0253 24.4639 17.0096C24.4404 16.8988 24.4283 16.7859 24.4278 16.6726C24.468 15.7413 24.8294 14.8527 25.4506 14.1578C26.1478 13.3569 27.1251 12.8532 28.182 12.75C28.2071 12.8727 28.2192 12.9977 28.2181 13.123C28.1951 14.0729 27.8468 14.9861 27.2314 15.71C26.9238 16.0896 26.5423 16.4026 26.11 16.6301C25.6777 16.8577 25.2036 16.9949 24.7166 17.0336Z" fill="white" fill-opacity="0.8"/>
</g>
<defs>
<clipPath id="clip0_1_1032">
<rect width="17" height="48" fill="white" transform="translate(16)"/>
</clipPath>
</defs>
</svg>
