<svg width="24" height="24" viewBox="0 0 24 24" fill="none" xmlns="http://www.w3.org/2000/svg">
<g opacity="0.2" clip-path="url(#clip0_634_1423)">
<path d="M23.8188 0H0.180908V1.64916H1.021V14.3327H5.95928C10.1933 8.9932 10.2339 4.47839 10.219 1.64916H11.1753V20.8497H6.80022C6.61272 18.4785 6.15067 16.9463 5.70325 15.9818H1.021V24H6.88722V23.1754C6.88722 22.944 6.88488 22.7187 6.88042 22.4989H17.1194C17.1149 22.7186 17.1126 22.944 17.1126 23.1754V24H22.9788V15.9818H18.2965C17.8491 16.9463 17.3871 18.4785 17.1996 20.8497H12.8245V1.64916H13.7808C13.7659 4.47839 13.8065 8.99325 18.0405 14.3327H22.9788V1.64916H23.8189L23.8188 0Z" fill="#292929"/>
</g>
<defs>
<clipPath id="clip0_634_1423">
<rect width="24" height="24" fill="white"/>
</clipPath>
</defs>
</svg>
