<svg width="34" height="34" viewBox="0 0 34 34" fill="none" xmlns="http://www.w3.org/2000/svg">
<g opacity="0.6" clip-path="url(#clip0_634_361)">
<path d="M33.7435 0H0.256409V2.3363H1.44654V20.3046H8.44244C14.4407 12.7404 14.4981 6.34439 14.4771 2.3363H15.8319V29.5371H9.63377C9.36814 26.1779 8.71358 24.0073 8.07973 22.6409H1.44654V34H9.75702V32.8318C9.75702 32.5041 9.7537 32.1848 9.74739 31.8734H24.2526C24.2463 32.1847 24.2429 32.504 24.2429 32.8318V34H32.5534V22.6409H25.9202C25.2863 24.0073 24.6318 26.1779 24.3662 29.5371H18.1682V2.3363H19.5229C19.5019 6.34439 19.5594 12.7404 25.5575 20.3046H32.5534V2.3363H33.7436L33.7435 0Z" fill="#292929"/>
</g>
<defs>
<clipPath id="clip0_634_361">
<rect width="34" height="34" fill="white"/>
</clipPath>
</defs>
</svg>
