<svg width="33" height="26" viewBox="0 0 33 26" fill="none" xmlns="http://www.w3.org/2000/svg">
<path d="M5.69414 15.3726L5.69962 15.3754C5.69221 15.376 5.68562 15.3701 5.69414 15.3726ZM5.70286 15.3747L5.69962 15.3754L5.70286 15.3793L5.70641 15.3888L5.71402 15.3652L5.70641 15.3726L5.70286 15.3747ZM14.8997 6.86422C14.7645 8.2694 14.1432 9.58336 13.143 10.5795C13.099 10.6302 13.0609 10.6734 13.0286 10.7114C12.4649 11.2698 11.8549 11.7794 11.2051 12.2346L11.2024 12.2381L11.1735 12.2578C10.929 12.4365 10.6752 12.6022 10.4131 12.7541L10.1061 12.9253C9.59853 13.1689 9.07379 13.375 8.53607 13.5419L8.49702 13.5574C8.25357 13.6399 8.00184 13.6955 7.74631 13.7234C7.54938 13.7564 7.35055 13.7769 7.15102 13.7847C6.6025 13.8285 6.0518 13.838 5.5021 13.8132C4.37805 13.6529 3.32976 13.1532 2.49744 12.3809C1.98756 11.989 1.54345 11.5182 1.18188 10.9864C0.886668 10.5909 0.637656 10.1629 0.439689 9.71072C0.358182 9.52048 0.288988 9.3252 0.232534 9.12608C0.0955117 8.68893 0.0226908 8.2342 0.0163507 7.77613C-0.049995 7.10597 0.0865365 6.43133 0.408241 5.83971C0.599179 5.49892 0.813154 5.17157 1.04868 4.85993C1.03681 4.85811 1.02169 4.85273 1.01002 4.85111C2.0151 3.44809 3.30275 2.27101 4.79014 1.39562C6.27355 0.460371 7.99655 -0.0241329 9.74999 0.000925052C10.5379 0.0166493 11.8905 0.401437 13.6354 2.45422C14.5441 3.73863 14.9899 5.29346 14.8997 6.86422ZM4.66445 10.027C4.50195 9.61161 4.29296 9.21592 4.04146 8.84751C3.78999 8.48472 3.49642 8.15301 3.16689 7.85931C2.68238 7.48254 1.98473 7.28716 1.83256 7.79003C1.776 8.18068 1.79975 8.57876 1.90235 8.95991C2.00495 9.34107 2.18425 9.69727 2.42927 10.0067C2.63385 10.3538 2.90737 10.6552 3.23294 10.8924C3.55852 11.1296 3.92926 11.2975 4.32227 11.3859C4.80658 11.4252 4.90458 10.6309 4.66445 10.027ZM12.3183 3.25575L12.2676 3.18626C12.1168 2.98129 11.8911 2.84432 11.6396 2.80526C11.3882 2.7662 11.1315 2.82822 10.9257 2.97778L8.5871 4.68768C8.38214 4.83845 8.24517 5.06422 8.2061 5.31565C8.16704 5.56709 8.22907 5.82376 8.37863 6.02962L8.42935 6.09901C8.58011 6.30399 8.80588 6.44098 9.05732 6.48004C9.30876 6.51911 9.56545 6.45707 9.77129 6.30748L12.1098 4.59779C12.3149 4.44705 12.4519 4.22126 12.491 3.96978C12.53 3.71831 12.468 3.46159 12.3183 3.25575ZM5.3408 23.9593C5.36561 24.3354 5.52766 24.6893 5.79618 24.9539C6.0647 25.2185 6.42101 25.3752 6.79748 25.3944H8.44254C8.85521 25.3448 9.23627 25.1484 9.51611 24.8411C9.79596 24.5338 9.95592 24.1361 9.96678 23.7206V14.4742C8.48891 15.0334 6.92093 15.3166 5.3408 15.3098C5.33938 15.3431 5.3408 23.5386 5.3408 23.9593ZM27.3003 15.3754C27.3077 15.376 27.3143 15.3701 27.3058 15.3726L27.3003 15.3754ZM27.2935 15.3726L27.2859 15.3652L27.2935 15.3888L27.2971 15.3793L27.3003 15.3754L27.2971 15.3747L27.2935 15.3726ZM32.9836 7.77572C32.9772 8.2338 32.9044 8.68853 32.7674 9.12568C32.7109 9.32479 32.6418 9.52008 32.5602 9.71032C32.3624 10.1624 32.1135 10.5904 31.8185 10.986C31.4569 11.5178 31.0128 11.9886 30.5029 12.3805C29.6706 13.1528 28.6223 13.6525 27.4982 13.8128C26.9485 13.8376 26.3978 13.8281 25.8493 13.7843C25.6498 13.7765 25.451 13.756 25.254 13.723C24.9985 13.6951 24.7468 13.6395 24.5033 13.557L24.4643 13.5415C23.9266 13.3746 23.4018 13.1685 22.8943 12.9249L22.5868 12.7541C22.3248 12.6024 22.0711 12.437 21.8266 12.2585L21.7977 12.2388L21.795 12.2353C21.1452 11.7801 20.5352 11.2705 19.9716 10.7121C19.9392 10.6738 19.9012 10.6302 19.8572 10.5802C18.8569 9.58406 18.2356 8.27011 18.1004 6.86493C18.0103 5.294 18.4562 3.73901 19.365 2.45452C21.1099 0.401742 22.4622 0.0169531 23.2505 0.00122884C25.0039 -0.0238291 26.7269 0.460675 28.2103 1.39592C29.6977 2.27131 30.9853 3.44839 31.9904 4.85141C31.9788 4.85303 31.9636 4.85841 31.9518 4.86024C32.1873 5.17188 32.4013 5.49923 32.5922 5.84001C32.9136 6.43149 33.0499 7.10585 32.9836 7.77572ZM20.8901 4.59779L23.2288 6.30768C23.4347 6.45727 23.6914 6.51931 23.9428 6.48025C24.1943 6.44119 24.42 6.3042 24.5708 6.09921L24.6215 6.02982C24.7711 5.82392 24.8331 5.56719 24.794 5.3157C24.7549 5.06421 24.6179 4.83843 24.4128 4.68768L22.074 2.97778C21.8681 2.82822 21.6114 2.7662 21.36 2.80526C21.1086 2.84432 20.8828 2.98129 20.732 3.18626L20.6813 3.25575C20.5317 3.46163 20.4697 3.71837 20.5088 3.96985C20.5479 4.22133 20.685 4.44709 20.8901 4.59779ZM31.1674 7.79023C31.0152 7.28736 30.3176 7.48274 29.833 7.85952C29.5035 8.15322 29.2099 8.48493 28.9585 8.84771C28.707 9.21613 28.498 9.61182 28.3355 10.0272C28.0956 10.6312 28.1935 11.4257 28.6777 11.3866C29.0707 11.2982 29.4415 11.1301 29.7671 10.8928C30.0927 10.6554 30.3662 10.3539 30.5707 10.0067C30.8157 9.69727 30.995 9.34107 31.0976 8.95991C31.2002 8.57876 31.2239 8.18088 31.1674 7.79023ZM27.6591 15.3098C26.079 15.3166 24.511 15.0334 23.0332 14.4742V23.7206C23.044 24.1361 23.204 24.5338 23.4838 24.8411C23.7637 25.1484 24.1447 25.3448 24.5574 25.3944H26.2025C26.5712 25.3537 26.9155 25.19 27.1798 24.9296C27.4441 24.6692 27.613 24.3274 27.6591 23.9593V15.3098Z" fill="#1D1D1F"/>
</svg>
