<svg width="17" height="48" viewBox="0 0 17 48" fill="none" xmlns="http://www.w3.org/2000/svg">
<g clip-path="url(#clip0_1_2008)">
<path d="M16.2294 29.9555L12.0539 25.8734C13.0508 24.5735 13.5175 22.9439 13.36 21.3134C13.2026 19.6828 12.4326 18.1727 11.2053 17.0876C9.97813 16.0025 8.38506 15.4232 6.74751 15.4666C5.10996 15.51 3.5498 16.1729 2.38178 17.3214C1.21375 18.47 0.524793 20.0188 0.453885 21.6554C0.382978 23.2919 0.935399 24.8945 1.99971 26.1398C3.06401 27.3851 4.561 28.1804 6.18866 28.3652C7.81632 28.5501 9.45353 28.1108 10.77 27.1359L14.9705 31.2425C15.055 31.3251 15.155 31.3903 15.2647 31.4344C15.3744 31.4784 15.4917 31.5004 15.6099 31.4991C15.7281 31.4978 15.8448 31.4732 15.9535 31.4267C16.0622 31.3803 16.1607 31.3129 16.2434 31.2284C16.326 31.1439 16.3912 31.0439 16.4353 30.9342C16.4793 30.8245 16.5013 30.7072 16.5 30.589C16.4987 30.4708 16.4741 30.354 16.4276 30.2453C16.3812 30.1366 16.3139 30.0381 16.2294 29.9555ZM1.69999 21.9538C1.70141 20.9166 2.01026 19.9032 2.58751 19.0415C3.16476 18.1798 3.98449 17.5086 4.9431 17.1127C5.90172 16.7168 6.95619 16.6139 7.97324 16.8172C8.99029 17.0204 9.92428 17.5205 10.6572 18.2544C11.39 18.9883 11.8889 19.923 12.0907 20.9403C12.2925 21.9576 12.1882 23.0119 11.791 23.97C11.3938 24.9281 10.7214 25.7469 9.85898 26.323C8.99652 26.899 7.98264 27.2065 6.94549 27.2065C5.55381 27.204 4.21995 26.6496 3.23656 25.6648C2.25317 24.6801 1.70057 23.3455 1.69999 21.9538Z" fill="black" fill-opacity="0.8"/>
</g>
<defs>
<clipPath id="clip0_1_2008">
<rect width="17" height="48" fill="white"/>
</clipPath>
</defs>
</svg>
