<svg width="12" height="17" viewBox="0 0 12 17" fill="none" xmlns="http://www.w3.org/2000/svg">
<g clip-path="url(#clip0_1_3405)">
<path d="M8.93524 10.8229C8.93524 11.022 8.86748 11.1866 8.73198 11.3166C8.59647 11.4465 8.44022 11.5115 8.26323 11.5115C8.08624 11.5115 7.93275 11.4438 7.80278 11.3083C7.6728 11.1728 7.60781 11.0193 7.60781 10.8478V9.20512L7.74885 6.02759L6.68691 7.25546L1.14491 12.7975C1.01216 12.9302 0.857296 12.9966 0.680306 12.9966C0.497785 12.9966 0.33877 12.9261 0.203262 12.785C0.067754 12.644 0 12.4877 0 12.3163C0 12.1448 0.0691368 11.99 0.20741 11.8517L5.74112 6.30138L6.96069 5.25603L3.75828 5.38877H2.14877C1.97731 5.38877 1.82521 5.32378 1.69247 5.1938C1.55973 5.06383 1.49335 4.91311 1.49335 4.74165C1.49335 4.56466 1.55558 4.40979 1.68002 4.27705C1.80447 4.14431 1.96902 4.07794 2.17366 4.07794L8.22175 4.06134C8.44298 4.06134 8.61721 4.12633 8.74442 4.25631C8.87163 4.38629 8.93524 4.55636 8.93524 4.76654V10.8229Z" fill="#0066CC"/>
</g>
<defs>
<clipPath id="clip0_1_3405">
<rect width="11.88" height="17" fill="white" transform="matrix(1 0 0 -1 0 17)"/>
</clipPath>
</defs>
</svg>
