<svg width="17" height="48" viewBox="0 0 17 48" fill="none" xmlns="http://www.w3.org/2000/svg">
<g clip-path="url(#clip0_1_2011)">
<path d="M13.4575 16.9268H12.3222C12.2319 15.9757 11.7901 15.0924 11.0833 14.4495C10.3765 13.8067 9.45543 13.4504 8.5 13.4504C7.54458 13.4504 6.62348 13.8067 5.91667 14.4495C5.20986 15.0924 4.76814 15.9757 4.6778 16.9268H3.5425C2.8532 16.9277 2.19237 17.2019 1.70496 17.6893C1.21755 18.1767 0.943352 18.8375 0.942505 19.5268V28.45C0.943352 29.1393 1.21755 29.8002 1.70496 30.2876C2.19237 30.775 2.8532 31.0492 3.5425 31.05H13.4575C14.1468 31.0492 14.8076 30.775 15.295 30.2876C15.7825 29.8002 16.0567 29.1393 16.0575 28.45V19.5269C16.0567 18.8376 15.7825 18.1768 15.2951 17.6893C14.8077 17.2019 14.1468 16.9277 13.4575 16.9268ZM8.5 14.65C9.13739 14.652 9.75284 14.883 10.2342 15.3009C10.7155 15.7187 11.0306 16.2956 11.1221 16.9264H5.8779C5.96941 16.2956 6.28454 15.7187 6.76586 15.3009C7.24717 14.883 7.86262 14.652 8.5 14.65ZM14.8574 28.45C14.857 28.8212 14.7094 29.1771 14.4469 29.4396C14.1845 29.702 13.8286 29.8497 13.4574 29.85H3.5425C3.17132 29.8497 2.81544 29.702 2.55296 29.4396C2.29049 29.1771 2.14288 28.8212 2.1425 28.45V19.5269C2.14288 19.1557 2.29049 18.7999 2.55296 18.5374C2.81544 18.2749 3.17132 18.1273 3.5425 18.1269H13.4575C13.8287 18.1273 14.1846 18.2749 14.447 18.5374C14.7095 18.7999 14.8571 19.1557 14.8575 19.5269L14.8574 28.45Z" fill="black" fill-opacity="0.8"/>
</g>
<defs>
<clipPath id="clip0_1_2011">
<rect width="17" height="48" fill="white"/>
</clipPath>
</defs>
</svg>
