<svg width="17" height="14" viewBox="0 0 17 14" fill="none" xmlns="http://www.w3.org/2000/svg">
<g clip-path="url(#clip0_1_757)">
<path d="M7.24678 12.6602C6.61332 12.6602 6.0015 12.577 5.41133 12.4106C4.82117 12.2443 4.26632 12.0073 3.74678 11.6997C3.22725 11.3921 2.75557 11.0264 2.33175 10.6025C1.90792 10.1787 1.54219 9.70703 1.23458 9.1875C0.92696 8.66797 0.689981 8.11312 0.52364 7.52295C0.357299 6.93278 0.274128 6.32096 0.274128 5.6875C0.274128 5.04948 0.357299 4.43652 0.52364 3.84863C0.689981 3.26074 0.925821 2.70703 1.23116 2.1875C1.5365 1.66797 1.90108 1.19629 2.32491 0.772461C2.74874 0.348633 3.22042 -0.0170898 3.73995 -0.324707C4.25948 -0.632324 4.81433 -0.869304 5.4045 -1.03564C5.99467 -1.20199 6.60648 -1.28516 7.23995 -1.28516C7.87797 -1.28516 8.49206 -1.20199 9.08223 -1.03564C9.6724 -0.869304 10.2261 -0.632324 10.7434 -0.324707C11.2606 -0.0170898 11.7323 0.348633 12.1584 0.772461C12.5845 1.19629 12.9514 1.66797 13.259 2.1875C13.5666 2.70703 13.8036 3.26074 13.9699 3.84863C14.1363 4.43652 14.2194 5.04948 14.2194 5.6875C14.2194 6.32096 14.1363 6.93278 13.9699 7.52295C13.8036 8.11312 13.5666 8.66797 13.259 9.1875C12.9514 9.70703 12.5857 10.1787 12.1618 10.6025C11.738 11.0264 11.2663 11.3921 10.7468 11.6997C10.2273 12.0073 9.67354 12.2443 9.08565 12.4106C8.49776 12.577 7.88481 12.6602 7.24678 12.6602ZM6.00264 8.32617L9.84444 6.0498C9.94014 5.99512 10.0028 5.92106 10.0324 5.82764C10.0621 5.73421 10.0609 5.64079 10.029 5.54736C9.99711 5.45394 9.93559 5.37988 9.84444 5.3252L6.00264 3.04883C5.90694 2.98958 5.80668 2.96452 5.70186 2.97363C5.59704 2.98275 5.50818 3.01807 5.43526 3.07959C5.36234 3.14111 5.32589 3.22428 5.32589 3.3291V8.03906C5.32589 8.14388 5.36007 8.22933 5.42842 8.29541C5.49678 8.36149 5.58337 8.39795 5.68819 8.40479C5.79301 8.41162 5.89783 8.38542 6.00264 8.32617Z" fill="#1D1D1F"/>
</g>
<defs>
<clipPath id="clip0_1_757">
<rect width="16.71" height="14" fill="white" transform="matrix(1 0 0 -1 0 14)"/>
</clipPath>
</defs>
</svg>
