<svg width="40" height="56" viewBox="0 0 40 56" fill="none" xmlns="http://www.w3.org/2000/svg">
<path d="M20 10.7C23.4216 10.7 26.7664 11.7146 29.6114 13.6156C32.4563 15.5165 34.6737 18.2184 35.9831 21.3796C37.2925 24.5407 37.6351 28.0192 36.9676 31.3751C36.3001 34.7309 34.6524 37.8135 32.233 40.2329C29.8135 42.6524 26.7309 44.3001 23.3751 44.9676C20.0192 45.6351 16.5407 45.2925 13.3796 43.9831C10.2184 42.6737 7.51653 40.4563 5.61558 37.6114C3.71464 34.7664 2.70001 31.4216 2.70001 28C2.7053 23.4134 4.52968 19.0161 7.77291 15.7729C11.0161 12.5297 15.4134 10.7053 20 10.7ZM20 8.5C16.1433 8.5 12.3731 9.64366 9.16639 11.7863C5.95963 13.929 3.46027 16.9745 1.98436 20.5377C0.508449 24.1008 0.122284 28.0216 0.874696 31.8043C1.62711 35.5869 3.4843 39.0615 6.21143 41.7886C8.93855 44.5157 12.4131 46.3729 16.1957 47.1253C19.9784 47.8777 23.8992 47.4916 27.4623 46.0157C31.0255 44.5397 34.071 42.0404 36.2137 38.8336C38.3564 35.6269 39.5 31.8567 39.5 28C39.5 22.8283 37.4455 17.8684 33.7886 14.2114C30.1316 10.5545 25.1717 8.5 20 8.5Z" fill="#6E6E73"/>
<path d="M28 33H12C11.7348 33 11.4804 32.8946 11.2929 32.7071C11.1054 32.5196 11 32.2652 11 32C11 31.7348 11.1054 31.4804 11.2929 31.2929C11.4804 31.1054 11.7348 31 12 31H28C28.2652 31 28.5196 31.1054 28.7071 31.2929C28.8946 31.4804 29 31.7348 29 32C29 32.2652 28.8946 32.5196 28.7071 32.7071C28.5196 32.8946 28.2652 33 28 33Z" fill="#6E6E73"/>
<path d="M31 25H9C8.73478 25 8.48043 24.8946 8.29289 24.7071C8.10536 24.5196 8 24.2652 8 24C8 23.7348 8.10536 23.4804 8.29289 23.2929C8.48043 23.1054 8.73478 23 9 23H31C31.2652 23 31.5196 23.1054 31.7071 23.2929C31.8946 23.4804 32 23.7348 32 24C32 24.2652 31.8946 24.5196 31.7071 24.7071C31.5196 24.8946 31.2652 25 31 25Z" fill="#6E6E73"/>
</svg>
