<svg width="14" height="34" viewBox="0 0 14 34" fill="none" xmlns="http://www.w3.org/2000/svg">
<g clip-path="url(#clip0_4_760)">
<path d="M5.24758 20.1821C5.04993 20.1821 4.86545 20.1031 4.69416 19.945L0.207531 15.4386C0.0691771 15.287 0 15.1157 0 14.9247C0 14.7138 0.0708241 14.5376 0.212472 14.396C0.354121 14.2543 0.527063 14.1835 0.7313 14.1835C0.935538 14.1835 1.11342 14.2593 1.26495 14.4108L5.24758 18.4033L9.2302 14.4108C9.38173 14.2593 9.55961 14.1835 9.76385 14.1835C9.96809 14.1835 10.141 14.2543 10.2827 14.396C10.4243 14.5376 10.4952 14.7138 10.4952 14.9247C10.4952 15.1289 10.426 15.3002 10.2876 15.4386L5.80099 19.945C5.65605 20.1031 5.47158 20.1821 5.24758 20.1821Z" fill="black" fill-opacity="0.8"/>
</g>
<defs>
<clipPath id="clip0_4_760">
<rect width="13.45" height="34" fill="white" transform="matrix(1 0 0 -1 0 34)"/>
</clipPath>
</defs>
</svg>
