<svg width="16" height="16" viewBox="0 0 16 16" fill="none" xmlns="http://www.w3.org/2000/svg">
<path fill-rule="evenodd" clip-rule="evenodd" d="M3.02659 1.33337H5.27992C6.21992 1.33337 6.97325 2.10004 6.97325 3.04071V5.31337C6.97325 6.26004 6.21992 7.02004 5.27992 7.02004H3.02659C2.09325 7.02004 1.33325 6.26004 1.33325 5.31337V3.04071C1.33325 2.10004 2.09325 1.33337 3.02659 1.33337ZM3.02659 8.97983H5.27992C6.21992 8.97983 6.97325 9.7405 6.97325 10.6872V12.9598C6.97325 13.8998 6.21992 14.6665 5.27992 14.6665H3.02659C2.09325 14.6665 1.33325 13.8998 1.33325 12.9598V10.6872C1.33325 9.7405 2.09325 8.97983 3.02659 8.97983ZM12.9734 1.33337H10.72C9.78004 1.33337 9.02671 2.10004 9.02671 3.04071V5.31337C9.02671 6.26004 9.78004 7.02004 10.72 7.02004H12.9734C13.9067 7.02004 14.6667 6.26004 14.6667 5.31337V3.04071C14.6667 2.10004 13.9067 1.33337 12.9734 1.33337ZM10.72 8.97983H12.9734C13.9067 8.97983 14.6667 9.7405 14.6667 10.6872V12.9598C14.6667 13.8998 13.9067 14.6665 12.9734 14.6665H10.72C9.78004 14.6665 9.02671 13.8998 9.02671 12.9598V10.6872C9.02671 9.7405 9.78004 8.97983 10.72 8.97983Z" fill="white"/>
</svg>
