<svg width="32" height="32" viewBox="0 0 32 32" fill="none" xmlns="http://www.w3.org/2000/svg">
<path d="M31.9999 10.0059C31.9999 9.62388 31.9999 9.24185 31.9999 8.85981C31.9999 8.53778 31.9939 8.21575 31.9859 7.89472C31.977 7.19101 31.9152 6.48897 31.8009 5.79453C31.6823 5.09877 31.4605 4.42461 31.1429 3.79435C30.4969 2.52874 29.4665 1.50041 28.1996 0.857079C27.5693 0.539455 26.8951 0.317659 26.1994 0.199018C25.505 0.084774 24.8029 0.0229277 24.0992 0.0140012C23.7772 0.0050004 23.4551 0.00100009 23.1331 0C22.7511 0 22.369 0 21.986 0H10.0059C9.62388 0 9.24185 0 8.85981 0C8.53778 0 8.21575 0.00600049 7.89472 0.0140012C7.19101 0.0229277 6.48897 0.084774 5.79453 0.199018C5.09877 0.3176 4.42461 0.5394 3.79435 0.857079C2.52919 1.50221 1.50092 2.53153 0.857078 3.79735C0.539455 4.42763 0.317659 5.10178 0.199018 5.79753C0.0847708 6.49196 0.022924 7.19401 0.0140013 7.89772C0.00500046 8.21975 0.00100009 8.54178 0 8.86381C0 9.24585 0 9.62788 0 10.0109V23.1921C0 23.4922 0.00600055 23.7982 0.0140013 24.1022C0.0224128 24.8049 0.0835905 25.5059 0.197018 26.1994C0.315601 26.8952 0.537399 27.5693 0.855078 28.1996C1.50073 29.465 2.53079 30.4934 3.79735 31.1369C4.42767 31.4544 5.1018 31.6762 5.79753 31.7949C6.49197 31.9092 7.19401 31.971 7.89772 31.9799C8.21975 31.9889 8.54178 31.9929 8.86381 31.9939C9.24585 31.9939 9.62788 31.9939 10.0109 31.9939H21.996C22.378 31.9939 22.7601 31.9939 23.1421 31.9939C23.4641 31.9939 23.7862 31.9879 24.1072 31.9799C24.8109 31.971 25.513 31.9092 26.2074 31.7949C26.9032 31.6763 27.5773 31.4545 28.2076 31.1369C29.4704 30.4917 30.4968 29.4635 31.1399 28.1996C31.4574 27.5693 31.6792 26.8951 31.7979 26.1994C31.9122 25.505 31.974 24.8029 31.9829 24.0992C31.9919 23.7772 31.9959 23.4551 31.9969 23.1331C31.9969 22.7511 31.9969 22.369 31.9969 21.986L31.9999 10.0059ZM9.8569 10.38C10.2889 9.87794 10.8979 9.56197 11.5571 9.49787C11.6042 10.1684 11.3891 10.8311 10.957 11.346C10.7519 11.604 10.4901 11.8113 10.192 11.9517C9.89384 12.0922 9.56736 12.1621 9.23785 12.1561C9.21772 11.8338 9.26211 11.5106 9.36841 11.2057C9.47471 10.9007 9.64078 10.62 9.8569 10.38ZM13.1692 19.5988C12.6872 20.3079 12.1911 20.9989 11.398 21.0169C10.633 21.0309 10.3779 20.5629 9.49787 20.5629C8.61779 20.5629 8.33576 21.0029 7.6127 21.0309C6.84763 21.0589 6.26657 20.2789 5.78553 19.5708C4.79344 18.1387 4.04237 15.5304 5.06246 13.7703C5.29857 13.3425 5.64248 12.984 6.06004 12.7303C6.47759 12.4766 6.95426 12.3366 7.44268 12.3241C8.19375 12.3101 8.88781 12.8242 9.34286 12.8242C9.7979 12.8242 10.604 12.2241 11.5531 12.2851C11.9695 12.3016 12.3765 12.4138 12.7426 12.6129C13.1087 12.812 13.4241 13.0927 13.6643 13.4332C13.2879 13.6652 12.9762 13.9885 12.7582 14.3732C12.5401 14.7578 12.4228 15.1913 12.4171 15.6334C12.421 16.1308 12.5689 16.6165 12.8429 17.0316C13.117 17.4468 13.5054 17.7736 13.9613 17.9726C13.7768 18.55 13.5101 19.0977 13.1692 19.5988ZM19.1488 14.1363H17.5986V18.6657C17.5986 19.3658 17.9066 19.6898 18.5847 19.6898C18.7703 19.6868 18.9556 19.6737 19.1398 19.6508V20.9299C18.8366 20.9793 18.5298 21.0023 18.2227 20.9989C16.6225 20.9989 15.9985 20.3849 15.9985 18.8287V14.1373H14.8124V12.8662H15.9985V10.94H17.5986V12.8662H19.1488V14.1363ZM24.5682 20.9369H22.8681L20.0078 12.8662H21.699L23.7052 19.3518H23.7432L25.7494 12.8662H27.4115L24.5682 20.9369Z" fill="#1D1D1F"/>
</svg>
