<svg width="40" height="58" viewBox="0 0 40 58" fill="none" xmlns="http://www.w3.org/2000/svg">
<path d="M21.67 36.55L14.33 29.66C14.1603 29.5363 14.0209 29.3757 13.9222 29.1904C13.8235 29.0051 13.768 28.7998 13.76 28.59C13.7507 28.4458 13.7728 28.3013 13.8247 28.1664C13.8766 28.0316 13.9572 27.9096 14.0608 27.8088C14.1644 27.7081 14.2886 27.631 14.4248 27.5829C14.5611 27.5347 14.7061 27.5167 14.85 27.53H17.76C19.97 27.53 21.42 26.69 21.76 25.05H14.56C14.3452 25.05 14.1391 24.9646 13.9872 24.8127C13.8353 24.6608 13.75 24.4548 13.75 24.24C13.75 24.0252 13.8353 23.8191 13.9872 23.6672C14.1391 23.5153 14.3452 23.43 14.56 23.43H21.73C21.59 22.6818 21.1813 22.0106 20.5808 21.5428C19.9804 21.075 19.2297 20.8428 18.47 20.89H14.58C14.3307 20.89 14.0916 20.7909 13.9153 20.6147C13.739 20.4384 13.64 20.1993 13.64 19.95C13.6372 19.8262 13.6597 19.7032 13.7061 19.5885C13.7525 19.4737 13.8218 19.3696 13.9098 19.2826C13.9977 19.1955 14.1026 19.1273 14.2178 19.0822C14.3331 19.037 14.4563 19.0159 14.58 19.02H25.46C25.5678 19.0129 25.6759 19.0285 25.7773 19.066C25.8787 19.1034 25.971 19.1617 26.0484 19.2372C26.1257 19.3126 26.1863 19.4035 26.2262 19.5039C26.2661 19.6043 26.2844 19.712 26.28 19.82C26.2829 19.9275 26.2635 20.0345 26.2231 20.1342C26.1826 20.2339 26.122 20.3242 26.045 20.3993C25.968 20.4745 25.8762 20.5329 25.7756 20.5708C25.6749 20.6088 25.5675 20.6255 25.46 20.62H22.55C23.2992 21.3723 23.7504 22.3706 23.82 23.43H25.56C25.7748 23.43 25.9809 23.5153 26.1328 23.6672C26.2847 23.8191 26.37 24.0252 26.37 24.24C26.37 24.4548 26.2847 24.6608 26.1328 24.8127C25.9809 24.9646 25.7748 25.05 25.56 25.05H23.82C23.47 27.57 21.53 29.41 17.67 29.41H16.85L23.12 35.25C23.2428 35.3496 23.3429 35.4743 23.4136 35.6157C23.4843 35.7571 23.524 35.912 23.53 36.07C23.5301 36.192 23.5056 36.3129 23.458 36.4253C23.4104 36.5377 23.3407 36.6394 23.2529 36.7243C23.1652 36.8092 23.0614 36.8756 22.9475 36.9195C22.8336 36.9634 22.712 36.984 22.59 36.98C22.4144 36.9806 22.2409 36.9424 22.0818 36.868C21.9228 36.7937 21.7821 36.6851 21.67 36.55Z" fill="#6E6E73"/>
<path d="M20 10.7C23.4216 10.7 26.7664 11.7146 29.6114 13.6156C32.4563 15.5165 34.6737 18.2184 35.9831 21.3796C37.2925 24.5407 37.6351 28.0192 36.9676 31.3751C36.3001 34.7309 34.6524 37.8135 32.233 40.2329C29.8135 42.6524 26.7309 44.3001 23.3751 44.9676C20.0192 45.6351 16.5407 45.2925 13.3796 43.9831C10.2184 42.6737 7.51653 40.4563 5.61558 37.6114C3.71464 34.7664 2.70001 31.4216 2.70001 28C2.7053 23.4134 4.52968 19.0161 7.77291 15.7729C11.0161 12.5297 15.4134 10.7053 20 10.7ZM20 8.5C16.1433 8.5 12.3731 9.64366 9.16639 11.7863C5.95963 13.929 3.46027 16.9745 1.98436 20.5377C0.508449 24.1008 0.122284 28.0216 0.874696 31.8043C1.62711 35.5869 3.4843 39.0615 6.21143 41.7886C8.93855 44.5157 12.4131 46.3729 16.1957 47.1253C19.9784 47.8777 23.8992 47.4916 27.4623 46.0157C31.0255 44.5397 34.071 42.0404 36.2137 38.8336C38.3564 35.6269 39.5 31.8567 39.5 28C39.5 22.8283 37.4455 17.8684 33.7886 14.2114C30.1316 10.5545 25.1717 8.5 20 8.5Z" fill="#6E6E73"/>
</svg>
