<svg width="26" height="33" viewBox="0 0 26 33" fill="none" xmlns="http://www.w3.org/2000/svg">
<path d="M22.813 1.50235C19.7776 -0.148624 13.2763 0.00519263 13.2763 0.00519263H12.7533C12.7533 0.00519263 6.25199 -0.169133 3.21667 1.50235C2.18338 2.18273 1.3444 3.11967 0.781797 4.22152C0.21919 5.32337 -0.0477767 6.55238 0.0070137 7.78834V24.5339C0.0070137 24.8313 0.0275231 25.1492 0.068541 25.4465C0.160831 26.9847 0.745336 28.4819 1.72977 29.6714C4.47797 32.7272 9.16426 32.7682 12.9994 32.8093C16.8449 32.7785 21.5209 32.717 24.2691 29.6714C25.2563 28.4746 25.838 26.9952 25.9303 25.4465C25.9713 25.1492 25.9919 24.8415 25.9919 24.5339V7.78834C26.0513 6.55169 25.7863 5.321 25.2233 4.21835C24.6603 3.1157 23.8187 2.1794 22.7822 1.50235H22.8027H22.813ZM13.0199 3.05077H12.7636C9.08223 3.03026 6.12894 2.56881 6.12894 2.01507C6.12894 1.46133 9.08223 0.999877 12.7636 0.979368H13.0199C16.8346 0.979368 19.911 1.45107 19.911 2.02532C19.911 2.59958 16.8346 3.07128 13.0199 3.07128V3.05077ZM18.3625 2.00482C18.3625 2.31245 15.963 2.56881 13.0199 2.56881C10.0769 2.56881 7.67736 2.3227 7.67736 2.00482C7.67736 1.68693 10.0769 1.44082 13.0199 1.44082C15.963 1.44082 18.3625 1.68693 18.3625 2.00482Z" fill="#1D1D1F"/>
</svg>
