<svg width="13" height="22" viewBox="0 0 13 22" fill="none" xmlns="http://www.w3.org/2000/svg">
<path d="M9.5596 21.2202L0.735354 12.5535C0.245118 12.0458 0 11.4943 0 10.899C0 10.2862 0.245118 9.73468 0.735354 9.24444L9.5596 0.577778C9.92727 0.192593 10.3912 0 10.9515 0C11.5118 0 11.9933 0.19697 12.396 0.590909C12.7987 0.984848 13 1.46195 13 2.02222C13 2.6 12.7811 3.09024 12.3434 3.49293L4.7798 10.8727L12.3434 18.2788C12.7811 18.7165 13 19.2155 13 19.7758C13 20.3185 12.7987 20.7912 12.396 21.1939C11.9933 21.5966 11.5118 21.798 10.9515 21.798C10.4088 21.798 9.94478 21.6054 9.5596 21.2202Z" fill="black" fill-opacity="0.56"/>
</svg>
