<svg width="32" height="32" viewBox="0 0 32 32" fill="none" xmlns="http://www.w3.org/2000/svg">
<path d="M25.1429 0H6.8571C3.0857 0 0 3.0857 0 6.8571V25.1428C0 28.9143 3.0857 32 6.8571 32H25.1428C28.9143 32 32 28.9143 32 25.1429V6.8571C32 3.0857 28.9143 0 25.1429 0ZM22.8093 21.6593C22.7319 22.0006 22.5908 22.3216 22.3731 22.6108C22.1562 22.8991 21.8781 23.1354 21.5539 23.3125C21.2258 23.492 20.8815 23.5942 20.514 23.6628C19.8241 23.7916 19.3519 23.8207 18.9084 23.7381C18.4805 23.6584 18.1179 23.4762 17.828 23.23C17.3984 22.865 17.1305 22.3721 17.072 21.8568C17.0035 21.2531 17.2205 20.6081 17.71 20.1329C17.957 19.8931 18.2673 19.7034 18.6814 19.5546C19.1148 19.3988 19.5931 19.3059 20.3283 19.1685C20.522 19.1324 20.7156 19.0962 20.9094 19.06C21.1641 19.0125 21.3825 18.9521 21.5586 18.7528C21.7361 18.552 21.7388 18.3113 21.7388 18.069L21.7389 11.9571C21.7389 11.4897 21.5126 11.3622 21.0308 11.448C20.6863 11.5102 13.2889 12.8921 13.2889 12.8921C12.8716 12.9854 12.725 13.1118 12.725 13.5913L12.7252 22.5468C12.7252 22.8979 12.7054 23.2095 12.6256 23.5612C12.5482 23.9026 12.4071 24.2236 12.1894 24.5127C11.9725 24.801 11.6943 25.0372 11.3702 25.2144C11.0421 25.3939 10.6978 25.5012 10.3303 25.5698C9.6403 25.6987 9.1682 25.7278 8.7246 25.6451C8.2968 25.5654 7.9341 25.3781 7.6443 25.1319C7.2147 24.7669 6.9644 24.274 6.9059 23.7587C6.8373 23.155 7.0368 22.51 7.5264 22.0348C7.7733 21.7951 8.0835 21.6053 8.4977 21.4565C8.9312 21.3007 9.4095 21.2078 10.1446 21.0704C10.3383 21.0343 10.532 20.9981 10.7257 20.9619C10.9804 20.9143 11.1989 20.8539 11.3749 20.6546C11.551 20.4552 11.5713 20.2163 11.5713 19.9755C11.5713 18.0805 11.5713 9.662 11.5713 9.662C11.5713 9.523 11.5843 9.4305 11.592 9.384C11.6275 9.1669 11.7216 8.9808 11.8913 8.8488C12.0323 8.7391 12.2138 8.6635 12.4461 8.6178L12.4495 8.6171L21.3487 6.9541C21.4258 6.9395 22.0691 6.8337 22.1414 6.8279C22.6224 6.7894 22.8925 7.0819 22.8925 7.5568L22.8928 20.6402C22.8929 20.9913 22.889 21.3075 22.8093 21.6593Z" fill="#F5F5F7"/>
</svg>
