<svg width="13" height="18" viewBox="0 0 13 18" fill="none" xmlns="http://www.w3.org/2000/svg">
<path d="M8.04715 17.5686L0.691685 10.6641C0.52167 10.5401 0.381953 10.3792 0.283023 10.1935C0.184093 10.0078 0.128523 9.8021 0.120484 9.59183C0.111181 9.44733 0.133306 9.30252 0.185337 9.16738C0.237367 9.03224 0.318067 8.90999 0.421879 8.80904C0.525691 8.70808 0.65015 8.63082 0.786685 8.58258C0.923221 8.53434 1.06859 8.51627 1.21278 8.5296H4.12891C6.34357 8.5296 7.79662 7.68783 8.13734 6.04437H0.92217C0.706892 6.04437 0.500431 5.95886 0.348206 5.80663C0.195982 5.65441 0.110463 5.44795 0.110463 5.23267C0.110463 5.01739 0.195982 4.81093 0.348206 4.65871C0.500431 4.50648 0.706892 4.42096 0.92217 4.42096H8.10727C7.96694 3.67122 7.55738 2.99864 6.95569 2.52984C6.35401 2.06104 5.6017 1.82836 4.84041 1.87561H0.942211C0.692383 1.87561 0.452786 1.77637 0.276131 1.59971C0.099475 1.42306 0.000231494 1.18346 0.000231494 0.933631C-0.002563 0.809628 0.0199683 0.686357 0.0664479 0.57136C0.112928 0.456363 0.182378 0.352058 0.270551 0.264823C0.358725 0.177587 0.463767 0.109256 0.579254 0.0640087C0.694741 0.0187616 0.818245 -0.00244913 0.942211 0.0016714H11.8451C11.9532 -0.00545141 12.0615 0.0102448 12.1631 0.0477411C12.2647 0.0852374 12.3572 0.143694 12.4347 0.219309C12.5122 0.294924 12.573 0.386005 12.613 0.486629C12.6529 0.587253 12.6713 0.695167 12.6669 0.803356C12.6698 0.911139 12.6503 1.01836 12.6098 1.11827C12.5693 1.21818 12.5085 1.30863 12.4313 1.38393C12.3542 1.45922 12.2622 1.51774 12.1614 1.55579C12.0605 1.59384 11.9528 1.61061 11.8451 1.60504H8.929C9.67978 2.3589 10.1319 3.35931 10.2017 4.42096H11.9453C12.1606 4.42096 12.3671 4.50648 12.5193 4.65871C12.6715 4.81093 12.7571 5.01739 12.7571 5.23267C12.7571 5.44795 12.6715 5.65441 12.5193 5.80663C12.3671 5.95886 12.1606 6.04437 11.9453 6.04437H10.2017C9.85094 8.56968 7.90685 10.4136 4.03872 10.4136H3.21699L9.5002 16.2659C9.62326 16.3657 9.72358 16.4906 9.79443 16.6323C9.86529 16.774 9.90506 16.9293 9.91107 17.0876C9.91113 17.2099 9.88659 17.331 9.83889 17.4437C9.79119 17.5563 9.72132 17.6582 9.63343 17.7433C9.54554 17.8284 9.44143 17.8949 9.3273 17.9389C9.21317 17.9829 9.09135 18.0035 8.96909 17.9995C8.79314 18.0001 8.61924 17.9618 8.45984 17.8873C8.30045 17.8128 8.15952 17.704 8.04715 17.5686Z" fill="#6E6E73"/>
</svg>
