<svg width="17" height="18" viewBox="0 0 17 18" fill="none" xmlns="http://www.w3.org/2000/svg">
<g clip-path="url(#clip0_1_1049)">
<path d="M0.235492 12.5068L5.41225 7.33008L0.235492 2.15332C0.0831487 1.99512 0.00551203 1.80029 0.00258234 1.56885C-0.000347346 1.3374 0.0772894 1.13965 0.235492 0.975586C0.399555 0.817383 0.597309 0.739746 0.828754 0.742676C1.0602 0.745605 1.25502 0.823242 1.41323 0.975586L6.58998 6.15234L11.7667 0.975586C11.9249 0.817383 12.1198 0.738281 12.3512 0.738281C12.5827 0.738281 12.7804 0.817383 12.9445 0.975586C13.1027 1.13965 13.1818 1.3374 13.1818 1.56885C13.1818 1.80029 13.1027 1.99512 12.9445 2.15332L7.76772 7.33008L12.9445 12.5068C13.1027 12.665 13.1818 12.8599 13.1818 13.0913C13.1818 13.3228 13.1027 13.5205 12.9445 13.6846C12.7804 13.8428 12.5827 13.9219 12.3512 13.9219C12.1198 13.9219 11.9249 13.8428 11.7667 13.6846L6.58998 8.50781L1.41323 13.6846C1.25502 13.8369 1.0602 13.9146 0.828754 13.9175C0.597309 13.9204 0.399555 13.8428 0.235492 13.6846C0.0772894 13.5205 -0.000347346 13.3228 0.00258234 13.0913C0.00551203 12.8599 0.0831487 12.665 0.235492 12.5068Z" fill="#86868B"/>
</g>
<defs>
<clipPath id="clip0_1_1049">
<rect width="16.88" height="18" fill="white" transform="matrix(1 0 0 -1 0 18)"/>
</clipPath>
</defs>
</svg>
