<svg width="14" height="14" viewBox="0 0 14 14" fill="none" xmlns="http://www.w3.org/2000/svg">
<path fill-rule="evenodd" clip-rule="evenodd" d="M4.47407 1.16623H9.53157C11.5091 1.16623 12.8332 2.55456 12.8332 4.61956V9.38598C12.8332 11.4451 11.5091 12.8329 9.53157 12.8329H4.47407C2.49656 12.8329 1.16656 11.4451 1.16656 9.38598V4.61956C1.16656 2.55456 2.49656 1.16623 4.47407 1.16623ZM6.99411 5.28513C6.71995 5.28513 6.49245 5.05705 6.49245 4.77763C6.49245 4.4918 6.71995 4.2643 7.00578 4.2643C7.28578 4.2643 7.51328 4.4918 7.51328 4.77763C7.51328 5.05705 7.28578 5.28513 6.99411 5.28513ZM7.50735 9.20516C7.50735 9.48516 7.27985 9.71266 6.99402 9.71266C6.71402 9.71266 6.48652 9.48516 6.48652 9.20516V6.62683C6.48652 6.34625 6.71402 6.1135 6.99402 6.1135C7.27985 6.1135 7.50735 6.34625 7.50735 6.62683V9.20516Z" fill="#33DEE9"/>
</svg>
