<svg width="9" height="19" viewBox="0 0 9 19" fill="none" xmlns="http://www.w3.org/2000/svg">
<g clip-path="url(#clip0_4_35)">
<path d="M0.694672 14.4368C0.503251 14.4368 0.339617 14.3704 0.20377 14.2376C0.0679234 14.1049 0 13.9428 0 13.7514C0 13.5599 0.0710109 13.3932 0.213033 13.2512L3.955 9.51849L0.213033 5.78579C0.0710109 5.64377 0 5.47705 0 5.28563C0 5.09421 0.0679234 4.93212 0.20377 4.79936C0.339617 4.6666 0.503251 4.60022 0.694672 4.60022C0.873742 4.60022 1.03429 4.66505 1.17631 4.79473L5.39991 8.9998C5.54811 9.13565 5.62221 9.30855 5.62221 9.51849C5.62221 9.71609 5.54811 9.88898 5.39991 10.0372L1.17631 14.2423C1.04664 14.3719 0.886092 14.4368 0.694672 14.4368Z" fill="#2997FF"/>
</g>
<defs>
<clipPath id="clip0_4_35">
<rect width="8.61" height="19" fill="white" transform="matrix(1 0 0 -1 0 19)"/>
</clipPath>
</defs>
</svg>
