<svg width="13" height="17" viewBox="0 0 13 17" fill="none" xmlns="http://www.w3.org/2000/svg">
<g opacity="0.8" clip-path="url(#clip0_1_3674)">
<path d="M0.737045 13.9834C0.526461 13.9834 0.350974 13.9132 0.210584 13.7728C0.0701948 13.6324 0 13.4569 0 13.2464C0 13.1384 0.0188986 13.0398 0.0566958 12.9507C0.0944929 12.8616 0.145789 12.782 0.210584 12.7118L6.10694 6.94502L0.210584 1.17825C0.0701948 1.02707 0 0.851578 0 0.651793C0 0.441209 0.0701948 0.265721 0.210584 0.125332C0.350974 -0.0150576 0.526461 -0.0852518 0.737045 -0.0852518C0.93683 -0.0852518 1.11502 -0.0123577 1.27161 0.133431L7.68633 6.40236C7.84292 6.54275 7.92121 6.72364 7.92121 6.94502C7.92121 7.15021 7.84022 7.33379 7.67823 7.49578L1.26351 13.7647C1.11772 13.9105 0.94223 13.9834 0.737045 13.9834Z" fill="#1D1D1F"/>
</g>
<defs>
<clipPath id="clip0_1_3674">
<rect width="12.06" height="17" fill="white" transform="matrix(1 0 0 -1 0 17)"/>
</clipPath>
</defs>
</svg>
