<svg width="35" height="35" viewBox="0 0 35 35" fill="none" xmlns="http://www.w3.org/2000/svg">
<g clip-path="url(#clip0_1_1668)">
<path d="M17.5 32.2171C17.2971 32.2191 17.0973 32.1668 16.9214 32.0655C16.7455 31.9642 16.6 31.8176 16.5 31.6411L14.688 29.1161C14.635 29.0291 14.588 29.0001 14.532 29.0001H10.5C9.30653 29.0001 8.16193 28.526 7.31802 27.682C6.47411 26.8381 6 25.6935 6 24.5001V10.5181C6 9.32459 6.47411 8.18 7.31802 7.33609C8.16193 6.49217 9.30653 6.01807 10.5 6.01807H24.5C25.6935 6.01807 26.8381 6.49217 27.682 7.33609C28.5259 8.18 29 9.32459 29 10.5181V24.5001C29 25.6935 28.5259 26.8381 27.682 27.682C26.8381 28.526 25.6935 29.0001 24.5 29.0001H20.464C20.4379 29 20.4122 29.0068 20.3896 29.0198C20.367 29.0328 20.3481 29.0515 20.335 29.0741L18.468 31.6831C18.3675 31.849 18.2252 31.9857 18.0554 32.0794C17.8855 32.1731 17.694 32.2206 17.5 32.2171ZM10.5 7.00007C9.57017 7.00509 8.68013 7.37792 8.02432 8.0371C7.36851 8.69628 7.00025 9.58822 7 10.5181V24.5001C7 25.4283 7.36875 26.3186 8.02513 26.9749C8.6815 27.6313 9.57174 28.0001 10.5 28.0001H14.536C14.7386 27.9996 14.9378 28.0525 15.1134 28.1537C15.289 28.2548 15.4348 28.4005 15.536 28.5761L17.344 31.1001C17.472 31.3131 17.555 31.2701 17.628 31.1421L19.496 28.5321C19.598 28.3676 19.7406 28.2323 19.9102 28.1391C20.0798 28.0459 20.2705 27.998 20.464 28.0001H24.5C25.4283 28.0001 26.3185 27.6313 26.9749 26.9749C27.6313 26.3186 28 25.4283 28 24.5001V10.5181C27.9998 9.58822 27.6315 8.69628 26.9757 8.0371C26.3199 7.37792 25.4298 7.00509 24.5 7.00007H10.5Z" fill="black"/>
<path d="M21.35 14.6351C21.0229 14.843 20.753 15.1294 20.5647 15.4682C20.3764 15.807 20.2758 16.1875 20.272 16.5751C20.2699 17.0123 20.3973 17.4404 20.638 17.8054C20.8788 18.1704 21.2222 18.4559 21.625 18.6261C21.4777 19.1433 21.2434 19.6316 20.932 20.0701C20.503 20.6871 20.032 21.3161 19.348 21.3161C18.664 21.3161 18.49 20.9081 17.687 20.9081C16.917 20.9081 16.642 21.3271 16.015 21.3271C15.388 21.3271 14.937 20.7541 14.431 20.0371C13.7668 19.0391 13.4005 17.8726 13.375 16.6741C13.3333 16.307 13.3669 15.9354 13.4736 15.5817C13.5804 15.228 13.758 14.8999 13.9958 14.6172C14.2336 14.3344 14.5265 14.1032 14.8566 13.9374C15.1868 13.7717 15.5472 13.6749 15.916 13.6531C16.598 13.6531 17.148 14.0941 17.566 14.0941C17.984 14.0941 18.589 13.6311 19.348 13.6311C19.7389 13.6185 20.1268 13.7037 20.4764 13.879C20.826 14.0543 21.1263 14.3142 21.35 14.6351ZM17.621 13.5211C17.566 13.5211 17.521 13.5101 17.478 13.5101C17.478 13.4771 17.467 13.4001 17.467 13.3231C17.4931 12.8136 17.6908 12.3279 18.028 11.9451C18.4013 11.5013 18.9353 11.2237 19.513 11.1731C19.5229 11.2393 19.5266 11.3062 19.524 11.3731C19.5125 11.8919 19.3281 12.392 19 12.7941C18.8318 13.0028 18.6227 13.175 18.3856 13.3C18.1485 13.4251 17.8883 13.5003 17.621 13.5211Z" fill="black"/>
</g>
<defs>
<clipPath id="clip0_1_1668">
<rect width="35" height="35" fill="white"/>
</clipPath>
</defs>
</svg>
