<svg width="24" height="24" viewBox="0 0 24 24" fill="none" xmlns="http://www.w3.org/2000/svg">
<g opacity="0.2" clip-path="url(#clip0_634_1357)">
<path d="M15.1014 2.05577C14.9318 1.65475 14.6892 1.29483 14.3804 0.986041C14.0715 0.677256 13.7116 0.434628 13.3106 0.26502C12.8949 0.0891766 12.4539 0 11.9999 0C11.5459 0 11.1049 0.0891766 10.6892 0.26502C10.2882 0.434667 9.92829 0.677217 9.61947 0.986041C9.31068 1.29483 9.06806 1.65479 8.89845 2.05577C8.7226 2.47153 8.63343 2.91251 8.63343 3.36648V14.7332C8.13888 15.1479 7.72123 15.6528 7.40849 16.2178C6.98084 16.9903 6.75476 17.8676 6.75476 18.7549C6.75476 19.4625 6.89358 20.1495 7.16743 20.7969C7.43166 21.4216 7.8097 21.9824 8.29104 22.4638C8.77237 22.9451 9.33323 23.3232 9.95794 23.5874C10.6053 23.8612 11.2923 24.0001 11.9999 24.0001C12.7075 24.0001 13.3946 23.8613 14.0419 23.5874C14.6666 23.3232 15.2275 22.9451 15.7088 22.4638C16.1902 21.9824 16.5683 21.4216 16.8324 20.7969C17.1063 20.1496 17.2451 19.4625 17.2451 18.7549C17.2451 17.8676 17.0191 16.9903 16.5914 16.2178C16.2786 15.6528 15.861 15.1479 15.3664 14.7332V3.36648C15.3664 2.91251 15.2772 2.47149 15.1014 2.05577ZM16.138 18.7549C16.138 21.0403 14.2853 22.8929 11.9999 22.8929C9.71449 22.8929 7.86182 21.0403 7.86182 18.7549C7.86182 17.3032 8.60947 16.0264 9.74049 15.2878V3.36648C9.74049 2.11863 10.7521 1.1071 11.9999 1.1071C13.2477 1.1071 14.2592 2.11867 14.2592 3.36648V3.53306H12.2705C11.9648 3.53306 11.717 3.78091 11.717 4.08659C11.717 4.39228 11.9648 4.64012 12.2705 4.64012H14.2593V5.74722H12.2705C11.9648 5.74722 11.717 5.99507 11.717 6.30076C11.717 6.60644 11.9648 6.85429 12.2705 6.85429H14.2593V7.96138H12.2705C11.9648 7.96138 11.717 8.20923 11.717 8.51492C11.717 8.8206 11.9648 9.06845 12.2705 9.06845H14.2593V15.2877C15.3904 16.0264 16.138 17.3032 16.138 18.7549Z" fill="#292929"/>
<path d="M13.7885 16.0087L13.3982 15.7539V15.2878V11.2925C13.3982 10.5214 12.7709 9.89415 11.9999 9.89415C11.2289 9.89415 10.6016 10.5214 10.6016 11.2925V15.2878V15.7539L10.2113 16.0087C9.27929 16.6173 8.7229 17.6439 8.7229 18.7548C8.7229 19.6301 9.06376 20.453 9.68271 21.072C10.3016 21.6909 11.1246 22.0318 11.9999 22.0318C12.8752 22.0318 13.6981 21.6909 14.3171 21.072C14.936 20.453 15.2769 19.6301 15.2769 18.7548C15.2769 17.6439 14.7205 16.6174 13.7885 16.0087Z" fill="#292929"/>
</g>
<defs>
<clipPath id="clip0_634_1357">
<rect width="24" height="24" fill="white"/>
</clipPath>
</defs>
</svg>
