<svg width="47" height="33" viewBox="0 0 47 33" fill="none" xmlns="http://www.w3.org/2000/svg">
<path d="M46.0547 16.1719C45.3946 14.947 44.4956 13.8668 43.4109 12.9952C42.2362 12.0544 40.9059 11.3264 39.4801 10.8441C38.075 10.3635 36.6024 10.109 35.1174 10.0902C34.9767 10.0801 34.8359 10.0801 34.6851 10.0801C34.082 10.0801 32.9989 10.1102 32.4259 10.1807C31.3953 10.2862 30.3802 10.5088 29.4001 10.8442C27.9753 11.3287 26.6454 12.0565 25.4693 12.9953C24.3846 13.8669 23.4856 14.947 22.8255 16.172C22.1637 17.4366 21.8323 18.8481 21.8622 20.2752C21.8921 21.7022 22.2822 23.0986 22.9963 24.3345C23.3359 24.9034 23.7335 25.4356 24.1825 25.9228C24.6899 26.4873 25.2561 26.9962 25.8714 27.4407L26.0824 27.5914C27.427 28.5016 28.921 29.1684 30.4964 29.5616C31.9069 29.8841 33.3493 30.046 34.7962 30.0441C35.1983 30.0441 35.6105 30.0341 36.0227 30.0041H36.2036C36.9204 30.4752 37.6657 30.9016 38.4352 31.2806C39.1285 31.6257 39.8437 31.9246 40.5764 32.1753C41.0856 32.3666 41.6212 32.4785 42.1645 32.507C42.4468 32.5246 42.7247 32.4307 42.9385 32.2456C43.0342 32.1646 43.1121 32.0648 43.1674 31.9524C43.2228 31.84 43.2543 31.7174 43.2602 31.5922C43.2633 31.3056 43.1634 31.0273 42.9786 30.8081C42.7576 30.5468 42.4961 30.2049 42.1745 29.7827C41.8803 29.4 41.6085 29.0005 41.3602 28.5865C41.3402 28.5565 41.4002 28.4257 41.4302 28.4157C43.0608 27.6249 44.457 26.4226 45.481 24.9275C46.472 23.5063 47.0022 21.8148 46.9996 20.0822C47.0104 18.721 46.6859 17.378 46.0547 16.1719ZM43.8231 23.8016C42.9914 25.0141 41.8539 25.9852 40.5259 26.6163C40.2637 26.7513 40.032 26.9388 39.8453 27.167C39.6585 27.3953 39.5207 27.6594 39.4402 27.9432C39.3547 28.2134 39.3257 28.4983 39.3551 28.7802C39.3845 29.0621 39.4717 29.335 39.6112 29.5817C39.6212 29.6017 39.6312 29.6117 39.6412 29.6317C39.5312 29.5817 39.42 29.5317 39.2994 29.4709C38.6026 29.1279 37.9278 28.7417 37.279 28.3147C36.9078 28.0875 36.4775 27.9756 36.0426 27.9932H35.8716C35.5098 28.0232 35.1479 28.0332 34.796 28.0332C33.5183 28.038 32.2442 27.8963 30.9988 27.611C29.9565 27.3464 28.9529 26.9477 28.0132 26.4248C27.7418 26.2739 27.4704 26.1031 27.219 25.9322C26.8538 25.6879 26.5108 25.4121 26.1937 25.1079C25.6184 24.5838 25.1238 23.9774 24.726 23.3085C24.1892 22.3712 23.8959 21.3142 23.873 20.2343C23.8502 19.1544 24.0985 18.086 24.5952 17.1268C25.1322 16.1332 25.8639 15.258 26.7466 14.5534C27.7358 13.7632 28.8549 13.1509 30.0538 12.744C31.0722 12.4046 32.1294 12.1952 33.2002 12.1207C33.5219 12.1006 34.3537 12.0906 34.6854 12.0906C35.0474 12.0906 35.4092 12.1006 35.7711 12.1307C36.8114 12.2066 37.838 12.4126 38.827 12.7439C40.0281 13.153 41.1501 13.7651 42.1444 14.5534C43.0185 15.2573 43.7431 16.1288 44.2755 17.1167C44.756 18.0306 45.0013 19.0498 44.9891 20.0822C44.9911 21.4122 44.584 22.7107 43.8231 23.8016ZM30.3964 4.17228C28.7243 2.82963 26.829 1.7918 24.7972 1.10628C22.462 0.359651 20.0235 -0.0135179 17.5719 0.000558992C15.2442 -0.0165059 12.9302 0.35726 10.7263 1.10628C8.69345 1.78959 6.79776 2.82763 5.12707 4.17228C3.57428 5.41037 2.29139 6.95324 1.35743 8.70588C0.451487 10.4215 -0.0147896 12.335 0.000357597 14.275C-0.00729257 16.9034 0.743087 19.4783 2.16158 21.6911C3.64503 23.8436 5.66057 25.5752 8.01194 26.7173C8.03165 26.727 8.04684 26.7439 8.0543 26.7645C8.06177 26.7851 8.06092 26.8078 8.05195 26.8279C7.69989 27.4465 7.30694 28.0409 6.87571 28.6072C6.42343 29.2103 6.05145 29.7028 5.73979 30.0748C5.47192 30.3839 5.32863 30.7817 5.33781 31.1906C5.36144 31.5492 5.52364 31.8844 5.7901 32.1255C6.10012 32.3888 6.49992 32.5221 6.90592 32.4975C7.67675 32.46 8.43677 32.3005 9.15766 32.025C10.2054 31.664 11.2294 31.2376 12.2237 30.7483C13.3269 30.2219 14.3947 29.6242 15.4203 28.959C15.482 28.9249 15.5458 28.8949 15.6113 28.869C16.2748 28.919 16.9282 28.949 17.5717 28.949C19.4767 28.9547 21.3757 28.7354 23.2291 28.2955C23.3599 28.2655 23.4805 28.2255 23.6011 28.195C23.0247 27.6843 22.4996 27.1185 22.0331 26.5058C20.5644 26.7992 19.0699 26.944 17.5722 26.9381C16.9892 26.9381 16.3861 26.9081 15.7628 26.8681L15.6928 26.8581H15.6127C15.1564 26.8697 14.7131 27.0128 14.3361 27.2701C13.3771 27.8889 12.3799 28.4462 11.3505 28.9389C10.4302 29.3907 9.48357 29.7868 8.51574 30.1251C8.39511 30.1651 8.28449 30.2051 8.17397 30.2356C8.27449 30.105 8.38501 29.9643 8.49563 29.8134C8.96941 29.1758 9.40576 28.5113 9.80249 27.8231C9.94204 27.5758 10.0299 27.3027 10.0609 27.0205C10.0918 26.7382 10.0651 26.4526 9.98234 26.181C9.89963 25.9094 9.76263 25.6574 9.57964 25.4402C9.39666 25.2231 9.17151 25.0454 8.91782 24.9179C6.87306 23.9288 5.12031 22.4255 3.83131 20.5552C2.63491 18.6796 2.00296 16.4996 2.01075 14.275C1.99315 12.6617 2.37657 11.0693 3.12657 9.64086C3.93957 8.12954 5.05101 6.79907 6.39352 5.73009C7.8825 4.53602 9.57037 3.61385 11.3796 3.00595C13.3733 2.3294 15.4666 1.99297 17.5718 2.01076C19.798 1.99439 22.0128 2.33027 24.134 3.00595C25.9442 3.61163 27.6324 4.534 29.12 5.73009C29.8837 6.34644 30.5779 7.0442 31.1904 7.811C31.9514 7.67883 32.7205 7.59822 33.4924 7.56975C32.6446 6.28214 31.5999 5.13568 30.3964 4.17228Z" fill="#6E6E73"/>
</svg>
