<svg width="24" height="24" viewBox="0 0 24 24" fill="none" xmlns="http://www.w3.org/2000/svg">
<path d="M1.24349 14.2318C0.890754 10.435 2.51235 6.99588 5.20194 4.8109C6.25035 3.95846 7.81805 4.68842 7.81805 6.03567C7.81805 6.53047 7.5829 6.98609 7.20077 7.29473C5.29503 8.84774 4.14864 11.2973 4.42789 14.0016C4.79042 17.524 7.61229 20.3753 11.1298 20.7672C15.7203 21.2816 19.6199 17.6857 19.6199 13.1981C19.6199 10.8172 18.5176 8.68607 16.7981 7.28983C16.4159 6.98119 16.1857 6.52557 16.1857 6.03567C16.1857 4.70312 17.7289 3.94866 18.7675 4.7815C21.2268 6.76563 22.8043 9.79816 22.8043 13.1981C22.8043 19.4151 17.5231 24.4268 11.2082 23.9712C5.9858 23.6038 1.7285 19.4444 1.24349 14.2318ZM11.997 0C11.1151 0 10.4048 0.715266 10.4048 1.5922V8.92612C10.4048 9.80796 11.12 10.5183 11.997 10.5183C12.8739 10.5183 13.5892 9.80306 13.5892 8.92612V1.5922C13.5892 0.715266 12.8788 0 11.997 0Z" fill="white"/>
</svg>
