<svg width="12" height="17" viewBox="0 0 12 17" fill="none" xmlns="http://www.w3.org/2000/svg">
<g clip-path="url(#clip0_1_3435)">
<path d="M8.94177 10.8242C8.94177 11.0234 8.87398 11.1881 8.7384 11.3181C8.60282 11.4482 8.44649 11.5132 8.26941 11.5132C8.09233 11.5132 7.93876 11.4454 7.80872 11.3098C7.67867 11.1742 7.61365 11.0207 7.61365 10.8491V9.20557L7.75476 6.02637L6.69226 7.25488L1.14734 12.7998C1.01453 12.9326 0.859578 12.999 0.682495 12.999C0.499878 12.999 0.34078 12.9285 0.2052 12.7874C0.0696208 12.6462 0.00183105 12.4899 0.00183105 12.3184C0.00183105 12.1468 0.0710042 11.9919 0.209351 11.8535L5.74597 6.30029L6.96619 5.25439L3.76208 5.38721H2.15173C1.98018 5.38721 1.828 5.32218 1.69519 5.19214C1.56238 5.06209 1.49597 4.9113 1.49597 4.73975C1.49597 4.56266 1.55823 4.40771 1.68274 4.2749C1.80725 4.14209 1.97188 4.07568 2.17664 4.07568L8.22791 4.05908C8.44926 4.05908 8.62358 4.1241 8.75085 4.25415C8.87813 4.3842 8.94177 4.55436 8.94177 4.76465V10.8242Z" fill="#2997FF"/>
</g>
<defs>
<clipPath id="clip0_1_3435">
<rect width="11.89" height="17" fill="white" transform="matrix(1 0 0 -1 0 17)"/>
</clipPath>
</defs>
</svg>
