<svg width="24" height="24" viewBox="0 0 24 24" fill="none" xmlns="http://www.w3.org/2000/svg">
<g opacity="0.2" clip-path="url(#clip0_634_1435)">
<path d="M15.1015 2.05577C14.9319 1.65475 14.6893 1.29483 14.3805 0.986041C14.0717 0.677256 13.7117 0.434628 13.3108 0.26502C12.895 0.0891766 12.454 0 12 0C11.546 0 11.105 0.0891766 10.6893 0.26502C10.2883 0.434667 9.92841 0.677217 9.61959 0.986041C9.3108 1.29483 9.06818 1.65479 8.89857 2.05577C8.72273 2.47153 8.63355 2.91251 8.63355 3.36648V14.7332C8.139 15.1479 7.72135 15.6528 7.40861 16.2178C6.98096 16.9903 6.75488 17.8676 6.75488 18.7549C6.75488 19.4625 6.89371 20.1495 7.16755 20.7969C7.43178 21.4216 7.80982 21.9824 8.29116 22.4638C8.77249 22.9451 9.33335 23.3232 9.95806 23.5874C10.6054 23.8612 11.2925 24.0001 12.0001 24.0001C12.7077 24.0001 13.3947 23.8613 14.0421 23.5874C14.6668 23.3232 15.2276 22.9451 15.709 22.4638C16.1903 21.9824 16.5684 21.4216 16.8326 20.7969C17.1064 20.1496 17.2452 19.4625 17.2452 18.7549C17.2452 17.8676 17.0192 16.9903 16.5915 16.2178C16.2787 15.6528 15.8611 15.1479 15.3666 14.7332V3.36648C15.3665 2.91251 15.2774 2.47149 15.1015 2.05577ZM16.1381 18.7549C16.1381 21.0403 14.2854 22.8929 12 22.8929C9.71461 22.8929 7.86194 21.0403 7.86194 18.7549C7.86194 17.3032 8.60959 16.0264 9.74061 15.2878V3.36648C9.74061 2.11863 10.7522 1.1071 12 1.1071C13.2478 1.1071 14.2594 2.11867 14.2594 3.36648V3.53306H12.2706C11.965 3.53306 11.7171 3.78091 11.7171 4.08659C11.7171 4.39228 11.965 4.64012 12.2706 4.64012H14.2594V5.74722H12.2706C11.965 5.74722 11.7171 5.99507 11.7171 6.30076C11.7171 6.60644 11.965 6.85429 12.2706 6.85429H14.2594V7.96138H12.2706C11.965 7.96138 11.7171 8.20923 11.7171 8.51492C11.7171 8.8206 11.965 9.06845 12.2706 9.06845H14.2594V15.2877C15.3905 16.0264 16.1381 17.3032 16.1381 18.7549Z" fill="#292929"/>
<path d="M13.7887 16.0087L13.3984 15.7539V15.2878V11.2925C13.3984 10.5214 12.7712 9.89415 12.0001 9.89415C11.2291 9.89415 10.6018 10.5214 10.6018 11.2925V15.2878V15.7539L10.2115 16.0087C9.27954 16.6173 8.72314 17.6439 8.72314 18.7548C8.72314 19.6301 9.06401 20.453 9.68295 21.072C10.3019 21.6909 11.1248 22.0318 12.0001 22.0318C12.8754 22.0318 13.6984 21.6909 14.3173 21.072C14.9363 20.453 15.2771 19.6301 15.2771 18.7548C15.2772 17.6439 14.7207 16.6174 13.7887 16.0087Z" fill="#292929"/>
</g>
<defs>
<clipPath id="clip0_634_1435">
<rect width="24" height="24" fill="white"/>
</clipPath>
</defs>
</svg>
