<svg width="13" height="15" viewBox="0 0 13 15" fill="none" xmlns="http://www.w3.org/2000/svg">
<path d="M3.02028 14.7176C2.76775 14.5559 2.50512 14.3236 2.24248 14.0004C2.06066 13.7882 1.83843 13.4852 1.5758 13.0913C1.12124 12.4347 0.747494 11.6771 0.464659 10.8185C0.151519 9.87905 0 8.98003 0 8.10122C0 7.1214 0.212127 6.26279 0.626279 5.5456C0.94952 4.96983 1.38387 4.51527 1.93945 4.18193C2.49502 3.83849 3.08089 3.66676 3.71727 3.65666C3.9395 3.65666 4.17183 3.68697 4.42436 3.74757C4.60618 3.79808 4.82841 3.87889 5.09104 3.9799C5.43449 4.11122 5.62641 4.19203 5.68702 4.21223C5.88904 4.28294 6.06077 4.31324 6.19208 4.31324C6.29309 4.31324 6.43451 4.28294 6.59613 4.23243C6.68704 4.20213 6.85877 4.14152 7.1012 4.04051C7.34363 3.9496 7.53555 3.87889 7.68707 3.81828C7.9194 3.74757 8.14163 3.68697 8.34365 3.65666C8.58608 3.61626 8.82852 3.60616 9.06084 3.62636C9.5053 3.65666 9.90935 3.74757 10.273 3.88899C10.9094 4.14152 11.4245 4.54557 11.8084 5.11125C11.6468 5.21226 11.4953 5.32337 11.3538 5.45469C11.0407 5.73752 10.7781 6.05066 10.5861 6.39411C10.3134 6.87897 10.1821 7.41434 10.1821 7.96991C10.1922 8.64669 10.3639 9.24267 10.7074 9.75783C10.9498 10.1316 11.273 10.4548 11.667 10.7175C11.8589 10.8488 12.0306 10.9397 12.1922 11.0003C12.1114 11.2629 12.0205 11.4953 11.9397 11.6872C11.7175 12.2124 11.4548 12.6872 11.1619 13.1317C10.8892 13.5256 10.677 13.8185 10.5154 14.0105C10.2629 14.3135 10.0205 14.5357 9.77804 14.6974C9.4952 14.8792 9.19216 14.9701 8.86892 14.9701C8.64669 14.9802 8.43457 14.9499 8.22244 14.8893C8.10122 14.8489 7.9194 14.7883 7.68707 14.6873C7.45474 14.5862 7.26282 14.5155 7.1214 14.4751C6.88907 14.4145 6.64664 14.3842 6.39411 14.3842C6.14158 14.3842 5.89914 14.4145 5.66682 14.4751C5.5052 14.5155 5.32337 14.5862 5.10114 14.6772C4.83851 14.7883 4.66679 14.859 4.56578 14.8893C4.36375 14.9499 4.15162 14.9903 3.9496 15.0004C3.62636 15.0004 3.32332 14.9095 3.02028 14.7176ZM7.30322 3.1819C6.87897 3.39403 6.47492 3.48494 6.07087 3.45464C6.01026 3.05059 6.07087 2.63643 6.24259 2.18188C6.39411 1.79803 6.59613 1.44448 6.86887 1.13134C7.1416 0.818203 7.47494 0.55557 7.8891 0.343443C8.30325 0.131317 8.6972 0.0202026 9.07095 0C9.12145 0.424254 9.07095 0.848507 8.91943 1.29296C8.77801 1.69701 8.56588 2.06066 8.29315 2.394C8.02041 2.72734 7.68707 2.98998 7.30322 3.1819Z" fill="#555555"/>
</svg>
