<svg width="13" height="13" viewBox="0 0 13 13" fill="none" xmlns="http://www.w3.org/2000/svg">
<g clip-path="url(#clip0_4_3171)">
<path d="M11.2125 5.5315H7.475V1.7875C7.475 1.52891 7.37228 1.28092 7.18943 1.09807C7.00658 0.915223 6.75859 0.8125 6.5 0.8125C6.24141 0.8125 5.99342 0.915223 5.81057 1.09807C5.62772 1.28092 5.525 1.52891 5.525 1.7875V5.525H1.7875C1.52891 5.525 1.28092 5.62772 1.09807 5.81057C0.915223 5.99342 0.8125 6.24141 0.8125 6.5C0.8125 6.75859 0.915223 7.00658 1.09807 7.18943C1.28092 7.37228 1.52891 7.475 1.7875 7.475H5.525V11.2125C5.525 11.4711 5.62772 11.7191 5.81057 11.9019C5.99342 12.0848 6.24141 12.1875 6.5 12.1875C6.75859 12.1875 7.00658 12.0848 7.18943 11.9019C7.37228 11.7191 7.475 11.4711 7.475 11.2125V7.475H11.2125C11.4711 7.475 11.7191 7.37228 11.9019 7.18943C12.0848 7.00658 12.1875 6.75859 12.1875 6.5C12.1875 6.24141 12.0848 5.99342 11.9019 5.81057C11.7191 5.62772 11.4711 5.525 11.2125 5.525V5.5315Z" fill="white"/>
</g>
<defs>
<clipPath id="clip0_4_3171">
<rect width="12.5" height="12.5" fill="white" transform="scale(1.04)"/>
</clipPath>
</defs>
</svg>
