<svg width="31" height="33" viewBox="0 0 31 33" fill="none" xmlns="http://www.w3.org/2000/svg">
<path d="M6.83308 0.0052695C4.08691 0.105465 2.19051 1.87542 0.568041 3.6033C-0.157476 4.37591 0.0188687 4.94592 0.0188687 6.55426C0.0188687 8.73121 -0.0284236 8.99242 0.59319 9.92975C1.25016 11.0055 2.16452 11.9009 3.25384 12.5351C4.34317 13.1694 5.57321 13.5226 6.83308 13.5629C11.014 13.8852 14.6224 10.5359 14.6224 6.79212C14.6224 3.04831 11.0233 -0.147629 6.83308 0.0052695ZM3.02765 8.85696C3.02765 9.03952 2.95512 9.2146 2.82603 9.34369C2.69694 9.47278 2.52186 9.5453 2.3393 9.5453C2.15674 9.5453 1.98166 9.47278 1.85257 9.34369C1.72348 9.2146 1.65096 9.03952 1.65096 8.85696V4.81126C1.65096 4.6287 1.72348 4.45361 1.85257 4.32452C1.98166 4.19543 2.15674 4.12291 2.3393 4.12291C2.52186 4.12291 2.69694 4.19543 2.82603 4.32452C2.95512 4.45361 3.02765 4.6287 3.02765 4.81126V8.85696ZM11.0268 6.8284C11.0259 7.10385 10.9162 7.36778 10.7214 7.56255C10.5266 7.75732 10.2627 7.86711 9.98724 7.86793H7.73915C7.46367 7.86724 7.19967 7.75749 7.00488 7.56269C6.8101 7.36789 6.70038 7.10388 6.69972 6.8284V6.69934C6.70041 6.42388 6.81014 6.1599 7.00492 5.96512C7.1997 5.77033 7.46368 5.6606 7.73915 5.65991H9.98674C10.2622 5.66058 10.5262 5.7703 10.721 5.96508C10.9158 6.15987 11.0256 6.42386 11.0263 6.69934L11.0268 6.8284ZM7.24588 14.9707C9.09967 15.1118 10.9449 14.6046 12.4661 13.5357V30.553C12.3943 31.0247 12.1666 31.4587 11.8193 31.7857C11.4719 32.1128 11.025 32.314 10.5499 32.3574H8.77647C8.38339 32.3121 8.01751 32.1341 7.73924 31.8528C7.46097 31.5715 7.28694 31.2037 7.24588 30.8101C7.24588 30.8101 7.25911 14.984 7.24588 14.9707ZM16.3775 6.79212C16.3775 10.5359 19.9859 13.8852 24.1668 13.5629C25.4267 13.5226 26.6567 13.1694 27.7461 12.5351C28.8354 11.9009 29.7498 11.0055 30.4067 9.92975C31.0279 8.99242 30.981 8.73121 30.981 6.55426C30.981 4.94572 31.1574 4.37591 30.4319 3.6033C28.8094 1.87542 26.913 0.105465 24.1668 0.0052695C19.9761 -0.147629 16.3775 3.04831 16.3775 6.79212ZM27.7278 4.81126C27.7278 4.6287 27.8003 4.45361 27.9294 4.32452C28.0585 4.19543 28.2336 4.12291 28.4161 4.12291C28.5987 4.12291 28.7738 4.19543 28.9029 4.32452C29.032 4.45361 29.1045 4.6287 29.1045 4.81126V8.85696C29.1045 9.03952 29.032 9.2146 28.9029 9.34369C28.7738 9.47278 28.5987 9.5453 28.4161 9.5453C28.2336 9.5453 28.0585 9.47278 27.9294 9.34369C27.8003 9.2146 27.7278 9.03952 27.7278 8.85696V4.81126ZM19.9736 6.69934C19.9743 6.42393 20.084 6.15999 20.2787 5.96522C20.4735 5.77045 20.7374 5.66068 21.0128 5.65991H23.2604C23.5358 5.6606 23.7998 5.77033 23.9946 5.96512C24.1894 6.1599 24.2991 6.42388 24.2998 6.69934V6.8284C24.2991 7.10388 24.1894 7.36789 23.9946 7.56269C23.7998 7.75749 23.5358 7.86724 23.2604 7.86793H21.0128C20.7373 7.86711 20.4734 7.75732 20.2786 7.56255C20.0838 7.36778 19.9741 7.10385 19.9732 6.8284L19.9736 6.69934ZM23.6408 30.8101C23.6408 31.5248 22.5781 32.3574 21.8502 32.3574H20.0767C19.6367 32.3018 19.2318 32.0881 18.9377 31.7562C18.6435 31.4242 18.48 30.9966 18.4778 30.553V13.5357C19.9776 14.6038 21.8047 15.1117 23.6405 14.9707C23.6371 14.989 23.6408 30.8101 23.6408 30.8101Z" fill="#1D1D1F"/>
</svg>
