<svg width="37" height="34" viewBox="0 0 37 34" fill="none" xmlns="http://www.w3.org/2000/svg">
<path d="M15.6265 33.6214C14.7873 33.4092 14.005 33.1374 13.2804 32.8063L2.51649 27.9596C1.66672 27.5769 1.03532 27.1959 0.620691 26.8181C0.206864 26.4403 0 25.9199 0 25.2571V24.0766C0 23.8178 0.105684 23.6521 0.317852 23.5793C0.53012 23.5069 0.708561 23.5016 0.854176 23.5638L12.4423 28.8139C13.5913 29.3422 14.6293 29.697 15.5564 29.8782C16.4826 30.0593 17.4691 30.1499 18.5152 30.1499C19.5301 30.1499 20.5531 30.0411 21.5831 29.8235C22.6131 29.6064 23.6157 29.2801 24.5889 28.8449L36.1609 23.5948C36.3056 23.5326 36.4824 23.5326 36.6892 23.5948C36.8961 23.6569 37 23.8177 37 24.0765V25.257C37 25.9198 36.7922 26.4402 36.3784 26.818C35.9646 27.1958 35.3377 27.5768 34.4986 27.9595L23.7186 32.8063C22.994 33.1375 22.2126 33.4093 21.3734 33.6214C20.5344 33.8336 19.5762 33.9402 18.4999 33.9402C17.4229 33.9402 16.4647 33.8336 15.6265 33.6214ZM15.8743 27.7501C14.9943 27.5689 14.1294 27.2865 13.2805 26.9034L1.63029 21.5911C1.09216 21.3425 0.693449 21.0526 0.434144 20.7213C0.175739 20.39 0.0461366 20.0376 0.0461366 19.6651C0.0461366 19.3028 0.175739 18.9529 0.434144 18.6163C0.693449 18.2803 1.10277 17.9872 1.66132 17.7385L13.2804 12.4262C13.8709 12.1572 14.4899 11.9347 15.1372 11.7585C15.7836 11.5827 16.4275 11.4584 17.1423 11.3855V20.022C17.1423 20.2501 17.264 20.4522 17.5073 20.628C17.7506 20.8043 18.0958 20.8922 18.4998 20.8922C18.9146 20.8922 19.2492 20.8044 19.4925 20.628C19.7358 20.4522 19.8574 20.2502 19.8574 20.022V11.3855C20.5412 11.4584 21.2072 11.5774 21.8395 11.7429C22.4708 11.9085 23.1128 12.1367 23.7655 12.4262L34.7009 17.4127C35.1875 17.6303 35.6919 17.9251 36.2149 18.298C36.7379 18.671 36.9998 19.1264 36.9998 19.665C36.9998 20.2137 36.7405 20.672 36.2228 21.0396C35.7051 21.4072 35.2079 21.6998 34.7319 21.9174L23.7654 26.9033C22.9058 27.2865 22.0356 27.5688 21.1557 27.75C20.2757 27.9311 19.3948 28.0217 18.5149 28.0217C17.635 28.0217 16.7551 27.9312 15.8743 27.7501ZM8.97821 20.76C9.45419 20.4652 9.69217 20.1051 9.69217 19.6807C9.69217 19.2665 9.45419 18.9117 8.97821 18.6164C8.50133 18.3212 7.92147 18.1738 7.23783 18.1738C6.55499 18.1738 5.97243 18.3212 5.49035 18.6164C5.00907 18.9117 4.76848 19.2665 4.76848 19.6807C4.76848 20.1051 5.00907 20.4652 5.49035 20.76C5.97253 21.0553 6.55499 21.2027 7.23783 21.2027C7.92157 21.2027 8.50143 21.0553 8.97821 20.76ZM21.0547 9.42856C21.8157 8.973 22.424 8.36212 22.8803 7.59581C23.3359 6.82951 23.5632 5.98013 23.5632 5.0482C23.5632 4.11626 23.3359 3.26959 22.8803 2.50859C22.4239 1.74758 21.8157 1.1393 21.0547 0.683341C20.2937 0.227781 19.4474 0 18.5151 0C17.5836 0 16.7337 0.227781 15.9674 0.683341C15.2011 1.1393 14.5876 1.74758 14.1267 2.50859C13.6658 3.26959 13.4358 4.11626 13.4358 5.0482C13.4358 5.98013 13.6658 6.82951 14.1267 7.59581C14.5876 8.36212 15.2011 8.9731 15.9674 9.42856C16.7337 9.88453 17.5835 10.1119 18.5151 10.1119C19.4474 10.1119 20.2937 9.88453 21.0547 9.42856Z" fill="#F5F5F7"/>
</svg>
