<svg width="39" height="47" viewBox="0 0 39 47" fill="none" xmlns="http://www.w3.org/2000/svg">
<path d="M15.7059 46.9996H5.08081H4.71082C4.61242 46.9996 4.51466 46.9992 4.41753 46.9986C3.90616 47.0077 3.39506 46.9694 2.89075 46.8843C2.54565 46.8195 2.21134 46.7067 1.89756 46.5491C1.27487 46.2332 0.768917 45.7273 0.452987 45.1046C0.295356 44.7909 0.182588 44.4566 0.117992 44.1115C0.0273727 43.5586 -0.0111956 42.9983 0.00279394 42.4381V42.1449C0.00279394 42.0707 0.00279394 41.9961 0.00279394 41.921V9.07887C0.00279394 9.00367 0.00279394 8.92904 0.00279394 8.85497C0.00279394 8.75644 0.00279394 8.65867 0.00279394 8.56167C-0.0111921 8.00151 0.0273762 7.44127 0.117992 6.8883C0.182604 6.54322 0.295371 6.20893 0.452987 5.89522C0.768873 5.27267 1.27472 4.76683 1.89726 4.45094C2.21104 4.29334 2.54535 4.18052 2.89045 4.11574C3.2448 4.05122 3.60381 4.01561 3.96393 4.00925C4.22613 4.00115 4.55572 4.00025 4.85452 4.00025H5.08081H13.9533C13.9479 4.18944 13.9401 4.37764 13.9394 4.56924V4.72143V4.86423V5.00023H5.08081H4.97222H4.85452C4.56622 5.00023 4.24783 5.00083 3.99453 5.00873C3.68853 5.01324 3.38341 5.04284 3.08225 5.09723C2.82832 5.14411 2.58227 5.22655 2.35136 5.34213C1.91686 5.56202 1.5639 5.91488 1.34387 6.34931C1.22852 6.57995 1.14624 6.82569 1.09948 7.0793C1.02164 7.57043 0.989273 8.0677 1.00278 8.56477V8.85477V9.07867V41.921V42.1415V42.4373C0.989343 42.9334 1.02171 43.4296 1.09948 43.9196C1.14615 44.1736 1.22849 44.4198 1.34407 44.6507C1.56386 45.0852 1.91671 45.438 2.35116 45.6578C2.58209 45.7733 2.82813 45.8557 3.08205 45.9026C3.52567 45.975 3.97492 46.007 4.42433 45.9984L4.71142 45.9996H5.08081H14.7721C15.0177 46.3886 15.3348 46.7278 15.7059 46.9996ZM12.5885 5.58652C12.8308 5.58652 13.0632 5.68278 13.2346 5.85413C13.4059 6.02548 13.5022 6.25788 13.5022 6.50021C13.5022 6.74253 13.4059 6.97493 13.2346 7.14628C13.0632 7.31763 12.8308 7.41389 12.5885 7.41389H8.41596C8.17364 7.41389 7.94124 7.31763 7.76989 7.14628C7.59854 6.97493 7.50228 6.74253 7.50228 6.50021C7.50228 6.25788 7.59854 6.02548 7.76989 5.85413C7.94124 5.68278 8.17364 5.58652 8.41596 5.58652H12.5885ZM12.6408 6.05021C12.5518 6.05021 12.4648 6.07661 12.3908 6.12605C12.3168 6.1755 12.2591 6.24578 12.2251 6.328C12.191 6.41023 12.1821 6.50071 12.1995 6.588C12.2168 6.67529 12.2597 6.75547 12.3226 6.8184C12.3855 6.88133 12.4657 6.92419 12.553 6.94155C12.6403 6.95892 12.7308 6.95001 12.813 6.91595C12.8952 6.88189 12.9655 6.82421 13.015 6.75021C13.0644 6.67621 13.0908 6.58921 13.0908 6.50021C13.0908 6.38086 13.0434 6.2664 12.959 6.18201C12.8746 6.09762 12.7601 6.05021 12.6408 6.05021ZM29.5018 2.50027C29.5018 2.74257 29.4055 2.97494 29.2342 3.14628C29.0629 3.31762 28.8305 3.4139 28.5882 3.41396H24.4157C24.1734 3.41396 23.941 3.31769 23.7696 3.14634C23.5983 2.97499 23.502 2.74259 23.502 2.50027C23.502 2.25794 23.5983 2.02555 23.7696 1.8542C23.941 1.68285 24.1734 1.58658 24.4157 1.58658H28.5882C28.8306 1.58661 29.0629 1.68288 29.2343 1.85423C29.4056 2.02558 29.5018 2.25796 29.5018 2.50027ZM29.0902 2.50027C29.0902 2.41127 29.0638 2.32427 29.0144 2.25027C28.965 2.17627 28.8947 2.11859 28.8125 2.08453C28.7302 2.05047 28.6397 2.04156 28.5525 2.05892C28.4652 2.07629 28.385 2.11914 28.3221 2.18208C28.2591 2.24501 28.2163 2.32519 28.1989 2.41248C28.1815 2.49977 28.1905 2.59025 28.2245 2.67247C28.2586 2.7547 28.3162 2.82498 28.3902 2.87442C28.4642 2.92387 28.5512 2.95026 28.6402 2.95026C28.7596 2.95026 28.8741 2.90285 28.9584 2.81846C29.0428 2.73407 29.0902 2.61961 29.0902 2.50027ZM38.0017 4.86683V42.1331C38.0017 42.2319 38.0017 42.3297 38.0012 42.427C38.0153 42.9886 37.9768 43.5502 37.886 44.1045C37.821 44.4504 37.7078 44.7854 37.5498 45.0999C37.2333 45.7242 36.7261 46.2314 36.1017 46.5478C35.7873 46.7058 35.4523 46.8189 35.1064 46.8838C34.7512 46.9484 34.3913 46.9842 34.0303 46.9906C33.7681 46.9987 33.4385 46.9996 33.1397 46.9996H32.9104H20.0931H19.722C19.6233 46.9996 19.5253 46.9992 19.428 46.9986C19.0045 46.9989 18.5815 46.9714 18.1617 46.9162C18.074 46.9039 17.9839 46.9008 17.8975 46.884C17.5517 46.8191 17.2166 46.706 16.9022 46.548C16.6209 46.403 16.3619 46.2183 16.1331 45.9996C16.1104 45.9783 16.0843 45.9613 16.0623 45.9396C15.8167 45.6936 15.6113 45.4103 15.454 45.1003C15.2959 44.7858 15.1828 44.4508 15.1178 44.1049C15.0268 43.5505 14.9881 42.9887 15.0021 42.427C15.0021 42.3297 15.0021 42.2319 15.0021 42.1331V4.86683C15.0021 4.76793 15.0021 4.67004 15.0021 4.57274C15.0028 4.38094 15.0094 4.19084 15.0148 4.00035C15.0189 3.62982 15.0532 3.26024 15.1173 2.89526C15.1825 2.54951 15.2958 2.21459 15.454 1.90028C15.7702 1.27576 16.2775 0.768437 16.902 0.452101C17.2164 0.294065 17.5515 0.180962 17.8973 0.116106C18.2526 0.051403 18.6125 0.0156861 18.9735 0.00930822C19.2357 0.00120835 19.5653 0.000308302 19.8641 0.000308302H20.0934H32.9107H33.0975H33.2818C33.3804 0.000308302 33.4783 0.000308229 33.576 0.00130821C34.0884 -0.00778887 34.6006 0.0305744 35.1059 0.115907C35.4518 0.180762 35.7868 0.293865 36.1012 0.451901C36.7259 0.768203 37.2334 1.27561 37.5498 1.90028C37.7078 2.21471 37.821 2.54973 37.886 2.89556C37.9769 3.44977 38.0157 4.01129 38.0017 4.57274V4.86683ZM37.0017 4.86683V4.71804V4.57524C37.0153 4.07726 36.9829 3.5791 36.905 3.08706C36.8579 2.83239 36.7753 2.58561 36.6594 2.35397C36.4388 1.91786 36.0846 1.56367 35.6484 1.34309C35.4169 1.22725 35.1702 1.14461 34.9155 1.09759C34.4708 1.025 34.0204 0.992836 33.5699 1.00149L33.2811 1.00029H33.0975H33.005H20.0931H19.9831H19.8642C19.5756 1.00029 19.2575 1.00099 19.0042 1.00879C18.6971 1.01325 18.3909 1.04295 18.0887 1.09759C17.834 1.14465 17.5872 1.22732 17.3555 1.34319C16.9196 1.56347 16.5655 1.91736 16.345 2.35317C16.229 2.58504 16.1463 2.8321 16.0992 3.08706C16.0471 3.38876 16.0189 3.6941 16.0147 4.00025C16.0088 4.18724 16.0032 4.37344 16.0025 4.57604V4.72393V4.86913V42.1331V42.2758V42.4245C15.989 42.9225 16.0214 43.4206 16.0992 43.9126C16.1463 44.1674 16.229 44.4142 16.3448 44.6459C16.5653 45.0819 16.9194 45.436 17.3553 45.6566C17.587 45.7725 17.8339 45.8552 18.0887 45.9023C18.108 45.9061 18.1294 45.9059 18.1487 45.9094C18.574 45.9744 19.0039 46.0042 19.4341 45.9984L19.7222 45.9994H20.0928H33.0211H33.14C33.4286 45.9994 33.7467 45.9987 34 45.9909C34.307 45.9863 34.6132 45.9566 34.9154 45.9021C35.1702 45.855 35.417 45.7724 35.6486 45.6565C36.0843 45.4358 36.4382 45.0817 36.6586 44.6459C36.7746 44.4141 36.8574 44.1671 36.9044 43.9121C36.9825 43.42 37.0151 42.9217 37.0017 42.4236V42.2818V42.1306V4.86683Z" fill="#1D1D1F"/>
</svg>
