<svg width="20" height="17" viewBox="0 0 20 17" fill="none" xmlns="http://www.w3.org/2000/svg">
<g clip-path="url(#clip0_4_70)">
<path d="M8.46551 15.372C7.69642 15.372 6.95361 15.271 6.23709 15.0691C5.52056 14.8671 4.84692 14.5794 4.21616 14.2059C3.58539 13.8324 3.01272 13.3884 2.49815 12.8739C1.98358 12.3593 1.53956 11.7866 1.16608 11.1559C0.792604 10.5251 0.504887 9.85145 0.302932 9.13492C0.100977 8.4184 0 7.67559 0 6.9065C0 6.13188 0.100977 5.38769 0.302932 4.67393C0.504887 3.96017 0.791221 3.28791 1.16193 2.65715C1.53264 2.02639 1.97529 1.45372 2.48986 0.939149C3.00443 0.424579 3.57709 -0.0194454 4.20786 -0.392924C4.83862 -0.766403 5.51226 -1.05412 6.22879 -1.25607C6.94531 -1.45803 7.68812 -1.55901 8.45721 -1.55901C9.23183 -1.55901 9.9774 -1.45803 10.6939 -1.25607C11.4105 -1.05412 12.0827 -0.766403 12.7107 -0.392924C13.3387 -0.0194454 13.9114 0.424579 14.4287 0.939149C14.946 1.45372 15.3915 2.02639 15.7649 2.65715C16.1384 3.28791 16.4261 3.96017 16.6281 4.67393C16.83 5.38769 16.931 6.13188 16.931 6.9065C16.931 7.67559 16.83 8.4184 16.6281 9.13492C16.4261 9.85145 16.1384 10.5251 15.7649 11.1559C15.3915 11.7866 14.9474 12.3593 14.4329 12.8739C13.9183 13.3884 13.3456 13.8324 12.7149 14.2059C12.0841 14.5794 11.4118 14.8671 10.6981 15.0691C9.98432 15.271 9.24013 15.372 8.46551 15.372ZM8.46551 13.9611C9.25119 13.9611 9.99677 13.8435 10.7022 13.6084C11.4077 13.3732 12.0537 13.0398 12.6402 12.6083C13.2267 12.1767 13.7357 11.6677 14.1673 11.0812C14.5989 10.4947 14.9322 9.84868 15.1674 9.14322C15.4025 8.43776 15.5201 7.69219 15.5201 6.9065C15.5201 6.12081 15.4011 5.37524 15.1632 4.66978C14.9253 3.96432 14.5906 3.31834 14.159 2.73184C13.7274 2.14534 13.2184 1.63631 12.6319 1.20473C12.0454 0.773158 11.3994 0.439795 10.6939 0.204641C9.98847 -0.0305119 9.2429 -0.148088 8.45721 -0.148088C7.67152 -0.148088 6.92733 -0.0305119 6.22464 0.204641C5.52195 0.439795 4.87735 0.773158 4.29085 1.20473C3.70435 1.63631 3.1967 2.14534 2.76789 2.73184C2.33908 3.31834 2.0071 3.96432 1.77195 4.66978C1.53679 5.37524 1.41922 6.12081 1.41922 6.9065C1.41922 7.69219 1.53679 8.43776 1.77195 9.14322C2.0071 9.84868 2.33908 10.4947 2.76789 11.0812C3.1967 11.6677 3.70435 12.1767 4.29085 12.6083C4.87735 13.0398 5.52333 13.3732 6.22879 13.6084C6.93425 13.8435 7.67982 13.9611 8.46551 13.9611ZM7.00479 9.96072C6.88307 10.0327 6.76272 10.0645 6.64376 10.0562C6.5248 10.0479 6.42521 10.005 6.34498 9.92753C6.26475 9.85006 6.22464 9.75047 6.22464 9.62874V4.19256C6.22464 4.0653 6.26614 3.96571 6.34913 3.89378C6.43213 3.82185 6.53449 3.78173 6.65621 3.77343C6.77794 3.76513 6.89413 3.79418 7.00479 3.86058L11.4533 6.49153C11.5585 6.55239 11.629 6.63677 11.665 6.74466C11.7009 6.85255 11.7023 6.96045 11.6691 7.06834C11.6359 7.17624 11.564 7.26338 11.4533 7.32978L7.00479 9.96072Z" fill="#0066CC"/>
</g>
<defs>
<clipPath id="clip0_4_70">
<rect width="19.52" height="17" fill="white" transform="matrix(1 0 0 -1 0 17)"/>
</clipPath>
</defs>
</svg>
