<svg width="58" height="62" viewBox="0 0 58 62" fill="none" xmlns="http://www.w3.org/2000/svg">
<path d="M54.6247 12.994L32.0691 0.780214C31.1269 0.26821 30.0716 0 28.9992 0C27.9268 0 26.8715 0.26821 25.9292 0.780214L3.37367 12.994C2.35292 13.5473 1.50058 14.366 0.906746 15.3637C0.312907 16.3613 -0.000377574 17.5009 3.41506e-07 18.6619V42.5676C-0.000220365 43.7288 0.313307 44.8684 0.907438 45.8661C1.50157 46.8638 2.35423 47.6824 3.37528 48.2355L25.9308 60.4493C26.873 60.9616 27.9284 61.2299 29.0008 61.2299C30.0732 61.2299 31.1286 60.9616 32.0708 60.4493L54.6263 48.2355C55.647 47.6822 56.4994 46.8635 57.0932 45.8658C57.6871 44.8682 58.0003 43.7286 58 42.5676V18.6619C58.0002 17.5007 57.6867 16.3611 57.0925 15.3634C56.4984 14.3657 55.6457 13.5471 54.6247 12.994ZM27.4662 3.61416C27.9361 3.35935 28.4622 3.2259 28.9968 3.2259C29.5313 3.2259 30.0574 3.35935 30.5273 3.61416L52.7606 15.6491L42.4769 21.5216L19.2415 8.06726L27.4662 3.61416ZM29 29.2179L5.24094 15.6491L15.921 9.86687L39.2386 23.3648L29 29.2179ZM4.91066 45.4015C4.39999 45.1251 3.9735 44.7158 3.67629 44.217C3.37907 43.7181 3.22219 43.1483 3.22222 42.5676V18.6619C3.232 18.5201 3.25138 18.379 3.28022 18.2398L27.3889 32.0084V57.5735L4.91066 45.4015ZM54.7777 42.5676C54.7778 43.1483 54.6209 43.7181 54.3237 44.217C54.0265 44.7158 53.6 45.1251 53.0893 45.4015L30.6111 57.5735V32.0084L54.7197 18.2414C54.7486 18.3807 54.768 18.5217 54.7777 18.6635V42.5676Z" fill="#6E6E73"/>
</svg>
