<svg width="47" height="56" viewBox="0 0 47 56" fill="none" xmlns="http://www.w3.org/2000/svg">
<path d="M18.244 33.03C17.694 33.075 17.136 33.103 16.567 33.103C16.148 33.103 15.722 33.09 15.301 33.065L14.631 33.025L14.073 33.397C12.3638 34.5459 10.5326 35.5021 8.613 36.248C9.12191 35.5454 9.58519 34.8109 10 34.049L10.965 32.206L9.086 31.314C5.021 29.389 2.5 25.782 2.5 21.9C2.5 15.714 8.968 10.681 16.917 10.681C24.817 10.681 31.247 15.652 31.327 21.781C31.9886 21.7036 32.6539 21.6625 33.32 21.658C33.163 14.458 25.953 8.677 16.92 8.677C7.782 8.683 0.5 14.594 0.5 21.9C0.5 26.694 3.575 30.914 8.223 33.119C7.49814 34.3806 6.67669 35.5842 5.766 36.719C5.016 37.66 5.398 38.719 6.722 38.719C8.546 38.719 12.268 36.999 15.181 35.058C15.6477 35.086 16.1093 35.0997 16.566 35.099C17.123 35.099 17.672 35.077 18.215 35.037C18.196 34.777 18.168 34.519 18.168 34.255C18.1695 33.8455 18.1949 33.4365 18.244 33.03Z" fill="#6E6E73"/>
<path d="M46.5 34.2599C46.5 28.4019 40.661 23.6599 33.335 23.6599C33.283 23.6599 33.235 23.6659 33.18 23.6659C32.4878 23.6738 31.7967 23.7253 31.111 23.8199C25.481 24.5829 21.126 28.1849 20.319 32.7339C20.2247 33.2355 20.1749 33.7445 20.17 34.2549C20.17 34.4379 20.193 34.6139 20.203 34.7939C20.549 40.6329 26.43 44.8369 33.616 44.8369C33.983 44.8369 34.354 44.8259 34.727 44.8039C37.063 46.3599 40.047 47.7389 41.51 47.7389C42.572 47.7389 42.878 46.8899 42.277 46.1389C41.5467 45.2286 40.888 44.263 40.307 43.2509C44.034 41.4839 46.5 38.0999 46.5 34.2599ZM39.45 41.4459L37.57 42.3379L38.535 44.1809C38.657 44.4139 38.795 44.6529 38.941 44.8909C37.8629 44.3882 36.8245 43.8041 35.835 43.1439L35.277 42.7719L34.607 42.8119C34.274 42.8319 33.943 42.8419 33.615 42.8419C27.244 42.8419 22.249 39.1269 22.175 34.3659C22.175 34.3299 22.168 34.2959 22.168 34.2609C22.1726 33.5555 22.2883 32.8553 22.511 32.1859C23.481 29.1859 26.49 26.8149 30.34 25.9859C31.1047 25.822 31.8817 25.7216 32.663 25.6859C32.886 25.6759 33.108 25.6599 33.334 25.6599C39.491 25.6599 44.499 29.5159 44.499 34.2599C44.4266 35.8134 43.9133 37.3141 43.0192 38.5865C42.125 39.8589 40.887 40.8514 39.45 41.4459Z" fill="#6E6E73"/>
</svg>
