<svg width="84" height="34" viewBox="0 0 84 34" fill="none" xmlns="http://www.w3.org/2000/svg">
<path d="M33.5281 34H1.5179C1.31854 34 1.12114 33.9607 0.936963 33.8844C0.752789 33.808 0.58545 33.6962 0.4445 33.5552C0.30355 33.4142 0.191749 33.2469 0.115482 33.0627C0.0392146 32.8785 -2.62529e-05 32.6811 1.31773e-08 32.4817V31.5H5C5 31.5 5 4.8039 5.0015 4.0677C5.0024 3.5602 5.0037 3.233 5.0056 2.9858C5.0078 2.7419 5.0109 2.5749 5.015 2.4405C5.01942 2.24026 5.03461 2.04041 5.0605 1.8418C5.08973 1.60561 5.15605 1.37552 5.257 1.16C5.4465 0.764726 5.76544 0.44611 6.1609 0.257C6.3764 0.156369 6.60637 0.0902294 6.8424 0.0610008C7.04142 0.0348891 7.24172 0.0195988 7.4424 0.0151997C7.5773 0.0107997 7.7445 0.00769943 7.9889 0.00519943C8.2365 0.00289943 8.564 0.00169918 9.0714 0.000799179C9.4142 0.000699179 9.8221 0 10.3987 0H47.6013C48.1779 0 48.5858 0.000699722 48.9285 0.00119972C49.4359 0.00209972 49.7634 0.00329998 50.011 0.00559998C50.2554 0.00769998 50.4226 0.0108002 50.5575 0.0156002C50.7582 0.0199909 50.9585 0.0352793 51.1575 0.0613995C51.3935 0.090628 51.6235 0.156769 51.839 0.257401C52.2345 0.446573 52.5534 0.765164 52.7431 1.1604C52.8439 1.37587 52.9101 1.60585 52.9394 1.8419C52.9653 2.04051 52.9805 2.24036 52.9849 2.4406C52.989 2.575 52.9921 2.742 52.9943 2.9859C52.9962 3.2331 52.9975 3.5603 52.9984 4.0678C52.9984 4.1789 52.9984 4.8884 52.9989 6.0003H51.4989C51.4989 4.8992 51.4989 4.1915 51.4984 4.0703C51.4975 3.5679 51.4962 3.2433 51.4943 2.9982C51.4923 2.7707 51.4895 2.6137 51.4856 2.4873C51.4828 2.34141 51.4722 2.19577 51.4539 2.051C51.4458 1.96776 51.4245 1.88634 51.3908 1.8098C51.3488 1.72258 51.2782 1.65233 51.1908 1.6107C51.1136 1.57678 51.0314 1.55535 50.9475 1.5472C50.8017 1.52881 50.6551 1.51816 50.5082 1.5153C50.3823 1.5113 50.2258 1.5085 49.9972 1.5064C49.7518 1.5042 49.4272 1.503 48.9254 1.5021L47.6007 1.5H31.7782V1.5148C31.7782 1.77914 31.6732 2.03266 31.4863 2.21957C31.2994 2.40649 31.0458 2.5115 30.7815 2.5115H27.2185C26.9542 2.5115 26.7006 2.40649 26.5137 2.21957C26.3268 2.03266 26.2218 1.77914 26.2218 1.5148V1.5H10.3994L9.074 1.5012C8.5718 1.5021 8.2477 1.5033 8.0027 1.5055C7.7737 1.5076 7.6172 1.5104 7.4911 1.5144C7.34424 1.51727 7.19763 1.52792 7.0519 1.5463C6.96801 1.55444 6.88595 1.57587 6.8088 1.6098C6.76586 1.63025 6.72667 1.6578 6.6929 1.6913C6.65821 1.7259 6.6297 1.76618 6.6086 1.8104C6.57493 1.88683 6.55373 1.96816 6.5458 2.0513C6.52753 2.19671 6.51698 2.34298 6.5142 2.4895C6.5104 2.6128 6.5076 2.7695 6.5056 2.999C6.5037 3.2424 6.5024 3.567 6.5015 4.0704C6.5 4.8809 6.5 31.3631 6.5 31.4969V31.5H32V32.6917L32.147 32.9317C32.4934 33.4148 32.9734 33.7862 33.5281 34ZM78.99 31H84V32.41C83.36 33.44 79.53 33.98 78.16 33.98H38.45C37.1 33.98 33.63 33.44 33 32.41V31H38V8.49C38 8.4766 38 8.4631 38 8.45C38.0053 8.06361 38.1624 7.69483 38.4376 7.42346C38.7127 7.15209 39.0836 6.99996 39.47 7H39.4905H77.5H77.52H77.54C77.733 7.00261 77.9237 7.04322 78.101 7.11951C78.2784 7.19581 78.439 7.30629 78.5736 7.44466C78.7083 7.58302 78.8144 7.74655 78.8858 7.92591C78.9572 8.10527 78.9926 8.29695 78.99 8.49V31ZM77 8.98H39.99V31H77V8.98Z" fill="#1D1D1F"/>
</svg>
