<svg width="44" height="44" viewBox="0 0 44 44" fill="none" xmlns="http://www.w3.org/2000/svg">
<g clip-path="url(#clip0_4_4799)">
<path d="M22.0356 37.021C30.2356 37.021 37.0356 30.221 37.0356 22.021C37.0356 13.821 30.2356 7.021 22.0356 7.021C13.8356 7.021 7.03564 13.821 7.03564 22.021C7.03564 30.221 13.8356 37.021 22.0356 37.021ZM22.0356 35.021C14.7356 35.021 8.93565 29.221 8.93565 22.021C8.93565 14.821 14.7356 8.92099 21.9356 8.92099C29.1356 8.92099 35.0356 14.721 35.0356 22.021C35.0356 29.221 29.2356 35.021 22.0356 35.021ZM18.7356 29.321C19.0356 29.621 19.6356 29.621 20.0356 29.321L26.5356 23.121C27.2356 22.521 27.2356 21.521 26.5356 20.921L20.0356 14.721C19.6356 14.321 19.1356 14.321 18.8356 14.721C18.4356 15.021 18.4356 15.621 18.8356 15.921L25.2356 22.021L18.8356 28.121C18.3356 28.421 18.3356 29.021 18.7356 29.321Z" fill="#1D1D1F"/>
</g>
<defs>
<clipPath id="clip0_4_4799">
<rect width="44" height="44" fill="white"/>
</clipPath>
</defs>
</svg>
