<svg width="13" height="22" viewBox="0 0 13 22" fill="none" xmlns="http://www.w3.org/2000/svg">
<path d="M2.04848 21.798C1.48822 21.798 1.00673 21.5966 0.60404 21.1939C0.201347 20.7912 0 20.3185 0 19.7758C0 19.198 0.218855 18.7077 0.656566 18.3051L8.2202 10.899L0.656566 3.51919C0.218855 3.08148 0 2.58249 0 2.02222C0 1.46195 0.201347 0.984848 0.60404 0.590909C1.00673 0.19697 1.48822 0 2.04848 0C2.59125 0 3.05522 0.192593 3.4404 0.577778L12.2646 9.24444C12.7549 9.73468 13 10.2862 13 10.899C13 11.5118 12.7549 12.0633 12.2646 12.5535L3.4404 21.2202C3.07273 21.6054 2.60875 21.798 2.04848 21.798Z" fill="black" fill-opacity="0.56"/>
</svg>
