<svg width="18" height="24" viewBox="0 0 18 24" fill="none" xmlns="http://www.w3.org/2000/svg">
<path d="M4.51048 17.728C4.31722 17.728 4.14137 17.6836 3.9829 17.5947C3.82443 17.5058 3.6679 17.3686 3.5133 17.1831L0.266686 13.1712C0.189386 13.063 0.125613 12.947 0.0753678 12.8233C0.0251226 12.6996 0 12.576 0 12.4523C0 12.1895 0.0888954 11.9672 0.266686 11.7856C0.444477 11.6039 0.657053 11.5131 0.904414 11.5131C1.06674 11.5131 1.21748 11.5479 1.35662 11.6174C1.49576 11.687 1.63104 11.8107 1.76245 11.9885L4.4525 15.467L9.69346 7.09536C9.90217 6.73978 10.1727 6.56199 10.5051 6.56199C10.7525 6.56199 10.9728 6.63736 11.166 6.7881C11.3593 6.93883 11.4559 7.14948 11.4559 7.42003C11.4559 7.55144 11.4269 7.68091 11.3689 7.80846C11.311 7.93601 11.2472 8.05775 11.1776 8.17371L5.44967 17.1831C5.20231 17.5464 4.88925 17.728 4.51048 17.728Z" fill="white" fill-opacity="0.92"/>
</svg>
