<svg width="17" height="18" viewBox="0 0 17 18" fill="none" xmlns="http://www.w3.org/2000/svg">
<g clip-path="url(#clip0_4_744)">
<path d="M0.235431 12.5068L5.41219 7.33008L0.235431 2.15332C0.0830877 1.99512 0.00545099 1.80029 0.00252131 1.56885C-0.000408381 1.3374 0.0772283 1.13965 0.235431 0.975586C0.399494 0.817383 0.597248 0.739746 0.828693 0.742676C1.06014 0.745605 1.25496 0.823242 1.41317 0.975586L6.58992 6.15234L11.7667 0.975586C11.9249 0.817383 12.1197 0.738281 12.3512 0.738281C12.5826 0.738281 12.7804 0.817383 12.9444 0.975586C13.1026 1.13965 13.1817 1.3374 13.1817 1.56885C13.1817 1.80029 13.1026 1.99512 12.9444 2.15332L7.76766 7.33008L12.9444 12.5068C13.1026 12.665 13.1817 12.8599 13.1817 13.0913C13.1817 13.3228 13.1026 13.5205 12.9444 13.6846C12.7804 13.8428 12.5826 13.9219 12.3512 13.9219C12.1197 13.9219 11.9249 13.8428 11.7667 13.6846L6.58992 8.50781L1.41317 13.6846C1.25496 13.8369 1.06014 13.9146 0.828693 13.9175C0.597248 13.9204 0.399494 13.8428 0.235431 13.6846C0.0772283 13.5205 -0.000408381 13.3228 0.00252131 13.0913C0.00545099 12.8599 0.0830877 12.665 0.235431 12.5068Z" fill="black" fill-opacity="0.8"/>
</g>
<defs>
<clipPath id="clip0_4_744">
<rect width="16.88" height="18" fill="white" transform="matrix(1 0 0 -1 0 18)"/>
</clipPath>
</defs>
</svg>
