<svg width="10" height="21" viewBox="0 0 10 21" fill="none" xmlns="http://www.w3.org/2000/svg">
<g clip-path="url(#clip0_1_1653)">
<path d="M1.01367 15.9653C0.801758 15.9653 0.620605 15.8918 0.470215 15.7449C0.319824 15.5979 0.244629 15.4185 0.244629 15.2065C0.244629 14.9946 0.323242 14.8101 0.480469 14.6528L4.62305 10.5205L0.480469 6.38818C0.323242 6.23096 0.244629 6.04639 0.244629 5.83447C0.244629 5.62256 0.319824 5.44312 0.470215 5.29614C0.620605 5.14917 0.801758 5.07568 1.01367 5.07568C1.21191 5.07568 1.38965 5.14746 1.54688 5.29102L6.22266 9.94629C6.38672 10.0967 6.46875 10.2881 6.46875 10.5205C6.46875 10.7393 6.38672 10.9307 6.22266 11.0947L1.54688 15.75C1.40332 15.8936 1.22559 15.9653 1.01367 15.9653Z" fill="#86868B"/>
</g>
<defs>
<clipPath id="clip0_1_1653">
<rect width="10" height="21" fill="white" transform="matrix(1 0 0 -1 0 21)"/>
</clipPath>
</defs>
</svg>
