<svg width="34" height="23" viewBox="0 0 34 23" fill="none" xmlns="http://www.w3.org/2000/svg">
<path d="M30.5029 15.6097C31.8012 15.4104 33.0148 14.8421 33.9993 13.9725V18.7024C33.9993 22.9323 28.9935 22.9423 25.6135 23H8.38582C5.00579 22.9416 0 22.9318 0 18.7019V13.9761C0.985808 14.843 2.199 15.4098 3.49643 15.6097C4.9813 15.8954 6.49184 16.0261 8.00373 15.9997H25.9955C27.5074 16.0261 29.018 15.8954 30.5029 15.6097ZM33.9778 11.2887C34.4121 14.7813 28.1433 15.0257 25.9955 14.9998H8.00373C5.85537 15.0256 -0.411991 14.7814 0.0214995 11.2887C0.585232 8.33018 1.30357 5.40326 2.17355 2.51995C3.75212 -0.426291 8.22253 0.106998 11.2698 0H22.7295C25.7764 0.107598 30.2456 -0.42679 31.8256 2.51995C32.3956 4.13241 32.9913 6.98045 33.5579 9.19881C33.7528 9.88321 33.8932 10.5821 33.9778 11.2887ZM15.7062 8.86541C16.2591 8.85591 16.4409 8.70072 17.0697 8.70072C17.6986 8.70072 17.8756 8.86541 18.4229 8.86071C18.8939 8.8438 19.3457 8.66984 19.7064 8.36652C19.9316 8.21545 20.1277 8.02493 20.2852 7.80413C19.629 7.66554 19.2116 7.35414 19.2184 7.01245C19.2371 6.71346 19.5728 6.43926 20.1069 6.28417C19.4797 5.73828 17.7452 5.95587 17.1222 6.08417C16.3205 5.91068 14.7816 5.80418 14.1289 6.39626C12.953 7.34324 14.5474 8.85151 15.7062 8.86541ZM17.0887 5.86887C17.5044 5.88374 17.917 5.79371 18.2887 5.60708C18.5931 5.44129 18.7487 5.22909 18.7249 5.01569C18.3159 5.02489 17.9134 5.12083 17.5442 5.29719C17.2374 5.45268 17.0728 5.65858 17.0887 5.86887Z" fill="#1D1D1F"/>
</svg>
