<svg width="38" height="25" viewBox="0 0 38 25" fill="none" xmlns="http://www.w3.org/2000/svg">
<path d="M26.6628 14.4151C27.5285 14.6449 28.4215 14.7556 29.3171 14.744V23.3172C29.2899 23.6793 29.1377 24.0206 28.8865 24.2828C28.6354 24.545 28.3009 24.7118 27.9404 24.7547H26.3655C25.9604 24.7104 25.5866 24.5162 25.3176 24.2102C25.0485 23.9041 24.9037 23.5085 24.9117 23.1011V13.7526C25.4806 14.0109 26.0655 14.2322 26.6628 14.4151ZM24.9117 12.6379C23.6359 11.9875 22.4933 11.1037 21.5432 10.0323C20.5881 8.99162 20.0124 7.65895 19.9094 6.25021C19.8662 5.05406 20.1483 3.86859 20.7255 2.82003C21.2182 2.01507 21.8959 1.33929 22.7022 0.848832C23.5085 0.358378 24.4203 0.0674121 25.3617 0.000102834C25.4084 0.000102834 25.4555 0.000882995 25.5028 0.00244278C26.9188 0.0492365 30.3401 0.367433 33.4129 4.43665C33.2468 4.44295 33.081 4.45772 32.9164 4.4809C32.092 4.61958 31.3062 4.93087 30.6105 5.3944C29.9148 5.85793 29.3249 6.46322 28.8794 7.17062C28.0264 8.48738 27.5886 10.03 27.6227 11.5985C27.6308 11.8303 27.6601 12.0609 27.7101 12.2873C27.8244 12.7863 28.0312 13.2594 28.3197 13.6823C27.8593 13.6483 27.4035 13.5678 26.9593 13.442C26.2557 13.2311 25.5708 12.9621 24.9117 12.6379ZM25.9957 6.19559C26.1921 6.33048 26.429 6.39353 26.6665 6.37409C26.904 6.35465 27.1275 6.25392 27.2993 6.08888L27.3583 6.01523C27.4664 5.90031 27.5457 5.76147 27.5899 5.61004C27.6341 5.45861 27.6419 5.29888 27.6126 5.14389C27.5833 4.98889 27.5177 4.84301 27.4213 4.71816C27.3249 4.59331 27.2004 4.49301 27.0578 4.42546L25.5218 3.4369C25.3077 3.2876 25.0496 3.21462 24.7891 3.22969C24.5285 3.24477 24.2806 3.34702 24.0852 3.52L23.9988 3.60383C23.9093 3.71332 23.8444 3.84079 23.8084 3.97758C23.7725 4.11437 23.7664 4.25729 23.7905 4.39665C23.8146 4.53602 23.8684 4.66857 23.9482 4.78532C24.028 4.90208 24.132 5.00031 24.2532 5.07335L25.9957 6.19559ZM37.9327 10.4635C37.8932 10.6689 37.8398 10.8713 37.7729 11.0695C37.6093 11.5396 37.3921 11.9893 37.1255 12.4096C36.8054 12.9743 36.3975 13.4845 35.917 13.9209C35.5214 14.3142 35.0499 14.6227 34.5311 14.8276C34.0123 15.0325 33.4572 15.1295 32.8997 15.1126C32.2595 15.114 31.6238 15.0057 31.0202 14.7923C30.9448 14.757 30.8856 14.7221 30.8146 14.6869C30.528 14.5472 30.2502 14.3898 29.983 14.2157C29.761 14.0711 29.5521 13.9073 29.3586 13.7262C29.344 13.7123 29.3314 13.6982 29.3172 13.6842C28.8788 13.2547 28.5774 12.705 28.4512 12.1044C28.4201 11.9668 28.3994 11.827 28.3893 11.6862C28.23 9.83267 29.3432 5.86406 33.0449 5.23265C33.2771 5.19182 33.5123 5.17069 33.7481 5.16948C33.8167 5.16948 33.8895 5.18077 33.9599 5.18505C34.2297 5.19724 34.4966 5.24597 34.7533 5.3299C34.8016 5.34669 34.8438 5.37405 34.8911 5.39216C35.143 5.48617 35.3869 5.60041 35.6205 5.73375C36.3726 6.16734 36.9939 6.79581 37.4188 7.55291C37.6876 8.04995 37.8707 8.58879 37.9602 9.14674C38.0213 9.58432 38.012 10.0288 37.9327 10.4635ZM36.6065 9.67002C36.4552 9.17289 35.8824 9.18377 35.5257 9.67002L33.7533 12.1129C33.482 12.6208 33.6873 13.2369 34.1628 13.1936H34.164C34.9107 12.9709 35.5593 12.5007 36.0033 11.8604C36.4472 11.22 36.6599 10.4474 36.6065 9.67002ZM8.68286 14.7438V23.317C8.71007 23.6791 8.86228 24.0205 9.11345 24.2828C9.36461 24.545 9.69911 24.7118 10.0597 24.7547H11.6345C12.0396 24.7104 12.4134 24.5162 12.6825 24.2102C12.9515 23.9042 13.0963 23.5085 13.0883 23.1011V13.7526C12.5195 14.0107 11.9346 14.2319 11.3373 14.4147C10.4716 14.6446 9.57849 14.7552 8.68286 14.7438ZM17.2743 2.81983C17.8515 3.86839 18.1336 5.05385 18.0904 6.25001C17.9875 7.65878 17.4119 8.99153 16.4569 10.0323C15.5069 11.1038 14.3643 11.9876 13.0885 12.6379C12.4294 12.962 11.7445 13.2308 11.0409 13.4415C10.5958 13.5675 10.1391 13.6481 9.67773 13.6819C9.96786 13.2596 10.1755 12.7862 10.2898 12.2868C10.3398 12.0603 10.3691 11.8298 10.3772 11.598C10.4112 10.0297 9.97338 8.48723 9.12048 7.17062C8.67508 6.46326 8.08525 5.85798 7.38964 5.39444C6.69403 4.9309 5.90833 4.61955 5.08402 4.4808C4.91937 4.45762 4.75365 4.44285 4.5875 4.43655C7.66031 0.367535 11.0816 0.0491336 12.4976 0.00233995C12.5451 0.00081407 12.5918 0 12.6388 0C13.58 0.0674319 14.4917 0.358466 15.2979 0.848931C16.1041 1.3394 16.7816 2.01493 17.2743 2.81983ZM14.0015 3.60311L13.9151 3.51929C13.7197 3.3463 13.4718 3.24405 13.2112 3.22898C12.9507 3.21391 12.6926 3.28688 12.4785 3.43618L10.9425 4.42475C10.7999 4.49231 10.6754 4.5926 10.579 4.71745C10.4826 4.8423 10.4171 4.98817 10.3877 5.14316C10.3584 5.29815 10.3662 5.45788 10.4104 5.60931C10.4545 5.76073 10.5339 5.89958 10.6419 6.01451L10.701 6.08816C10.8728 6.25321 11.0963 6.35394 11.3338 6.37338C11.5713 6.39282 11.8082 6.32977 12.0046 6.19487L13.748 5.07264C13.8689 4.99953 13.9727 4.90128 14.0524 4.78456C14.1321 4.66784 14.1858 4.53536 14.2099 4.39609C14.2339 4.25682 14.2277 4.11401 14.1918 3.97732C14.1559 3.84064 14.0909 3.71255 14.0015 3.60311ZM8.68286 13.6841C8.66872 13.6981 8.6561 13.7121 8.64146 13.726C8.44806 13.9071 8.23913 14.0709 8.01707 14.2155C7.74985 14.3896 7.47208 14.547 7.18536 14.6867C7.11415 14.7219 7.05535 14.7568 6.97987 14.7921C6.37629 15.0055 5.74059 15.1138 5.1004 15.1124C4.5429 15.1292 3.98782 15.0323 3.46905 14.8274C2.95028 14.6225 2.47871 14.3141 2.08312 13.9209C1.60254 13.4844 1.19456 12.9741 0.874518 12.4093C0.607887 11.989 0.390656 11.5393 0.227138 11.0691C0.160178 10.871 0.106785 10.6686 0.0673273 10.4632C-0.0119837 10.0285 -0.0212904 9.58394 0.0397596 9.14633C0.129412 8.58852 0.312509 8.04982 0.581346 7.55291C1.00639 6.79587 1.62779 6.16751 2.38005 5.73406C2.61338 5.60083 2.85709 5.4867 3.10882 5.39277C3.15642 5.37456 3.19884 5.3471 3.24716 5.33021C3.50388 5.24627 3.7708 5.19754 4.04062 5.18535C4.11101 5.18108 4.18385 5.16979 4.25241 5.16979C4.48818 5.171 4.72343 5.19214 4.95564 5.23296C8.65733 5.86437 9.77051 9.83298 9.6112 11.6865C9.60113 11.8273 9.58045 11.9671 9.54936 12.1047C9.42298 12.7054 9.12139 13.2546 8.68286 13.6841ZM4.24682 12.1129L2.47435 9.67022C2.1177 9.18397 1.54489 9.17309 1.39362 9.67022C1.34234 10.0512 1.36755 10.4386 1.46775 10.8098C1.56796 11.1809 1.74116 11.5284 1.97722 11.8318C2.17729 12.174 2.44552 12.4714 2.76529 12.7057C3.08506 12.9399 3.44955 13.106 3.83615 13.1936C4.31182 13.2369 4.51812 12.6208 4.24682 12.1129Z" fill="#1D1D1F"/>
</svg>
