<svg width="13" height="15" viewBox="0 0 13 15" fill="none" xmlns="http://www.w3.org/2000/svg">
<path d="M3.02018 14.7171C2.76766 14.5555 2.50503 14.3231 2.24241 13.9999C2.06059 13.7878 1.83837 13.4848 1.57575 13.0908C1.1212 12.4343 0.74747 11.6767 0.464643 10.8181C0.151514 9.87872 0 8.97974 0 8.10096C0 7.12117 0.21212 6.26259 0.626259 5.54542C0.949489 4.96966 1.38383 4.51512 1.93938 4.18179C2.49493 3.83836 3.08079 3.66664 3.71715 3.65654C3.93937 3.65654 4.17169 3.68684 4.42421 3.74745C4.60603 3.79795 4.82825 3.87876 5.09088 3.97977C5.43431 4.11108 5.62623 4.19189 5.68683 4.21209C5.88885 4.2828 6.06057 4.3131 6.19188 4.3131C6.29289 4.3131 6.4343 4.2828 6.59592 4.2323C6.68682 4.20199 6.85854 4.14139 7.10096 4.04038C7.34339 3.94947 7.5353 3.87876 7.68682 3.81816C7.91914 3.74745 8.14136 3.68684 8.34338 3.65654C8.5858 3.61614 8.82823 3.60604 9.06055 3.62624C9.50499 3.65654 9.90903 3.74745 10.2727 3.88886C10.909 4.14139 11.4242 4.54542 11.808 5.11108C11.6464 5.21209 11.4949 5.3232 11.3535 5.45451C11.0403 5.73734 10.7777 6.05047 10.5858 6.3939C10.3131 6.87874 10.1818 7.41409 10.1818 7.96964C10.1919 8.64641 10.3636 9.24236 10.707 9.75751C10.9494 10.1312 11.2727 10.4545 11.6666 10.7171C11.8585 10.8484 12.0302 10.9393 12.1918 10.9999C12.111 11.2626 12.0201 11.4949 11.9393 11.6868C11.7171 12.212 11.4545 12.6868 11.1615 13.1312C10.8888 13.5252 10.6767 13.8181 10.5151 14.01C10.2626 14.313 10.0201 14.5353 9.77771 14.6969C9.49489 14.8787 9.19186 14.9696 8.86863 14.9696C8.64641 14.9797 8.43429 14.9494 8.22217 14.8888C8.10096 14.8484 7.91914 14.7878 7.68682 14.6868C7.4545 14.5858 7.26258 14.5151 7.12117 14.4747C6.88884 14.414 6.64642 14.3837 6.3939 14.3837C6.14137 14.3837 5.89895 14.414 5.66663 14.4747C5.50501 14.5151 5.3232 14.5858 5.10098 14.6767C4.83835 14.7878 4.66664 14.8585 4.56563 14.8888C4.36361 14.9494 4.15149 14.9898 3.94947 14.9999C3.62624 14.9999 3.32321 14.909 3.02018 14.7171ZM7.30298 3.1818C6.87874 3.39392 6.47471 3.48483 6.07067 3.45452C6.01006 3.05048 6.07067 2.63635 6.24238 2.1818C6.3939 1.79797 6.59592 1.44444 6.86864 1.13131C7.14137 0.818176 7.4747 0.555552 7.88884 0.343432C8.30298 0.131312 8.69691 0.0202019 9.07065 0C9.12115 0.42424 9.07065 0.848479 8.91913 1.29292C8.77772 1.69696 8.5656 2.06059 8.29287 2.39392C8.02015 2.72725 7.68682 2.98988 7.30298 3.1818Z" fill="#515154"/>
</svg>
